<svg xmlns="http://www.w3.org/2000/svg" viewBox="-506 -325 1012 650" width="1012" height="650" style="background-color: rgb(255, 255, 255);"><rect id="background" height="650" width="1012" y="-325" x="-506" stroke-width="0" stroke="#000000" fill="#ffffff"/><text x="-340.4011162711133" y="-257.7842475894853" z="-0.9892176384839302" font-family="Verdana" font-size="12" fill="rgb(0,0,0)">Axis 1 (12.19 %)</text><path d="M404.9500047245965,233.36760133407387L-340.4011162711133,228.24713880584213M-340.4011162711133,-257.7842475894853L-340.4011162711133,228.24713880584213M-384.89649577124504,250.00995707723067L-340.4011162711133,228.24713880584213" style="fill:none;stroke:rgb(0,0,0);stroke-width:3;stroke-linecap:round"/><text x="404.9500047245965" y="233.36760133407387" z="-0.9894609554812704" font-family="Verdana" font-size="12" fill="rgb(0,0,0)">timepoint</text><path d="M-196.46947212623263,62.255382276403864L-188.05189410330064,62.25538227640385L-188.05189410330064,54.21376284103512zM-188.05189410330064,62.25538227640385L-179.63431608036865,62.255382276403864L-179.63431608036865,54.21376284103513zM-196.46947212623263,54.21376284103513L-196.46947212623263,62.255382276403864L-188.05189410330064,54.21376284103512zM-188.05189410330064,54.21376284103512L-188.05189410330064,62.25538227640385L-179.63431608036865,54.21376284103513zM-196.46947212623263,54.21376284103513L-188.05189410330064,54.21376284103512L-188.05189410330064,46.17214340566638zM-188.05189410330064,54.21376284103512L-179.63431608036865,54.21376284103513L-179.63431608036862,46.17214340566638zM-196.46947212623263,46.17214340566638L-196.46947212623263,54.21376284103513L-188.05189410330064,46.17214340566638zM-188.05189410330064,46.17214340566638L-188.05189410330064,54.21376284103512L-179.63431608036862,46.17214340566638zM-340.0803626321328,176.79669206638746L-331.66278460920074,176.79669206638746L-331.66278460920074,168.75507263101878zM-331.66278460920074,176.79669206638746L-323.2452065862687,176.79669206638746L-323.2452065862687,168.75507263101878zM-340.0803626321328,168.75507263101878L-340.0803626321328,176.79669206638746L-331.66278460920074,168.75507263101878zM-331.66278460920074,168.75507263101878L-331.66278460920074,176.79669206638746L-323.2452065862687,168.75507263101878zM-340.0803626321328,168.75507263101878L-331.66278460920074,168.75507263101878L-331.66278460920074,160.71345319565003zM-331.66278460920074,168.75507263101878L-323.2452065862687,168.75507263101878L-323.24520658626864,160.71345319565003zM-340.0803626321328,160.71345319565003L-340.0803626321328,168.75507263101878L-331.66278460920074,160.71345319565003zM-331.66278460920074,160.71345319565003L-331.66278460920074,168.75507263101878L-323.24520658626864,160.71345319565003zM-341.00211030253973,134.801965095626L-332.5845322796077,134.801965095626L-332.58453227960774,126.7603456602573zM-332.5845322796077,134.801965095626L-324.1669542566757,134.80196509562603L-324.1669542566757,126.7603456602573zM-198.6444545769873,-27.317453023372035L-190.22687655405528,-27.317453023372035L-190.22687655405528,-35.359072458740776zM-190.22687655405528,-27.317453023372035L-181.8092985311233,-27.317453023372035L-181.8092985311233,-35.35907245874077zM-341.00211030253973,126.76034566025727L-341.00211030253973,134.801965095626L-332.58453227960774,126.7603456602573zM-332.58453227960774,126.7603456602573L-332.5845322796077,134.801965095626L-324.1669542566757,126.7603456602573zM-198.6444545769873,-35.35907245874077L-198.6444545769873,-27.317453023372035L-190.22687655405528,-35.359072458740776zM-190.22687655405528,-35.359072458740776L-190.22687655405528,-27.317453023372035L-181.8092985311233,-35.35907245874077zM-341.00211030253973,126.76034566025727L-332.58453227960774,126.7603456602573L-332.58453227960774,118.71872622488857zM-332.58453227960774,126.7603456602573L-324.1669542566757,126.7603456602573L-324.1669542566757,118.71872622488857zM-198.6444545769873,-35.35907245874077L-190.22687655405528,-35.359072458740776L-190.22687655405528,-43.40069189410951zM-190.22687655405528,-35.359072458740776L-181.8092985311233,-35.35907245874077L-181.8092985311233,-43.40069189410951zM-341.00211030253973,118.71872622488856L-341.00211030253973,126.76034566025727L-332.58453227960774,118.71872622488857zM-332.58453227960774,118.71872622488857L-332.58453227960774,126.7603456602573L-324.1669542566757,118.71872622488857zM-198.6444545769873,-43.40069189410951L-198.6444545769873,-35.35907245874077L-190.22687655405528,-43.40069189410951zM-190.22687655405528,-43.40069189410951L-190.22687655405528,-35.359072458740776L-181.8092985311233,-43.40069189410951zM-57.65552616837471,-76.1866275374829L-49.237948145442694,-76.1866275374829L-49.237948145442694,-84.22824697285165zM-49.237948145442694,-76.1866275374829L-40.820370122510674,-76.1866275374829L-40.820370122510674,-84.22824697285165zM-57.655526168374706,-84.22824697285165L-57.65552616837471,-76.1866275374829L-49.237948145442694,-84.22824697285165zM-49.237948145442694,-84.22824697285165L-49.237948145442694,-76.1866275374829L-40.820370122510674,-84.22824697285165zM-57.655526168374706,-84.22824697285165L-49.237948145442694,-84.22824697285165L-49.237948145442694,-92.2698664082204zM-49.237948145442694,-84.22824697285165L-40.820370122510674,-84.22824697285165L-40.820370122510674,-92.2698664082204zM-57.65552616837471,-92.2698664082204L-57.655526168374706,-84.22824697285165L-49.237948145442694,-92.2698664082204zM-49.237948145442694,-92.2698664082204L-49.237948145442694,-84.22824697285165L-40.820370122510674,-92.2698664082204zM-202.9984139479949,64.1420585731604L-194.58083592506287,64.1420585731604L-194.58083592506284,56.10043913779166zM-194.58083592506287,64.1420585731604L-186.16325790213088,64.1420585731604L-186.16325790213088,56.10043913779167zM-202.9984139479949,56.10043913779166L-202.9984139479949,64.1420585731604L-194.58083592506284,56.10043913779166zM-194.58083592506284,56.10043913779166L-194.58083592506287,64.1420585731604L-186.16325790213088,56.10043913779167zM-202.9984139479949,56.10043913779166L-194.58083592506284,56.10043913779166L-194.58083592506287,48.05881970242292zM-194.58083592506284,56.10043913779166L-186.16325790213088,56.10043913779167L-186.16325790213088,48.05881970242292zM-202.9984139479949,48.05881970242292L-202.9984139479949,56.10043913779166L-194.58083592506287,48.05881970242292zM-194.58083592506287,48.05881970242292L-194.58083592506284,56.10043913779166L-186.16325790213088,48.05881970242292zM-345.76767535657564,159.7626216441767L-337.3500973336436,159.7626216441767L-337.3500973336436,151.721002208808zM-337.3500973336436,159.7626216441767L-328.93251931071154,159.7626216441767L-328.93251931071154,151.721002208808zM-345.76767535657564,151.72100220880796L-345.76767535657564,159.7626216441767L-337.3500973336436,151.721002208808zM-337.3500973336436,151.721002208808L-337.3500973336436,159.7626216441767L-328.93251931071154,151.721002208808zM-345.76767535657564,151.72100220880796L-337.3500973336436,151.721002208808L-337.3500973336436,143.67938277343927zM-337.3500973336436,151.721002208808L-328.93251931071154,151.721002208808L-328.93251931071154,143.67938277343927zM-345.76767535657564,143.67938277343924L-345.76767535657564,151.72100220880796L-337.3500973336436,143.67938277343927zM-337.3500973336436,143.67938277343927L-337.3500973336436,151.721002208808L-328.93251931071154,143.67938277343927zM77.13907850372529,-113.76763004756283L85.55665652665736,-113.76763004756283L85.5566565266573,-121.80924948293156zM85.55665652665736,-113.76763004756283L93.97423454958935,-113.76763004756283L93.97423454958935,-121.80924948293156zM77.13907850372532,-121.80924948293156L77.13907850372529,-113.76763004756283L85.5566565266573,-121.80924948293156zM85.5566565266573,-121.80924948293156L85.55665652665736,-113.76763004756283L93.97423454958935,-121.80924948293156zM77.13907850372532,-121.80924948293156L85.5566565266573,-121.80924948293156L85.5566565266573,-129.85086891830028zM85.5566565266573,-121.80924948293156L93.97423454958935,-121.80924948293156L93.97423454958935,-129.85086891830028zM77.13907850372532,-129.85086891830028L77.13907850372532,-121.80924948293156L85.5566565266573,-129.85086891830028zM85.5566565266573,-129.85086891830028L85.5566565266573,-121.80924948293156L93.97423454958935,-129.85086891830028zM356.61785079593665,114.48011519859931L365.0354288188687,114.48011519859931L365.0354288188687,106.43849576323059zM365.0354288188687,114.48011519859931L373.45300684180074,114.48011519859934L373.45300684180074,106.4384957632306zM356.6178507959367,106.43849576323059L356.61785079593665,114.48011519859931L365.0354288188687,106.43849576323059zM365.0354288188687,106.43849576323059L365.0354288188687,114.48011519859931L373.45300684180074,106.4384957632306zM356.6178507959367,106.43849576323059L365.0354288188687,106.43849576323059L365.0354288188687,98.39687632786185zM365.0354288188687,106.43849576323059L373.45300684180074,106.4384957632306L373.45300684180074,98.39687632786186zM215.2431974533635,82.5693056691082L223.6607754762955,82.5693056691082L223.6607754762955,74.52768623373946zM223.6607754762955,82.5693056691082L232.07835349922755,82.5693056691082L232.0783534992275,74.52768623373946zM356.6178507959367,98.39687632786185L356.6178507959367,106.43849576323059L365.0354288188687,98.39687632786185zM365.0354288188687,98.39687632786185L365.0354288188687,106.43849576323059L373.45300684180074,98.39687632786186zM215.2431974533635,74.52768623373946L215.2431974533635,82.5693056691082L223.6607754762955,74.52768623373946zM223.6607754762955,74.52768623373946L223.6607754762955,82.5693056691082L232.0783534992275,74.52768623373946zM215.2431974533635,74.52768623373946L223.6607754762955,74.52768623373946L223.66077547629556,66.48606679837071zM223.6607754762955,74.52768623373946L232.0783534992275,74.52768623373946L232.07835349922755,66.48606679837071zM215.24319745336356,66.48606679837071L215.2431974533635,74.52768623373946L223.66077547629556,66.48606679837071zM223.66077547629556,66.48606679837071L223.6607754762955,74.52768623373946L232.07835349922755,66.48606679837071zM75.32244899176162,-225.48438199515428L83.74002701469367,-225.48438199515428L83.74002701469364,-233.526001430523zM83.74002701469367,-225.48438199515428L92.15760503762567,-225.48438199515425L92.15760503762567,-233.526001430523zM75.32244899176162,-233.52600143052302L75.32244899176162,-225.48438199515428L83.74002701469364,-233.526001430523zM83.74002701469364,-233.526001430523L83.74002701469367,-225.48438199515428L92.15760503762567,-233.526001430523zM-66.26087893329324,-204.66120716249156L-57.843300910361215,-204.66120716249154L-57.843300910361215,-212.70282659786028zM-57.843300910361215,-204.66120716249154L-49.42572288742919,-204.66120716249156L-49.42572288742919,-212.70282659786028zM-66.26087893329323,-212.70282659786028L-66.26087893329324,-204.66120716249156L-57.843300910361215,-212.70282659786028zM-57.843300910361215,-212.70282659786028L-57.843300910361215,-204.66120716249154L-49.42572288742919,-212.70282659786028zM75.32244899176162,-233.52600143052302L83.74002701469364,-233.526001430523L83.74002701469361,-241.56762086589177zM83.74002701469364,-233.526001430523L92.15760503762567,-233.526001430523L92.1576050376257,-241.56762086589174zM75.32244899176162,-241.56762086589177L75.32244899176162,-233.52600143052302L83.74002701469361,-241.56762086589177zM83.74002701469361,-241.56762086589177L83.74002701469364,-233.526001430523L92.1576050376257,-241.56762086589174zM-66.26087893329323,-212.70282659786028L-57.843300910361215,-212.70282659786028L-57.843300910361215,-220.744446033229zM-57.843300910361215,-212.70282659786028L-49.42572288742919,-212.70282659786028L-49.42572288742919,-220.744446033229zM355.42432332002426,60.22415663989314L363.8419013429563,60.22415663989315L363.8419013429563,52.18253720452441zM363.8419013429563,60.22415663989315L372.25947936588835,60.22415663989314L372.25947936588835,52.182537204524394zM-66.26087893329326,-220.74444603322902L-66.26087893329323,-212.70282659786028L-57.843300910361215,-220.744446033229zM-57.843300910361215,-220.744446033229L-57.843300910361215,-212.70282659786028L-49.42572288742919,-220.744446033229zM355.4243233200243,52.182537204524394L355.42432332002426,60.22415663989314L363.8419013429563,52.18253720452441zM363.8419013429563,52.18253720452441L363.8419013429563,60.22415663989315L372.25947936588835,52.182537204524394zM355.4243233200243,52.182537204524394L363.8419013429563,52.18253720452441L363.84190134295625,44.140917769155664zM363.8419013429563,52.18253720452441L372.25947936588835,52.182537204524394L372.25947936588835,44.140917769155664zM355.4243233200243,44.140917769155664L355.4243233200243,52.182537204524394L363.84190134295625,44.140917769155664zM363.84190134295625,44.140917769155664L363.8419013429563,52.18253720452441L372.25947936588835,44.140917769155664zM212.14689830685435,169.20216662359093L220.56447632978637,169.20216662359093L220.56447632978637,161.16054718822218zM220.56447632978637,169.20216662359093L228.98205435271842,169.20216662359093L228.98205435271836,161.16054718822218zM212.14689830685435,161.16054718822218L212.14689830685435,169.20216662359093L220.56447632978637,161.16054718822218zM220.56447632978637,161.16054718822218L220.56447632978637,169.20216662359093L228.98205435271836,161.16054718822218zM212.14689830685435,161.16054718822218L220.56447632978637,161.16054718822218L220.56447632978643,153.11892775285347zM220.56447632978637,161.16054718822218L228.98205435271836,161.16054718822218L228.98205435271842,153.11892775285347zM212.1468983068544,153.11892775285347L212.14689830685435,161.16054718822218L220.56447632978643,153.11892775285347zM220.56447632978643,153.11892775285347L220.56447632978637,161.16054718822218L228.98205435271842,153.11892775285347zM70.79737060646566,24.31278552930912L79.21494862939774,24.312785529309128L79.21494862939771,16.271166093940387zM79.21494862939774,24.312785529309128L87.63252665232973,24.31278552930912L87.63252665232973,16.271166093940387zM70.79737060646569,16.271166093940387L70.79737060646566,24.31278552930912L79.21494862939771,16.271166093940387zM79.21494862939771,16.271166093940387L79.21494862939774,24.312785529309128L87.63252665232973,16.271166093940387zM70.79737060646569,16.271166093940387L79.21494862939771,16.271166093940387L79.21494862939768,8.229546658571653zM79.21494862939771,16.271166093940387L87.63252665232973,16.271166093940387L87.63252665232976,8.229546658571653zM70.79737060646569,8.229546658571653L70.79737060646569,16.271166093940387L79.21494862939768,8.229546658571653zM79.21494862939768,8.229546658571653L79.21494862939771,16.271166093940387L87.63252665232976,8.229546658571653zM-70.29466584269686,-153.48236896998966L-61.87708781976482,-153.48236896998964L-61.87708781976483,-161.52398840535838zM-61.87708781976482,-153.48236896998964L-53.4595097968328,-153.48236896998966L-53.45950979683281,-161.52398840535838zM-70.29466584269683,-161.52398840535838L-70.29466584269686,-153.48236896998966L-61.87708781976483,-161.52398840535838zM-61.87708781976483,-161.52398840535838L-61.87708781976482,-153.48236896998964L-53.45950979683281,-161.52398840535838zM-70.29466584269683,-161.52398840535838L-61.87708781976483,-161.52398840535838L-61.87708781976482,-169.5656078407271zM-61.87708781976483,-161.52398840535838L-53.45950979683281,-161.52398840535838L-53.4595097968328,-169.5656078407271zM-70.29466584269686,-169.56560784072713L-70.29466584269683,-161.52398840535838L-61.87708781976482,-169.5656078407271zM-61.87708781976482,-169.5656078407271L-61.87708781976483,-161.52398840535838L-53.4595097968328,-169.5656078407271z" style="fill:rgb(0,0,291)"/><path d="M-355.69982715071495,-42.95227188976181L-347.2822491277829,-42.952271889761825L-347.2822491277829,-50.993891325130555zM-347.2822491277829,-42.952271889761825L-338.86467110485086,-42.952271889761825L-338.86467110485086,-50.993891325130555zM-355.69982715071495,-50.99389132513055L-355.69982715071495,-42.95227188976181L-347.2822491277829,-50.993891325130555zM-347.2822491277829,-50.993891325130555L-347.2822491277829,-42.952271889761825L-338.86467110485086,-50.993891325130555zM-355.69982715071495,-50.99389132513055L-347.2822491277829,-50.993891325130555L-347.2822491277829,-59.0355107604993zM-347.2822491277829,-50.993891325130555L-338.86467110485086,-50.993891325130555L-338.86467110485086,-59.03551076049929zM-355.69982715071495,-59.03551076049929L-355.69982715071495,-50.99389132513055L-347.2822491277829,-59.0355107604993zM-347.2822491277829,-59.0355107604993L-347.2822491277829,-50.993891325130555L-338.86467110485086,-59.03551076049929zM-358.67925885720973,-17.31874215883028L-350.2616808342777,-17.31874215883028L-350.2616808342777,-25.360361594199023zM-350.2616808342777,-17.31874215883028L-341.8441028113457,-17.318742158830283L-341.8441028113457,-25.360361594199023zM-358.67925885720973,-25.360361594199023L-358.67925885720973,-17.31874215883028L-350.2616808342777,-25.360361594199023zM-350.2616808342777,-25.360361594199023L-350.2616808342777,-17.31874215883028L-341.8441028113457,-25.360361594199023zM-358.67925885720973,-25.360361594199023L-350.2616808342777,-25.360361594199023L-350.26168083427774,-33.40198102956775zM-350.2616808342777,-25.360361594199023L-341.8441028113457,-25.360361594199023L-341.8441028113457,-33.40198102956774zM-358.67925885720973,-33.40198102956775L-358.67925885720973,-25.360361594199023L-350.26168083427774,-33.40198102956775zM-350.26168083427774,-33.40198102956775L-350.2616808342777,-25.360361594199023L-341.8441028113457,-33.40198102956774z" style="fill:rgb(291,0,0)"/><path d="M205.4260333658904,12.767856259844757L213.84361138882238,12.767856259844757L213.84361138882238,4.72623682447602zM213.84361138882238,12.767856259844757L222.2611894117544,12.767856259844757L222.2611894117544,4.72623682447602z" style="fill:rgb(0,0,291)"/><path d="M-217.62851899916575,-104.97795963321944L-209.21094097623373,-104.97795963321943L-209.21094097623373,-113.01957906858817zM-209.21094097623373,-104.97795963321943L-200.7933629533017,-104.97795963321943L-200.7933629533017,-113.01957906858817z" style="fill:rgb(291,0,0)"/><path d="M205.4260333658904,4.72623682447602L205.4260333658904,12.767856259844757L213.84361138882238,4.72623682447602zM213.84361138882238,4.72623682447602L213.84361138882238,12.767856259844757L222.2611894117544,4.72623682447602z" style="fill:rgb(0,0,291)"/><path d="M-217.62851899916575,-113.01957906858817L-217.62851899916575,-104.97795963321944L-209.21094097623373,-113.01957906858817zM-209.21094097623373,-113.01957906858817L-209.21094097623373,-104.97795963321943L-200.7933629533017,-113.01957906858817z" style="fill:rgb(291,0,0)"/><path d="M205.4260333658904,4.72623682447602L213.84361138882238,4.72623682447602L213.84361138882244,-3.3153826108927156zM213.84361138882238,4.72623682447602L222.2611894117544,4.72623682447602L222.26118941175446,-3.3153826108927156z" style="fill:rgb(0,0,291)"/><path d="M-217.62851899916575,-113.01957906858817L-209.21094097623373,-113.01957906858817L-209.21094097623376,-121.0611985039569zM-209.21094097623373,-113.01957906858817L-200.7933629533017,-113.01957906858817L-200.7933629533017,-121.0611985039569z" style="fill:rgb(291,0,0)"/><path d="M205.42603336589045,-3.3153826108927156L205.4260333658904,4.72623682447602L213.84361138882244,-3.3153826108927156zM213.84361138882244,-3.3153826108927156L213.84361138882238,4.72623682447602L222.26118941175446,-3.3153826108927156z" style="fill:rgb(0,0,291)"/><path d="M-217.62851899916575,-121.0611985039569L-217.62851899916575,-113.01957906858817L-209.21094097623376,-121.0611985039569zM-209.21094097623376,-121.0611985039569L-209.21094097623373,-113.01957906858817L-200.7933629533017,-121.0611985039569zM-77.09396596013718,-55.664527047541064L-68.67638793720515,-55.66452704754105L-68.67638793720516,-63.70614648290979zM-68.67638793720515,-55.66452704754105L-60.25880991427312,-55.66452704754105L-60.25880991427314,-63.70614648290979zM-77.09396596013717,-63.70614648290979L-77.09396596013718,-55.664527047541064L-68.67638793720516,-63.70614648290979zM-68.67638793720516,-63.70614648290979L-68.67638793720515,-55.66452704754105L-60.25880991427314,-63.70614648290979zM-77.09396596013717,-63.70614648290979L-68.67638793720516,-63.70614648290979L-68.67638793720515,-71.74776591827853zM-68.67638793720516,-63.70614648290979L-60.25880991427314,-63.70614648290979L-60.25880991427314,-71.74776591827853zM-77.09396596013718,-71.74776591827853L-77.09396596013717,-63.70614648290979L-68.67638793720515,-71.74776591827853zM-68.67638793720515,-71.74776591827853L-68.67638793720516,-63.70614648290979L-60.25880991427314,-71.74776591827853z" style="fill:rgb(291,0,0)"/><path d="M344.28192996522864,107.59984088965L352.6995079881607,107.59984088964997L352.6995079881607,99.55822145428124zM352.6995079881607,107.59984088964997L361.11708601109274,107.59984088965L361.1170860110927,99.55822145428125zM344.2819299652287,99.55822145428125L344.28192996522864,107.59984088965L352.6995079881607,99.55822145428124zM352.6995079881607,99.55822145428124L352.6995079881607,107.59984088964997L361.1170860110927,99.55822145428125zM-363.07979674952634,235.880616144675L-354.66221872659435,235.880616144675L-354.66221872659435,227.83899670930631zM-354.66221872659435,235.880616144675L-346.24464070366224,235.88061614467497L-346.24464070366224,227.83899670930626zM-363.0797967495264,227.83899670930626L-363.07979674952634,235.880616144675L-354.66221872659435,227.83899670930631zM-354.66221872659435,227.83899670930631L-354.66221872659435,235.880616144675L-346.24464070366224,227.83899670930626zM344.2819299652287,99.55822145428125L352.6995079881607,99.55822145428124L352.69950798816063,91.51660201891251zM352.6995079881607,99.55822145428124L361.1170860110927,99.55822145428125L361.1170860110927,91.51660201891251zM344.2819299652287,91.51660201891251L344.2819299652287,99.55822145428125L352.69950798816063,91.51660201891251zM352.69950798816063,91.51660201891251L352.6995079881607,99.55822145428124L361.1170860110927,91.51660201891251zM-363.0797967495264,227.83899670930626L-354.66221872659435,227.83899670930631L-354.66221872659435,219.79737727393757zM-354.66221872659435,227.83899670930631L-346.24464070366224,227.83899670930626L-346.24464070366224,219.79737727393757zM-363.0797967495264,219.79737727393757L-363.0797967495264,227.83899670930626L-354.66221872659435,219.79737727393757zM-354.66221872659435,219.79737727393757L-354.66221872659435,227.83899670930631L-346.24464070366224,219.79737727393757z" style="fill:rgb(0,0,291)"/><path d="M-363.19008435584,139.48124709208753L-354.77250633290794,139.48124709208753L-354.772506332908,131.4396276567188zM-354.77250633290794,139.48124709208753L-346.35492830997595,139.48124709208756L-346.35492830997595,131.4396276567188zM-363.19008435584,131.43962765671878L-363.19008435584,139.48124709208753L-354.772506332908,131.4396276567188zM-354.772506332908,131.4396276567188L-354.77250633290794,139.48124709208753L-346.35492830997595,131.4396276567188zM-363.19008435584,131.43962765671878L-354.772506332908,131.4396276567188L-354.77250633290805,123.39800822135007zM-354.772506332908,131.4396276567188L-346.35492830997595,131.4396276567188L-346.3549283099759,123.39800822135007zM-363.19008435584,123.39800822135005L-363.19008435584,131.43962765671878L-354.77250633290805,123.39800822135007zM-354.77250633290805,123.39800822135007L-354.772506332908,131.4396276567188L-346.3549283099759,123.39800822135007zM60.60025460376321,33.00416839205321L69.01783262669527,33.00416839205321L69.01783262669524,24.96254895668448zM69.01783262669527,33.00416839205321L77.43541064962729,33.00416839205321L77.43541064962726,24.962548956684476zM60.60025460376321,24.962548956684476L60.60025460376321,33.00416839205321L69.01783262669524,24.96254895668448zM69.01783262669524,24.96254895668448L69.01783262669527,33.00416839205321L77.43541064962726,24.962548956684476zM60.60025460376321,24.962548956684476L69.01783262669524,24.96254895668448L69.01783262669524,16.92092952131574zM69.01783262669524,24.96254895668448L77.43541064962726,24.962548956684476L77.43541064962729,16.920929521315742zM-364.2384958764123,128.61320717408316L-355.82091785348024,128.61320717408316L-355.8209178534803,120.57158773871446zM-355.82091785348024,128.61320717408316L-347.4033398305483,128.6132071740832L-347.4033398305483,120.57158773871446zM60.60025460376321,16.92092952131574L60.60025460376321,24.962548956684476L69.01783262669524,16.92092952131574zM69.01783262669524,16.92092952131574L69.01783262669524,24.96254895668448L77.43541064962729,16.920929521315742zM-364.2384958764123,120.57158773871444L-364.2384958764123,128.61320717408316L-355.8209178534803,120.57158773871446zM-355.8209178534803,120.57158773871446L-355.82091785348024,128.61320717408316L-347.4033398305483,120.57158773871446zM-364.2384958764123,120.57158773871444L-355.8209178534803,120.57158773871446L-355.82091785348035,112.52996830334573zM-355.8209178534803,120.57158773871446L-347.4033398305483,120.57158773871446L-347.40333983054825,112.52996830334573zM-364.2384958764123,112.5299683033457L-364.2384958764123,120.57158773871444L-355.82091785348035,112.52996830334573zM-355.82091785348035,112.52996830334573L-355.8209178534803,120.57158773871446L-347.40333983054825,112.52996830334573zM199.3678727986135,74.80450230583853L207.78545082154548,74.80450230583851L207.78545082154548,66.76288287046978zM207.78545082154548,74.80450230583851L216.2030288444775,74.80450230583853L216.2030288444775,66.76288287046978zM199.3678727986135,66.76288287046978L199.3678727986135,74.80450230583853L207.78545082154548,66.76288287046978zM207.78545082154548,66.76288287046978L207.78545082154548,74.80450230583851L216.2030288444775,66.76288287046978zM199.3678727986135,66.76288287046978L207.78545082154548,66.76288287046978L207.78545082154554,58.72126343510106zM207.78545082154548,66.76288287046978L216.2030288444775,66.76288287046978L216.20302884447756,58.72126343510106zM199.3678727986135,58.72126343510106L199.3678727986135,66.76288287046978L207.78545082154554,58.72126343510106zM207.78545082154554,58.72126343510106L207.78545082154548,66.76288287046978L216.20302884447756,58.72126343510106z" style="fill:rgb(291,0,0)"/><path d="M198.47634364484335,96.60064192629801L206.89392166777534,96.60064192629798L206.89392166777534,88.55902249092928zM206.89392166777534,96.60064192629798L215.3114996907074,96.60064192629801L215.31149969070734,88.55902249092928zM198.47634364484335,88.55902249092928L198.47634364484335,96.60064192629801L206.89392166777534,88.55902249092928zM206.89392166777534,88.55902249092928L206.89392166777534,96.60064192629798L215.31149969070734,88.55902249092928zM198.47634364484335,88.55902249092928L206.89392166777534,88.55902249092928L206.8939216677754,80.51740305556054zM206.89392166777534,88.55902249092928L215.31149969070734,88.55902249092928L215.3114996907074,80.51740305556052zM198.4763436448434,80.51740305556052L198.47634364484335,88.55902249092928L206.8939216677754,80.51740305556054zM206.8939216677754,80.51740305556054L206.89392166777534,88.55902249092928L215.3114996907074,80.51740305556052z" style="fill:rgb(0,0,291)"/><path d="M-226.51499760076976,59.856749451557256L-218.09741957783777,59.85674945155725L-218.09741957783777,51.815130016188526zM-218.09741957783777,59.85674945155725L-209.67984155490575,59.85674945155725L-209.67984155490575,51.815130016188526zM-226.51499760076976,51.815130016188526L-226.51499760076976,59.856749451557256L-218.09741957783777,51.815130016188526zM-218.09741957783777,51.815130016188526L-218.09741957783777,59.85674945155725L-209.67984155490575,51.815130016188526zM-226.51499760076976,51.815130016188526L-218.09741957783777,51.815130016188526L-218.09741957783777,43.77351058081978zM-218.09741957783777,51.815130016188526L-209.67984155490575,51.815130016188526L-209.67984155490572,43.77351058081978zM-226.5149976007698,43.77351058081978L-226.51499760076976,51.815130016188526L-218.09741957783777,43.77351058081978zM-218.09741957783777,43.77351058081978L-218.09741957783777,51.815130016188526L-209.67984155490572,43.77351058081978zM-227.5213838038388,16.089621521214607L-219.10380578090678,16.089621521214607L-219.10380578090675,8.048002085845873zM-219.10380578090678,16.089621521214607L-210.68622775797476,16.089621521214607L-210.68622775797476,8.048002085845873zM-227.5213838038388,8.048002085845871L-227.5213838038388,16.089621521214607L-219.10380578090675,8.048002085845873zM-219.10380578090675,8.048002085845873L-219.10380578090678,16.089621521214607L-210.68622775797476,8.048002085845873zM-227.5213838038388,8.048002085845871L-219.10380578090675,8.048002085845873L-219.10380578090678,0.00638265047713804zM-219.10380578090675,8.048002085845873L-210.68622775797476,8.048002085845873L-210.68622775797476,0.006382650477140295zM-227.5213838038388,0.00638265047713804L-227.5213838038388,8.048002085845871L-219.10380578090678,0.00638265047713804zM-219.10380578090678,0.00638265047713804L-219.10380578090675,8.048002085845873L-210.68622775797476,0.006382650477140295z" style="fill:rgb(291,0,0)"/><path d="M-228.80777423364574,-129.6056843076749L-220.39019621071373,-129.60568430767486L-220.3901962107137,-137.6473037430436zM-220.39019621071373,-129.60568430767486L-211.9726181877817,-129.60568430767486L-211.9726181877817,-137.6473037430436zM334.8788205866132,75.4107006538453L343.2963986095453,75.41070065384531L343.2963986095453,67.36908121847657zM343.2963986095453,75.41070065384531L351.71397663247734,75.41070065384531L351.7139766324773,67.36908121847657zM-228.80777423364574,-137.6473037430436L-228.80777423364574,-129.6056843076749L-220.3901962107137,-137.6473037430436zM-220.3901962107137,-137.6473037430436L-220.39019621071373,-129.60568430767486L-211.9726181877817,-137.6473037430436zM334.87882058661324,67.36908121847655L334.8788205866132,75.4107006538453L343.2963986095453,67.36908121847657zM343.2963986095453,67.36908121847657L343.2963986095453,75.41070065384531L351.7139766324773,67.36908121847657zM-228.80777423364574,-137.6473037430436L-220.3901962107137,-137.6473037430436L-220.39019621071373,-145.68892317841232zM-220.3901962107137,-137.6473037430436L-211.9726181877817,-137.6473037430436L-211.9726181877817,-145.68892317841235zM334.87882058661324,67.36908121847655L343.2963986095453,67.36908121847657L343.2963986095452,59.327461783107836zM343.2963986095453,67.36908121847657L351.7139766324773,67.36908121847657L351.7139766324773,59.327461783107836zM-228.80777423364574,-145.68892317841235L-228.80777423364574,-137.6473037430436L-220.39019621071373,-145.68892317841232zM-220.39019621071373,-145.68892317841232L-220.3901962107137,-137.6473037430436L-211.9726181877817,-145.68892317841235zM334.87882058661324,59.327461783107836L334.87882058661324,67.36908121847655L343.2963986095452,59.327461783107836zM343.2963986095452,59.327461783107836L343.2963986095453,67.36908121847657L351.7139766324773,59.327461783107836z" style="fill:rgb(0,0,291)"/><path d="M335.26630286583946,-137.83521434498556L343.6838808887715,-137.83521434498556L343.6838808887715,-145.8768337803543zM343.6838808887715,-137.83521434498556L352.1014589117036,-137.83521434498553L352.1014589117035,-145.87683378035427zM335.2663028658395,-145.87683378035427L335.26630286583946,-137.83521434498556L343.6838808887715,-145.8768337803543zM343.6838808887715,-145.8768337803543L343.6838808887715,-137.83521434498556L352.1014589117035,-145.87683378035427zM335.2663028658395,-145.87683378035427L343.6838808887715,-145.8768337803543L343.68388088877145,-153.91845321572302zM343.6838808887715,-145.8768337803543L352.1014589117035,-145.87683378035427L352.1014589117035,-153.91845321572302zM335.2663028658395,-153.918453215723L335.2663028658395,-145.87683378035427L343.68388088877145,-153.91845321572302zM343.68388088877145,-153.91845321572302L343.6838808887715,-145.8768337803543L352.1014589117035,-153.91845321572302zM-90.83433470757699,87.32940094132623L-82.41675668464494,87.32940094132624L-82.41675668464495,79.2877815059575zM-82.41675668464494,87.32940094132624L-73.99917866171292,87.32940094132624L-73.99917866171293,79.2877815059575zM-90.83433470757696,79.2877815059575L-90.83433470757699,87.32940094132623L-82.41675668464495,79.2877815059575zM-82.41675668464495,79.2877815059575L-82.41675668464494,87.32940094132624L-73.99917866171293,79.2877815059575zM-90.83433470757696,79.2877815059575L-82.41675668464495,79.2877815059575L-82.41675668464494,71.24616207058877zM-82.41675668464495,79.2877815059575L-73.99917866171293,79.2877815059575L-73.99917866171292,71.24616207058877zM-90.83433470757699,71.24616207058877L-90.83433470757696,79.2877815059575L-82.41675668464494,71.24616207058877zM-82.41675668464494,71.24616207058877L-82.41675668464495,79.2877815059575L-73.99917866171292,71.24616207058877z" style="fill:rgb(291,0,0)"/><path d="M50.04325408542212,87.05559353753667L58.46083210835417,87.05559353753667L58.46083210835414,79.01397410216794zM58.46083210835417,87.05559353753667L66.87841013128619,87.05559353753667L66.87841013128619,79.01397410216794zM50.04325408542215,79.01397410216794L50.04325408542212,87.05559353753667L58.46083210835414,79.01397410216794zM58.46083210835414,79.01397410216794L58.46083210835417,87.05559353753667L66.87841013128619,79.01397410216794zM50.04325408542215,79.01397410216794L58.46083210835414,79.01397410216794L58.46083210835414,70.97235466679919zM58.46083210835414,79.01397410216794L66.87841013128619,79.01397410216794L66.87841013128619,70.97235466679919zM50.04325408542212,70.97235466679919L50.04325408542215,79.01397410216794L58.46083210835414,70.97235466679919zM58.46083210835414,70.97235466679919L58.46083210835414,79.01397410216794L66.87841013128619,70.97235466679919z" style="fill:rgb(0,0,291)"/><text x="-384.89649577124504" y="250.00995707723067" z="-0.9906239465401476" font-family="Verdana" font-size="12" fill="rgb(0,0,0)">Axis 2 (10.91 %)</text><path d="M-232.43417837752807,-8.86777198218362L-224.01660035459605,-8.86777198218362L-224.01660035459605,-16.90939141755236zM-224.01660035459605,-8.86777198218362L-215.59902233166403,-8.86777198218362L-215.59902233166403,-16.909391417552357zM-232.43417837752804,-16.90939141755236L-232.43417837752807,-8.86777198218362L-224.01660035459605,-16.90939141755236zM-224.01660035459605,-16.90939141755236L-224.01660035459605,-8.86777198218362L-215.59902233166403,-16.909391417552357zM-232.43417837752804,-16.90939141755236L-224.01660035459605,-16.90939141755236L-224.01660035459605,-24.951010852921087zM-224.01660035459605,-16.90939141755236L-215.59902233166403,-16.909391417552357L-215.59902233166403,-24.951010852921087zM-232.43417837752807,-24.951010852921097L-232.43417837752804,-16.90939141755236L-224.01660035459605,-24.951010852921087zM-224.01660035459605,-24.951010852921087L-224.01660035459605,-16.90939141755236L-215.59902233166403,-24.951010852921087zM-91.51828290114541,-158.19922119396531L-83.10070487821338,-158.19922119396531L-83.10070487821339,-166.24084062933406zM-83.10070487821338,-158.19922119396531L-74.68312685528136,-158.19922119396534L-74.68312685528137,-166.24084062933403zM48.537602909701164,18.270468628066165L56.95518093263321,18.27046862806617L56.95518093263318,10.22884919269743zM56.95518093263321,18.27046862806617L65.37275895556523,18.270468628066165L65.3727589555652,10.228849192697433zM-91.51828290114538,-166.24084062933406L-91.51828290114541,-158.19922119396531L-83.10070487821339,-166.24084062933406zM-83.10070487821339,-166.24084062933406L-83.10070487821338,-158.19922119396531L-74.68312685528137,-166.24084062933403zM48.53760290970119,10.228849192697433L48.537602909701164,18.270468628066165L56.95518093263318,10.22884919269743zM56.95518093263318,10.22884919269743L56.95518093263321,18.27046862806617L65.3727589555652,10.228849192697433zM-91.51828290114538,-166.24084062933406L-83.10070487821339,-166.24084062933406L-83.10070487821339,-174.28246006470278zM-83.10070487821339,-166.24084062933406L-74.68312685528137,-166.24084062933403L-74.68312685528137,-174.28246006470278zM48.53760290970119,10.228849192697433L56.95518093263318,10.22884919269743L56.95518093263318,2.187229757328695zM56.95518093263318,10.22884919269743L65.3727589555652,10.228849192697433L65.37275895556523,2.187229757328695zM-91.51828290114541,-174.28246006470278L-91.51828290114538,-166.24084062933406L-83.10070487821339,-174.28246006470278zM-83.10070487821339,-174.28246006470278L-83.10070487821339,-166.24084062933406L-74.68312685528137,-174.28246006470278zM48.537602909701164,2.1872297573286974L48.53760290970119,10.228849192697433L56.95518093263318,2.187229757328695zM56.95518093263318,2.187229757328695L56.95518093263318,10.22884919269743L65.37275895556523,2.187229757328695zM329.8203726767422,114.22056694519675L338.23795069967423,114.22056694519675L338.23795069967423,106.17894750982802zM338.23795069967423,114.22056694519675L346.6555287226063,114.22056694519677L346.6555287226062,106.17894750982802zM329.8203726767422,106.17894750982802L329.8203726767422,114.22056694519675L338.23795069967423,106.17894750982802zM338.23795069967423,106.17894750982802L338.23795069967423,114.22056694519675L346.6555287226062,106.17894750982802zM328.8427923093541,225.69304063408498L337.26037033228613,225.69304063408495L337.26037033228613,217.65142119871624zM337.26037033228613,225.69304063408495L345.67794835521823,225.69304063408495L345.6779483552182,217.65142119871624zM329.8203726767422,106.17894750982802L338.23795069967423,106.17894750982802L338.2379506996741,98.13732807445928zM338.23795069967423,106.17894750982802L346.6555287226062,106.17894750982802L346.6555287226062,98.13732807445928zM328.84279230935414,217.65142119871624L328.8427923093541,225.69304063408498L337.26037033228613,217.65142119871624zM337.26037033228613,217.65142119871624L337.26037033228613,225.69304063408495L345.6779483552182,217.65142119871624zM329.8203726767422,98.13732807445928L329.8203726767422,106.17894750982802L338.2379506996741,98.13732807445928zM338.2379506996741,98.13732807445928L338.23795069967423,106.17894750982802L346.6555287226062,98.13732807445928zM47.72351328520447,-17.937796217233696L56.14109130813652,-17.9377962172337L56.14109130813649,-25.97941565260243zM56.14109130813652,-17.9377962172337L64.55866933106854,-17.937796217233704L64.55866933106851,-25.979415652602437zM328.84279230935414,217.65142119871624L337.26037033228613,217.65142119871624L337.2603703322861,209.60980176334752zM337.26037033228613,217.65142119871624L345.6779483552182,217.65142119871624L345.6779483552182,209.60980176334755zM47.7235132852045,-25.97941565260243L47.72351328520447,-17.937796217233696L56.14109130813649,-25.97941565260243zM56.14109130813649,-25.97941565260243L56.14109130813652,-17.9377962172337L64.55866933106851,-25.979415652602437zM328.84279230935414,209.60980176334755L328.84279230935414,217.65142119871624L337.2603703322861,209.60980176334752zM337.2603703322861,209.60980176334752L337.26037033228613,217.65142119871624L345.6779483552182,209.60980176334755zM47.7235132852045,-25.97941565260243L56.14109130813649,-25.97941565260243L56.14109130813649,-34.02103508797117zM56.14109130813649,-25.97941565260243L64.55866933106851,-25.979415652602437L64.55866933106854,-34.02103508797116zM47.72351328520447,-34.02103508797117L47.7235132852045,-25.97941565260243L56.14109130813649,-34.02103508797117zM56.14109130813649,-34.02103508797117L56.14109130813649,-25.97941565260243L64.55866933106854,-34.02103508797116zM187.2796266345557,94.65675597220306L195.69720465748773,94.65675597220306L195.69720465748767,86.61513653683434zM195.69720465748773,94.65675597220306L204.11478268041972,94.65675597220306L204.11478268041972,86.61513653683431zM187.2796266345557,86.61513653683431L187.2796266345557,94.65675597220306L195.69720465748767,86.61513653683434zM195.69720465748767,86.61513653683434L195.69720465748773,94.65675597220306L204.11478268041972,86.61513653683431zM187.2796266345557,86.61513653683431L195.69720465748767,86.61513653683434L195.69720465748773,78.5735171014656zM195.69720465748767,86.61513653683434L204.11478268041972,86.61513653683431L204.11478268041972,78.5735171014656zM187.27962663455577,78.57351710146558L187.2796266345557,86.61513653683431L195.69720465748773,78.5735171014656zM195.69720465748773,78.5735171014656L195.69720465748767,86.61513653683434L204.11478268041972,78.5735171014656zM184.625191281892,93.69417354850351L193.04276930482396,93.69417354850351L193.04276930482396,85.65255411313478zM193.04276930482396,93.69417354850351L201.46034732775595,93.69417354850353L201.46034732775595,85.65255411313478zM184.625191281892,85.65255411313478L184.625191281892,93.69417354850351L193.04276930482396,85.65255411313478zM193.04276930482396,85.65255411313478L193.04276930482396,93.69417354850351L201.46034732775595,85.65255411313478zM184.625191281892,85.65255411313478L193.04276930482396,85.65255411313478L193.04276930482402,77.61093467776604zM193.04276930482396,85.65255411313478L201.46034732775595,85.65255411313478L201.460347327756,77.61093467776604zM184.62519128189206,77.61093467776604L184.625191281892,85.65255411313478L193.04276930482402,77.61093467776604zM193.04276930482402,77.61093467776604L193.04276930482396,85.65255411313478L201.460347327756,77.61093467776604zM325.5804510990419,-12.481153609443812L333.99802912197396,-12.481153609443817L333.99802912197396,-20.522773044812553zM333.99802912197396,-12.481153609443817L342.415607144906,-12.481153609443817L342.41560714490595,-20.522773044812553zM325.58045109904197,-20.52277304481256L325.5804510990419,-12.481153609443812L333.99802912197396,-20.522773044812553zM333.99802912197396,-20.522773044812553L333.99802912197396,-12.481153609443817L342.41560714490595,-20.522773044812553zM184.500312722161,-71.43058133061069L192.91789074509296,-71.43058133061069L192.91789074509296,-79.47220076597944zM192.91789074509296,-71.43058133061069L201.33546876802504,-71.43058133061069L201.33546876802498,-79.47220076597944zM325.58045109904197,-20.52277304481256L333.99802912197396,-20.522773044812553L333.9980291219739,-28.564392480181297zM333.99802912197396,-20.522773044812553L342.41560714490595,-20.522773044812553L342.41560714490595,-28.564392480181297zM184.500312722161,-79.47220076597944L184.500312722161,-71.43058133061069L192.91789074509296,-79.47220076597944zM192.91789074509296,-79.47220076597944L192.91789074509296,-71.43058133061069L201.33546876802498,-79.47220076597944zM325.5804510990419,-28.56439248018129L325.58045109904197,-20.52277304481256L333.9980291219739,-28.564392480181297zM333.9980291219739,-28.564392480181297L333.99802912197396,-20.522773044812553L342.41560714490595,-28.564392480181297zM184.500312722161,-79.47220076597944L192.91789074509296,-79.47220076597944L192.91789074509302,-87.51382020134818zM192.91789074509296,-79.47220076597944L201.33546876802498,-79.47220076597944L201.33546876802504,-87.51382020134818zM184.50031272216106,-87.51382020134818L184.500312722161,-79.47220076597944L192.91789074509302,-87.51382020134818zM192.91789074509302,-87.51382020134818L192.91789074509296,-79.47220076597944L201.33546876802504,-87.51382020134818zM40.58199413372257,50.383043669447666L48.999572156654644,50.38304366944767L48.99957215665459,42.341424234078936zM48.999572156654644,50.38304366944767L57.41715017958664,50.38304366944767L57.41715017958664,42.34142423407894zM40.581994133722596,42.341424234078936L40.58199413372257,50.383043669447666L48.99957215665459,42.341424234078936zM48.99957215665459,42.341424234078936L48.999572156654644,50.38304366944767L57.41715017958664,42.34142423407894zM40.581994133722596,42.341424234078936L48.99957215665459,42.341424234078936L48.99957215665459,34.2998047987102zM48.99957215665459,42.341424234078936L57.41715017958664,42.34142423407894L57.41715017958667,34.2998047987102zM40.581994133722596,34.2998047987102L40.581994133722596,42.341424234078936L48.99957215665459,34.2998047987102zM48.99957215665459,34.2998047987102L48.99957215665459,42.341424234078936L57.41715017958667,34.2998047987102z" style="fill:rgb(291,0,0)"/></svg>