<svg xmlns="http://www.w3.org/2000/svg" viewBox="-506 -325 1012 650" width="1012" height="650" style="background-color: rgb(255, 255, 255);"><rect id="background" height="650" width="1012" y="-325" x="-506" stroke-width="0" stroke="#000000" fill="#ffffff"/><text x="-203.52149438113221" y="224.57535049326424" z="-0.9886058938302751" font-family="Verdana" font-size="12" fill="rgb(0,0,0)">Axis 2 (10.91 %)</text><path d="M206.7992666093919,260.0099643545938L174.1892985200555,223.7817576072121M174.1892985200555,-262.49971202610595L174.1892985200555,223.7817576072121M-203.52149438113221,224.57535049326424L174.1892985200555,223.7817576072121" style="fill:none;stroke:rgb(0,0,0);stroke-width:3;stroke-linecap:round"/><text x="174.1892985200555" y="-262.49971202610595" z="-0.9886347618871009" font-family="Verdana" font-size="12" fill="rgb(0,0,0)">Axis 1 (12.19 %)</text><path d="M117.5303667647787,170.1907941387865L125.94794478771077,170.1907941387865L125.94794478771077,162.1491747034178zM125.94794478771077,170.1907941387865L134.36552281064277,170.1907941387865L134.36552281064277,162.1491747034178zM117.53036676477872,162.1491747034178L117.5303667647787,170.1907941387865L125.94794478771077,162.1491747034178zM125.94794478771077,162.1491747034178L125.94794478771077,170.1907941387865L134.36552281064277,162.1491747034178zM109.70586796612878,127.73983747262699L118.1234459890608,127.739837472627L118.12344598906081,119.69821803725827zM118.1234459890608,127.739837472627L126.54102401199283,127.73983747262699L126.54102401199283,119.69821803725826zM117.53036676477872,162.1491747034178L125.94794478771077,162.1491747034178L125.94794478771077,154.10755526804905zM125.94794478771077,162.1491747034178L134.36552281064277,162.1491747034178L134.36552281064283,154.10755526804905zM69.25210904995335,150.4662821556339L77.66968707288538,150.4662821556339L77.66968707288537,142.4246627202652zM77.66968707288538,150.4662821556339L86.08726509581739,150.4662821556339L86.08726509581739,142.4246627202652zM109.70586796612879,119.69821803725827L109.70586796612878,127.73983747262699L118.12344598906081,119.69821803725827zM118.12344598906081,119.69821803725827L118.1234459890608,127.739837472627L126.54102401199283,119.69821803725826zM117.53036676477873,154.10755526804905L117.53036676477872,162.1491747034178L125.94794478771077,154.10755526804905zM125.94794478771077,154.10755526804905L125.94794478771077,162.1491747034178L134.36552281064283,154.10755526804905zM69.25210904995335,142.4246627202652L69.25210904995335,150.4662821556339L77.66968707288537,142.4246627202652zM77.66968707288537,142.4246627202652L77.66968707288538,150.4662821556339L86.08726509581739,142.4246627202652zM109.70586796612879,119.69821803725827L118.12344598906081,119.69821803725827L118.12344598906083,111.65659860188956zM118.12344598906081,119.69821803725827L126.54102401199283,119.69821803725826L126.54102401199283,111.65659860188956zM69.25210904995335,142.4246627202652L77.66968707288537,142.4246627202652L77.66968707288537,134.38304328489647zM77.66968707288537,142.4246627202652L86.08726509581739,142.4246627202652L86.08726509581739,134.38304328489647zM109.70586796612879,111.65659860188953L109.70586796612879,119.69821803725827L118.12344598906083,111.65659860188956zM118.12344598906083,111.65659860188956L118.12344598906081,119.69821803725827L126.54102401199283,111.65659860188956zM-77.70641049955798,218.46044585014687L-69.28883247662594,218.46044585014687L-69.28883247662594,210.4188264147781zM-69.28883247662594,218.46044585014687L-60.87125445369392,218.46044585014687L-60.871254453693915,210.4188264147781zM69.25210904995335,134.38304328489647L69.25210904995335,142.4246627202652L77.66968707288537,134.38304328489647zM77.66968707288537,134.38304328489647L77.66968707288537,142.4246627202652L86.08726509581739,134.38304328489647zM-77.70641049955798,210.4188264147781L-77.70641049955798,218.46044585014687L-69.28883247662594,210.4188264147781zM-69.28883247662594,210.4188264147781L-69.28883247662594,218.46044585014687L-60.871254453693915,210.4188264147781zM-77.70641049955798,210.4188264147781L-69.28883247662594,210.4188264147781L-69.28883247662594,202.37720697940938zM-69.28883247662594,210.4188264147781L-60.871254453693915,210.4188264147781L-60.87125445369392,202.37720697940938zM-77.70641049955796,202.37720697940935L-77.70641049955798,210.4188264147781L-69.28883247662594,202.37720697940938zM-69.28883247662594,202.37720697940938L-69.28883247662594,210.4188264147781L-60.87125445369392,202.37720697940938z" style="fill:rgb(0,0,291)"/><path d="M-78.64261600439657,121.95947261987122L-70.22503798146455,121.95947261987124L-70.22503798146454,113.91785318450252zM-70.22503798146455,121.95947261987124L-61.80745995853253,121.95947261987122L-61.80745995853252,113.91785318450252zM-78.64261600439659,113.91785318450252L-78.64261600439657,121.95947261987122L-70.22503798146454,113.91785318450252zM-70.22503798146454,113.91785318450252L-70.22503798146455,121.95947261987124L-61.80745995853252,113.91785318450252zM-87.5423343834914,110.59149454334376L-79.12475636055936,110.59149454334376L-79.12475636055936,102.54987510797504zM-79.12475636055936,110.59149454334376L-70.70717833762735,110.59149454334376L-70.70717833762734,102.54987510797504zM-87.5423343834914,102.54987510797504L-87.5423343834914,110.59149454334376L-79.12475636055936,102.54987510797504zM-79.12475636055936,102.54987510797504L-79.12475636055936,110.59149454334376L-70.70717833762734,102.54987510797504zM-78.64261600439659,113.91785318450252L-70.22503798146454,113.91785318450252L-70.22503798146454,105.87623374913379zM-70.22503798146454,113.91785318450252L-61.80745995853252,113.91785318450252L-61.807459958532526,105.87623374913379zM-78.64261600439657,105.87623374913377L-78.64261600439659,113.91785318450252L-70.22503798146454,105.87623374913379zM-70.22503798146454,105.87623374913379L-70.22503798146454,113.91785318450252L-61.807459958532526,105.87623374913379zM-87.5423343834914,102.54987510797504L-79.12475636055936,102.54987510797504L-79.12475636055937,94.5082556726063zM-79.12475636055936,102.54987510797504L-70.70717833762734,102.54987510797504L-70.70717833762735,94.5082556726063zM-87.54233438349138,94.5082556726063L-87.5423343834914,102.54987510797504L-79.12475636055937,94.5082556726063zM-79.12475636055937,94.5082556726063L-79.12475636055936,102.54987510797504L-70.70717833762735,94.5082556726063zM-40.35128115419065,-32.79425612875754L-31.933703131258625,-32.79425612875753L-31.933703131258625,-40.83587556412626zM-31.933703131258625,-32.79425612875753L-23.516125108326612,-32.79425612875754L-23.51612510832661,-40.83587556412626zM-15.059587389633602,-57.03611628235393L-6.64200936670158,-57.03611628235393L-6.64200936670158,-65.07773571772266zM-6.64200936670158,-57.03611628235393L1.775568656230438,-57.03611628235393L1.7755686562304416,-65.07773571772266zM-40.35128115419065,-40.83587556412626L-40.35128115419065,-32.79425612875754L-31.933703131258625,-40.83587556412626zM-31.933703131258625,-40.83587556412626L-31.933703131258625,-32.79425612875753L-23.51612510832661,-40.83587556412626zM-15.0595873896336,-65.07773571772266L-15.059587389633602,-57.03611628235393L-6.64200936670158,-65.07773571772266zM-6.64200936670158,-65.07773571772266L-6.64200936670158,-57.03611628235393L1.7755686562304416,-65.07773571772266zM-40.35128115419065,-40.83587556412626L-31.933703131258625,-40.83587556412626L-31.933703131258625,-48.877494999495006zM-31.933703131258625,-40.83587556412626L-23.51612510832661,-40.83587556412626L-23.51612510832661,-48.877494999495zM-15.0595873896336,-65.07773571772266L-6.64200936670158,-65.07773571772266L-6.642009366701582,-73.11935515309139zM-6.64200936670158,-65.07773571772266L1.7755686562304416,-65.07773571772266L1.7755686562304398,-73.11935515309139zM-40.35128115419065,-48.877494999495L-40.35128115419065,-40.83587556412626L-31.933703131258625,-48.877494999495006zM-31.933703131258625,-48.877494999495006L-31.933703131258625,-40.83587556412626L-23.51612510832661,-48.877494999495zM-15.0595873896336,-73.11935515309139L-15.0595873896336,-65.07773571772266L-6.642009366701582,-73.11935515309139zM-6.642009366701582,-73.11935515309139L-6.64200936670158,-65.07773571772266L1.7755686562304398,-73.11935515309139z" style="fill:rgb(291,0,0)"/><path d="M160.06730797154862,63.42878310801319L168.48488599448063,63.42878310801321L168.4848859944807,55.387163672644476zM168.48488599448063,63.42878310801321L176.90246401741268,63.42878310801321L176.90246401741268,55.387163672644476zM160.06730797154862,55.387163672644476L160.06730797154862,63.42878310801319L168.4848859944807,55.387163672644476zM168.4848859944807,55.387163672644476L168.48488599448063,63.42878310801321L176.90246401741268,55.387163672644476zM104.64465914806262,62.2379091185347L113.06223717099462,62.23790911853471L113.06223717099462,54.196289683165986zM113.06223717099462,62.23790911853471L121.47981519392664,62.23790911853471L121.47981519392664,54.196289683165986zM160.06730797154862,55.387163672644476L168.4848859944807,55.387163672644476L168.4848859944807,47.345544237275746zM168.4848859944807,55.387163672644476L176.90246401741268,55.387163672644476L176.90246401741268,47.345544237275746zM104.6446591480626,54.196289683165986L104.64465914806262,62.2379091185347L113.06223717099462,54.196289683165986zM113.06223717099462,54.196289683165986L113.06223717099462,62.23790911853471L121.47981519392664,54.196289683165986zM160.06730797154862,47.34554423727573L160.06730797154862,55.387163672644476L168.4848859944807,47.345544237275746zM168.4848859944807,47.345544237275746L168.4848859944807,55.387163672644476L176.90246401741268,47.345544237275746zM104.6446591480626,54.196289683165986L113.06223717099462,54.196289683165986L113.06223717099462,46.15467024779725zM113.06223717099462,54.196289683165986L121.47981519392664,54.196289683165986L121.47981519392667,46.15467024779725zM141.60439440052758,-27.215686981385776L150.02197242345963,-27.215686981385776L150.02197242345963,-35.2573064167545zM150.02197242345963,-27.215686981385776L158.43955044639162,-27.215686981385776L158.43955044639162,-35.2573064167545zM104.64465914806262,46.15467024779724L104.6446591480626,54.196289683165986L113.06223717099462,46.15467024779725zM113.06223717099462,46.15467024779725L113.06223717099462,54.196289683165986L121.47981519392667,46.15467024779725zM141.60439440052758,-35.257306416754496L141.60439440052758,-27.215686981385776L150.02197242345963,-35.2573064167545zM150.02197242345963,-35.2573064167545L150.02197242345963,-27.215686981385776L158.43955044639162,-35.2573064167545zM141.60439440052758,-35.257306416754496L150.02197242345963,-35.2573064167545L150.02197242345963,-43.29892585212324zM150.02197242345963,-35.2573064167545L158.43955044639162,-35.2573064167545L158.43955044639168,-43.29892585212324zM141.60439440052758,-43.29892585212324L141.60439440052758,-35.257306416754496L150.02197242345963,-43.29892585212324zM150.02197242345963,-43.29892585212324L150.02197242345963,-35.2573064167545L158.43955044639168,-43.29892585212324z" style="fill:rgb(0,0,291)"/><path d="M-94.98207867514026,46.861875633955215L-86.56450065220825,46.861875633955215L-86.56450065220827,38.82025619858648zM-86.56450065220825,46.861875633955215L-78.14692262927625,46.861875633955215L-78.14692262927623,38.82025619858648zM-94.98207867514026,38.82025619858648L-94.98207867514026,46.861875633955215L-86.56450065220827,38.82025619858648zM-86.56450065220827,38.82025619858648L-86.56450065220825,46.861875633955215L-78.14692262927623,38.82025619858648zM-94.98207867514026,38.82025619858648L-86.56450065220827,38.82025619858648L-86.56450065220827,30.778636763217744zM-86.56450065220827,38.82025619858648L-78.14692262927623,38.82025619858648L-78.14692262927623,30.778636763217744zM-103.5250540356468,2.5976973461879926L-95.10747601271477,2.5976973461879926L-95.10747601271477,-5.443922089180739zM-95.10747601271477,2.5976973461879926L-86.68989798978278,2.5976973461879913L-86.68989798978276,-5.443922089180739zM-94.98207867514024,30.778636763217744L-94.98207867514026,38.82025619858648L-86.56450065220827,30.778636763217744zM-86.56450065220827,30.778636763217744L-86.56450065220827,38.82025619858648L-78.14692262927623,30.778636763217744zM-103.5250540356468,-5.443922089180739L-103.5250540356468,2.5976973461879926L-95.10747601271477,-5.443922089180739zM-95.10747601271477,-5.443922089180739L-95.10747601271477,2.5976973461879926L-86.68989798978276,-5.443922089180739zM-19.546855593126523,-113.86750293833902L-11.129277570194501,-113.86750293833902L-11.1292775701945,-121.90912237370772zM-11.129277570194501,-113.86750293833902L-2.7116995472624823,-113.86750293833902L-2.7116995472624805,-121.90912237370775zM-103.5250540356468,-5.443922089180739L-95.10747601271477,-5.443922089180739L-95.10747601271478,-13.485541524549474zM-95.10747601271477,-5.443922089180739L-86.68989798978276,-5.443922089180739L-86.68989798978276,-13.485541524549474zM-19.546855593126523,-121.90912237370772L-19.546855593126523,-113.86750293833902L-11.1292775701945,-121.90912237370772zM-11.1292775701945,-121.90912237370772L-11.129277570194501,-113.86750293833902L-2.7116995472624805,-121.90912237370775zM-145.22860965501923,-24.6890144599074L-136.81103163208718,-24.6890144599074L-136.81103163208718,-32.730633895276135zM-136.81103163208718,-24.6890144599074L-128.39345360915513,-24.6890144599074L-128.3934536091551,-32.730633895276135zM-103.52505403564679,-13.485541524549477L-103.5250540356468,-5.443922089180739L-95.10747601271478,-13.485541524549474zM-95.10747601271478,-13.485541524549474L-95.10747601271477,-5.443922089180739L-86.68989798978276,-13.485541524549474zM-145.22860965501917,-32.730633895276135L-145.22860965501923,-24.6890144599074L-136.81103163208718,-32.730633895276135zM-136.81103163208718,-32.730633895276135L-136.81103163208718,-24.6890144599074L-128.3934536091551,-32.730633895276135zM-19.546855593126523,-121.90912237370772L-11.1292775701945,-121.90912237370772L-11.1292775701945,-129.95074180907648zM-11.1292775701945,-121.90912237370772L-2.7116995472624805,-121.90912237370775L-2.711699547262479,-129.95074180907648zM-19.54685559312652,-129.95074180907648L-19.546855593126523,-121.90912237370772L-11.1292775701945,-129.95074180907648zM-11.1292775701945,-129.95074180907648L-11.1292775701945,-121.90912237370772L-2.711699547262479,-129.95074180907648zM-145.22860965501917,-32.730633895276135L-136.81103163208718,-32.730633895276135L-136.81103163208718,-40.77225333064488zM-136.81103163208718,-32.730633895276135L-128.3934536091551,-32.730633895276135L-128.3934536091551,-40.772253330644865zM-145.22860965501917,-40.772253330644865L-145.22860965501917,-32.730633895276135L-136.81103163208718,-40.77225333064488zM-136.81103163208718,-40.77225333064488L-136.81103163208718,-32.730633895276135L-128.3934536091551,-40.772253330644865z" style="fill:rgb(291,0,0)"/><path d="M-114.44491930438646,-143.77913245408294L-106.02734128145444,-143.7791324540829L-106.02734128145445,-151.82075188945166zM-106.02734128145444,-143.7791324540829L-97.60976325852243,-143.77913245408294L-97.60976325852242,-151.82075188945166zM-114.44491930438646,-151.82075188945169L-114.44491930438646,-143.77913245408294L-106.02734128145445,-151.82075188945166zM-106.02734128145445,-151.82075188945166L-106.02734128145444,-143.7791324540829L-97.60976325852242,-151.82075188945166zM-114.44491930438646,-151.82075188945169L-106.02734128145445,-151.82075188945166L-106.02734128145445,-159.86237132482043zM-106.02734128145445,-151.82075188945166L-97.60976325852242,-151.82075188945166L-97.60976325852242,-159.86237132482043zM-114.44491930438645,-159.86237132482043L-114.44491930438646,-151.82075188945169L-106.02734128145445,-159.86237132482043zM-106.02734128145445,-159.86237132482043L-106.02734128145445,-151.82075188945166L-97.60976325852242,-159.86237132482043zM161.88411713093015,-69.50807703195947L170.3016951538622,-69.50807703195947L170.3016951538622,-77.54969646732822zM170.3016951538622,-69.50807703195947L178.7192731767942,-69.50807703195947L178.71927317679425,-77.54969646732822zM161.88411713093015,-77.5496964673282L161.88411713093015,-69.50807703195947L170.3016951538622,-77.54969646732822zM170.3016951538622,-77.54969646732822L170.3016951538622,-69.50807703195947L178.71927317679425,-77.54969646732822zM161.88411713093015,-77.5496964673282L170.3016951538622,-77.54969646732822L170.3016951538622,-85.59131590269692zM170.3016951538622,-77.54969646732822L178.71927317679425,-77.54969646732822L178.71927317679425,-85.59131590269693zM161.88411713093015,-85.59131590269693L161.88411713093015,-77.5496964673282L170.3016951538622,-85.59131590269692zM170.3016951538622,-85.59131590269692L170.3016951538622,-77.54969646732822L178.71927317679425,-85.59131590269693z" style="fill:rgb(0,0,291)"/><path d="M-119.76297121049356,78.44764380018621L-111.34539318756154,78.44764380018623L-111.34539318756154,70.4060243648175zM-111.34539318756154,78.44764380018623L-102.92781516462954,78.44764380018621L-102.92781516462954,70.40602436481748zM-119.76297121049357,70.40602436481748L-119.76297121049356,78.44764380018621L-111.34539318756154,70.4060243648175zM-111.34539318756154,70.4060243648175L-111.34539318756154,78.44764380018623L-102.92781516462954,70.40602436481748zM-3.1242183185260637,-58.14101356480826L5.293359704405959,-58.141013564808254L5.293359704405957,-66.18263300017699zM5.293359704405959,-58.141013564808254L13.710937727337974,-58.14101356480826L13.710937727337978,-66.182633000177zM-3.124218318526063,-66.182633000177L-3.1242183185260637,-58.14101356480826L5.293359704405957,-66.18263300017699zM5.293359704405957,-66.18263300017699L5.293359704405959,-58.141013564808254L13.710937727337978,-66.182633000177zM-119.76297121049357,70.40602436481748L-111.34539318756154,70.4060243648175L-111.34539318756154,62.36440492944876zM-111.34539318756154,70.4060243648175L-102.92781516462954,70.40602436481748L-102.92781516462954,62.36440492944876zM-119.76297121049356,62.36440492944876L-119.76297121049357,70.40602436481748L-111.34539318756154,62.36440492944876zM-111.34539318756154,62.36440492944876L-111.34539318756154,70.4060243648175L-102.92781516462954,62.36440492944876z" style="fill:rgb(291,0,0)"/><path d="M54.59343837712975,-152.80318663881096L63.01101640006177,-152.80318663881096L63.01101640006177,-160.84480607417967zM63.01101640006177,-152.80318663881096L71.42859442299378,-152.80318663881093L71.4285944229938,-160.84480607417967z" style="fill:rgb(0,0,291)"/><path d="M-3.124218318526063,-66.182633000177L5.293359704405957,-66.18263300017699L5.293359704405957,-74.22425243554572zM5.293359704405957,-66.18263300017699L13.710937727337978,-66.182633000177L13.710937727337974,-74.22425243554574z" style="fill:rgb(291,0,0)"/><path d="M54.59343837712974,-160.84480607417967L54.59343837712975,-152.80318663881096L63.01101640006177,-160.84480607417967zM63.01101640006177,-160.84480607417967L63.01101640006177,-152.80318663881096L71.4285944229938,-160.84480607417967zM88.83530503972912,-202.10635070830273L97.25288306266114,-202.10635070830273L97.25288306266113,-210.14797014367147zM97.25288306266114,-202.10635070830273L105.67046108559315,-202.10635070830273L105.67046108559316,-210.14797014367147z" style="fill:rgb(0,0,291)"/><path d="M-3.1242183185260615,-74.22425243554572L-3.124218318526063,-66.182633000177L5.293359704405957,-74.22425243554572zM5.293359704405957,-74.22425243554572L5.293359704405957,-66.18263300017699L13.710937727337974,-74.22425243554574z" style="fill:rgb(291,0,0)"/><path d="M88.83530503972912,-210.1479701436715L88.83530503972912,-202.10635070830273L97.25288306266113,-210.14797014367147zM97.25288306266113,-210.14797014367147L97.25288306266114,-202.10635070830273L105.67046108559316,-210.14797014367147zM54.59343837712974,-160.84480607417967L63.01101640006177,-160.84480607417967L63.01101640006177,-168.88642550954845zM63.01101640006177,-160.84480607417967L71.4285944229938,-160.84480607417967L71.42859442299378,-168.88642550954845zM54.59343837712975,-168.88642550954845L54.59343837712974,-160.84480607417967L63.01101640006177,-168.88642550954845zM63.01101640006177,-168.88642550954845L63.01101640006177,-160.84480607417967L71.42859442299378,-168.88642550954845zM88.83530503972912,-210.1479701436715L97.25288306266113,-210.14797014367147L97.25288306266113,-218.18958957904022zM97.25288306266113,-210.14797014367147L105.67046108559316,-210.14797014367147L105.67046108559315,-218.18958957904022zM88.83530503972912,-218.18958957904022L88.83530503972912,-210.1479701436715L97.25288306266113,-218.18958957904022zM97.25288306266113,-218.18958957904022L97.25288306266113,-210.14797014367147L105.67046108559315,-218.18958957904022z" style="fill:rgb(0,0,291)"/><path d="M-125.56884627883197,-167.52980762669634L-117.15126825589994,-167.52980762669634L-117.15126825589994,-175.571427062065zM-117.15126825589994,-167.52980762669634L-108.73369023296793,-167.52980762669634L-108.73369023296793,-175.571427062065zM-125.56884627883197,-175.57142706206506L-125.56884627883197,-167.52980762669634L-117.15126825589994,-175.571427062065zM-117.15126825589994,-175.571427062065L-117.15126825589994,-167.52980762669634L-108.73369023296793,-175.571427062065zM-125.56884627883197,-175.57142706206506L-117.15126825589994,-175.571427062065L-117.15126825589995,-183.61304649743374zM-117.15126825589994,-175.571427062065L-108.73369023296793,-175.571427062065L-108.73369023296793,-183.61304649743374zM-125.56884627883196,-183.61304649743374L-125.56884627883197,-175.57142706206506L-117.15126825589995,-183.61304649743374zM-117.15126825589995,-183.61304649743374L-117.15126825589994,-175.571427062065L-108.73369023296793,-183.61304649743374z" style="fill:rgb(291,0,0)"/><path d="M75.74842097019969,31.73399790529991L84.16599899313172,31.73399790529991L84.16599899313171,23.692378469931178zM84.16599899313172,31.73399790529991L92.58357701606374,31.73399790529991L92.58357701606374,23.692378469931178zM75.74842097019969,23.692378469931178L75.74842097019969,31.73399790529991L84.16599899313171,23.692378469931178zM84.16599899313171,23.692378469931178L84.16599899313172,31.73399790529991L92.58357701606374,23.692378469931178zM75.74842097019969,23.692378469931178L84.16599899313171,23.692378469931178L84.16599899313171,15.650759034562444zM84.16599899313171,23.692378469931178L92.58357701606374,23.692378469931178L92.58357701606374,15.650759034562444zM75.7484209701997,15.650759034562444L75.74842097019969,23.692378469931178L84.16599899313171,15.650759034562444zM84.16599899313171,15.650759034562444L84.16599899313171,23.692378469931178L92.58357701606374,15.650759034562444z" style="fill:rgb(0,0,291)"/><path d="M-10.812494206953328,35.621717434679354L-2.3949161840213073,35.621717434679354L-2.3949161840213073,27.58009799931062zM-2.3949161840213073,35.621717434679354L6.022661838910712,35.62171743467935L6.022661838910714,27.580097999310624z" style="fill:rgb(291,0,0)"/><path d="M129.58168512326893,-103.42722907346152L137.99926314620097,-103.42722907346152L137.99926314620097,-111.46884850883023zM137.99926314620097,-103.42722907346152L146.41684116913297,-103.4272290734615L146.41684116913302,-111.46884850883023z" style="fill:rgb(0,0,291)"/><path d="M-10.812494206953328,27.58009799931062L-10.812494206953328,35.621717434679354L-2.3949161840213073,27.58009799931062zM-2.3949161840213073,27.58009799931062L-2.3949161840213073,35.621717434679354L6.022661838910714,27.580097999310624z" style="fill:rgb(291,0,0)"/><path d="M129.58168512326893,-111.46884850883023L129.58168512326893,-103.42722907346152L137.99926314620097,-111.46884850883023zM137.99926314620097,-111.46884850883023L137.99926314620097,-103.42722907346152L146.41684116913302,-111.46884850883023zM-100.42838424400884,84.72312642470996L-92.01080622107683,84.72312642470996L-92.01080622107683,76.68150698934123zM-92.01080622107683,84.72312642470996L-83.59322819814481,84.72312642470996L-83.59322819814481,76.68150698934123zM-100.42838424400884,76.68150698934123L-100.42838424400884,84.72312642470996L-92.01080622107683,76.68150698934123zM-92.01080622107683,76.68150698934123L-92.01080622107683,84.72312642470996L-83.59322819814481,76.68150698934123z" style="fill:rgb(0,0,291)"/><path d="M-10.812494206953328,27.58009799931062L-2.3949161840213073,27.58009799931062L-2.3949161840213073,19.538478563941887zM-2.3949161840213073,27.58009799931062L6.022661838910714,27.580097999310624L6.022661838910715,19.538478563941887z" style="fill:rgb(291,0,0)"/><path d="M129.58168512326893,-111.46884850883023L137.99926314620097,-111.46884850883023L137.99926314620097,-119.51046794419898zM137.99926314620097,-111.46884850883023L146.41684116913302,-111.46884850883023L146.41684116913297,-119.51046794419898z" style="fill:rgb(0,0,291)"/><path d="M-10.812494206953327,19.538478563941887L-10.812494206953328,27.58009799931062L-2.3949161840213073,19.538478563941887zM-2.3949161840213073,19.538478563941887L-2.3949161840213073,27.58009799931062L6.022661838910715,19.538478563941887z" style="fill:rgb(291,0,0)"/><path d="M129.58168512326898,-119.51046794419895L129.58168512326893,-111.46884850883023L137.99926314620097,-119.51046794419898zM137.99926314620097,-119.51046794419898L137.99926314620097,-111.46884850883023L146.41684116913297,-119.51046794419898zM-100.42838424400884,76.68150698934123L-92.01080622107683,76.68150698934123L-92.01080622107683,68.63988755397251zM-92.01080622107683,76.68150698934123L-83.59322819814481,76.68150698934123L-83.59322819814483,68.6398875539725zM-100.42838424400884,68.6398875539725L-100.42838424400884,76.68150698934123L-92.01080622107683,68.63988755397251zM-92.01080622107683,68.63988755397251L-92.01080622107683,76.68150698934123L-83.59322819814483,68.6398875539725z" style="fill:rgb(0,0,291)"/><path d="M-113.20950232420155,15.19266537172614L-104.79192430126952,15.19266537172614L-104.79192430126953,7.151045936357404zM-104.79192430126952,15.19266537172614L-96.3743462783375,15.19266537172614L-96.37434627833748,7.151045936357407zM-113.20950232420155,7.151045936357404L-113.20950232420155,15.19266537172614L-104.79192430126953,7.151045936357404zM-104.79192430126953,7.151045936357404L-104.79192430126952,15.19266537172614L-96.37434627833748,7.151045936357407z" style="fill:rgb(291,0,0)"/><path d="M114.16074521714972,-216.0580395001342L122.57832324008173,-216.0580395001342L122.57832324008173,-224.09965893550296zM122.57832324008173,-216.0580395001342L130.99590126301374,-216.0580395001342L130.9959012630138,-224.09965893550296z" style="fill:rgb(0,0,291)"/><path d="M-180.74279078121137,43.57054182008019L-172.32521275827932,43.57054182008019L-172.32521275827932,35.52892238471145zM-172.32521275827932,43.57054182008019L-163.90763473534733,43.570541820080194L-163.90763473534733,35.528922384711464zM-120.12011733671912,-21.418088965374952L-111.7025393137871,-21.418088965374952L-111.7025393137871,-29.459708400743686zM-111.7025393137871,-21.418088965374952L-103.28496129085508,-21.418088965374942L-103.28496129085507,-29.459708400743686z" style="fill:rgb(291,0,0)"/><path d="M114.16074521714971,-224.09965893550296L114.16074521714972,-216.0580395001342L122.57832324008173,-224.09965893550296zM122.57832324008173,-224.09965893550296L122.57832324008173,-216.0580395001342L130.9959012630138,-224.09965893550296z" style="fill:rgb(0,0,291)"/><path d="M-180.74279078121137,35.528922384711464L-180.74279078121137,43.57054182008019L-172.32521275827932,35.52892238471145zM-172.32521275827932,35.52892238471145L-172.32521275827932,43.57054182008019L-163.90763473534733,35.528922384711464zM-113.20950232420155,7.151045936357404L-104.79192430126953,7.151045936357404L-104.79192430126953,-0.8905734990113245zM-104.79192430126953,7.151045936357404L-96.37434627833748,7.151045936357407L-96.3743462783375,-0.8905734990113245zM-120.12011733671912,-29.459708400743686L-120.12011733671912,-21.418088965374952L-111.7025393137871,-29.459708400743686zM-111.7025393137871,-29.459708400743686L-111.7025393137871,-21.418088965374952L-103.28496129085507,-29.459708400743686zM-113.20950232420154,-0.8905734990113245L-113.20950232420155,7.151045936357404L-104.79192430126953,-0.8905734990113245zM-104.79192430126953,-0.8905734990113245L-104.79192430126953,7.151045936357404L-96.3743462783375,-0.8905734990113245z" style="fill:rgb(291,0,0)"/><path d="M114.16074521714971,-224.09965893550296L122.57832324008173,-224.09965893550296L122.57832324008173,-232.1412783708717zM122.57832324008173,-224.09965893550296L130.9959012630138,-224.09965893550296L130.9959012630138,-232.1412783708717z" style="fill:rgb(0,0,291)"/><path d="M-180.74279078121137,35.528922384711464L-172.32521275827932,35.52892238471145L-172.32521275827932,27.487302949342727zM-172.32521275827932,35.52892238471145L-163.90763473534733,35.528922384711464L-163.90763473534733,27.487302949342727zM-120.12011733671912,-29.459708400743686L-111.7025393137871,-29.459708400743686L-111.7025393137871,-37.50132783611242zM-111.7025393137871,-29.459708400743686L-103.28496129085507,-29.459708400743686L-103.2849612908551,-37.50132783611242z" style="fill:rgb(291,0,0)"/><path d="M114.16074521714972,-232.1412783708717L114.16074521714971,-224.09965893550296L122.57832324008173,-232.1412783708717zM122.57832324008173,-232.1412783708717L122.57832324008173,-224.09965893550296L130.9959012630138,-232.1412783708717z" style="fill:rgb(0,0,291)"/><path d="M-180.7427907812113,27.487302949342727L-180.74279078121137,35.528922384711464L-172.32521275827932,27.487302949342727zM-172.32521275827932,27.487302949342727L-172.32521275827932,35.52892238471145L-163.90763473534733,27.487302949342727zM-120.12011733671912,-37.50132783611242L-120.12011733671912,-29.459708400743686L-111.7025393137871,-37.50132783611242zM-111.7025393137871,-37.50132783611242L-111.7025393137871,-29.459708400743686L-103.2849612908551,-37.50132783611242z" style="fill:rgb(291,0,0)"/><path d="M99.0891861267246,183.46988971821656L107.50676414965662,183.46988971821656L107.50676414965662,175.42827028284788zM107.50676414965662,183.46988971821656L115.92434217258864,183.46988971821656L115.92434217258864,175.42827028284788zM99.08918612672458,175.42827028284788L99.0891861267246,183.46988971821656L107.50676414965662,175.42827028284788zM107.50676414965662,175.42827028284788L107.50676414965662,183.46988971821656L115.92434217258864,175.42827028284788zM99.08918612672458,175.42827028284788L107.50676414965662,175.42827028284788L107.50676414965662,167.38665084747913zM107.50676414965662,175.42827028284788L115.92434217258864,175.42827028284788L115.92434217258864,167.38665084747913zM125.37294005411339,98.25241689907922L133.79051807704536,98.25241689907922L133.79051807704542,90.21079746371048zM133.79051807704536,98.25241689907922L142.2080960999774,98.25241689907921L142.2080960999774,90.21079746371048zM99.0891861267246,167.38665084747913L99.08918612672458,175.42827028284788L107.50676414965662,167.38665084747913zM107.50676414965662,167.38665084747913L107.50676414965662,175.42827028284788L115.92434217258864,167.38665084747913zM125.37294005411339,90.21079746371048L125.37294005411339,98.25241689907922L133.79051807704542,90.21079746371048zM133.79051807704542,90.21079746371048L133.79051807704536,98.25241689907922L142.2080960999774,90.21079746371048zM125.37294005411339,90.21079746371048L133.79051807704542,90.21079746371048L133.79051807704542,82.16917802834173zM133.79051807704542,90.21079746371048L142.2080960999774,90.21079746371048L142.20809609997747,82.16917802834173zM125.37294005411339,82.16917802834173L125.37294005411339,90.21079746371048L133.79051807704542,82.16917802834173zM133.79051807704542,82.16917802834173L133.79051807704542,90.21079746371048L142.20809609997747,82.16917802834173zM-16.956931443121565,104.38508030299292L-8.539353420189547,104.38508030299295L-8.53935342018955,96.3434608676242zM-8.539353420189547,104.38508030299295L-0.12177539725752681,104.38508030299295L-0.12177539725752681,96.3434608676242z" style="fill:rgb(0,0,291)"/><path d="M-9.388950512336486,82.99809873123132L-0.9713724894044616,82.99809873123132L-0.9713724894044616,74.95647929586258zM-0.9713724894044616,82.99809873123132L7.446205533527556,82.99809873123132L7.446205533527558,74.95647929586258z" style="fill:rgb(291,0,0)"/><path d="M-16.956931443121565,96.34346086762422L-16.956931443121565,104.38508030299292L-8.53935342018955,96.3434608676242zM-8.53935342018955,96.3434608676242L-8.539353420189547,104.38508030299295L-0.12177539725752681,96.3434608676242zM42.03734716385472,23.786070951652178L50.45492518678674,23.786070951652178L50.454925186786745,15.744451516283446zM50.45492518678674,23.786070951652178L58.872503209718765,23.786070951652178L58.872503209718765,15.744451516283446z" style="fill:rgb(0,0,291)"/><path d="M-9.388950512336482,74.95647929586258L-9.388950512336486,82.99809873123132L-0.9713724894044616,74.95647929586258zM-0.9713724894044616,74.95647929586258L-0.9713724894044616,82.99809873123132L7.446205533527558,74.95647929586258z" style="fill:rgb(291,0,0)"/><path d="M42.03734716385473,15.744451516283448L42.03734716385472,23.786070951652178L50.454925186786745,15.744451516283446zM50.454925186786745,15.744451516283446L50.45492518678674,23.786070951652178L58.872503209718765,15.744451516283446zM-16.956931443121565,96.34346086762422L-8.53935342018955,96.3434608676242L-8.539353420189546,88.30184143225546zM-8.53935342018955,96.3434608676242L-0.12177539725752681,96.3434608676242L-0.12177539725752506,88.30184143225546z" style="fill:rgb(0,0,291)"/><path d="M-9.388950512336482,74.95647929586258L-0.9713724894044616,74.95647929586258L-0.9713724894044616,66.91485986049385zM-0.9713724894044616,74.95647929586258L7.446205533527558,74.95647929586258L7.446205533527558,66.91485986049383z" style="fill:rgb(291,0,0)"/><path d="M-16.956931443121565,88.30184143225546L-16.956931443121565,96.34346086762422L-8.539353420189546,88.30184143225546zM-8.539353420189546,88.30184143225546L-8.53935342018955,96.3434608676242L-0.12177539725752506,88.30184143225546zM42.03734716385473,15.744451516283448L50.454925186786745,15.744451516283446L50.454925186786745,7.702832080914714zM50.454925186786745,15.744451516283446L58.872503209718765,15.744451516283446L58.872503209718765,7.702832080914712z" style="fill:rgb(0,0,291)"/><path d="M-9.388950512336482,66.91485986049383L-9.388950512336482,74.95647929586258L-0.9713724894044616,66.91485986049385zM-0.9713724894044616,66.91485986049385L-0.9713724894044616,74.95647929586258L7.446205533527558,66.91485986049383zM-112.00322405499689,97.1607277186662L-103.58564603206487,97.1607277186662L-103.58564603206487,89.11910828329745zM-103.58564603206487,97.1607277186662L-95.16806800913287,97.1607277186662L-95.16806800913285,89.11910828329745z" style="fill:rgb(291,0,0)"/><path d="M42.037347163854726,7.702832080914711L42.03734716385473,15.744451516283448L50.454925186786745,7.702832080914714zM50.454925186786745,7.702832080914714L50.454925186786745,15.744451516283446L58.872503209718765,7.702832080914712z" style="fill:rgb(0,0,291)"/><path d="M-112.00322405499689,89.11910828329746L-112.00322405499689,97.1607277186662L-103.58564603206487,89.11910828329745zM-103.58564603206487,89.11910828329745L-103.58564603206487,97.1607277186662L-95.16806800913285,89.11910828329745zM-134.53610034514296,94.9460329211695L-126.1185223222109,94.9460329211695L-126.11852232221092,86.90441348580077zM-126.1185223222109,94.9460329211695L-117.70094429927887,94.94603292116952L-117.70094429927886,86.90441348580077zM-134.5361003451429,86.90441348580077L-134.53610034514296,94.9460329211695L-126.11852232221092,86.90441348580077zM-126.11852232221092,86.90441348580077L-126.1185223222109,94.9460329211695L-117.70094429927886,86.90441348580077zM-112.00322405499689,89.11910828329746L-103.58564603206487,89.11910828329745L-103.58564603206487,81.07748884792872zM-103.58564603206487,89.11910828329745L-95.16806800913285,89.11910828329745L-95.16806800913287,81.07748884792872zM-112.00322405499689,81.07748884792872L-112.00322405499689,89.11910828329746L-103.58564603206487,81.07748884792872zM-103.58564603206487,81.07748884792872L-103.58564603206487,89.11910828329745L-95.16806800913287,81.07748884792872zM-134.5361003451429,86.90441348580077L-126.11852232221092,86.90441348580077L-126.1185223222109,78.86279405043204zM-126.11852232221092,86.90441348580077L-117.70094429927886,86.90441348580077L-117.70094429927885,78.86279405043203zM-134.5361003451429,78.86279405043203L-134.5361003451429,86.90441348580077L-126.1185223222109,78.86279405043204zM-126.1185223222109,78.86279405043204L-126.11852232221092,86.90441348580077L-117.70094429927885,78.86279405043203zM-135.59616501572748,-70.32256810121123L-127.17858699279545,-70.32256810121123L-127.17858699279545,-78.36418753657998zM-127.17858699279545,-70.32256810121123L-118.76100896986341,-70.32256810121123L-118.76100896986343,-78.36418753657996zM-135.59616501572742,-78.36418753657996L-135.59616501572748,-70.32256810121123L-127.17858699279545,-78.36418753657998zM-127.17858699279545,-78.36418753657998L-127.17858699279545,-70.32256810121123L-118.76100896986343,-78.36418753657996zM-135.59616501572742,-78.36418753657996L-127.17858699279545,-78.36418753657998L-127.17858699279545,-86.4058069719487zM-127.17858699279545,-78.36418753657998L-118.76100896986343,-78.36418753657996L-118.76100896986341,-86.4058069719487zM-135.59616501572742,-86.4058069719487L-135.59616501572742,-78.36418753657996L-127.17858699279545,-86.4058069719487zM-127.17858699279545,-86.4058069719487L-127.17858699279545,-78.36418753657998L-118.76100896986341,-86.4058069719487z" style="fill:rgb(291,0,0)"/><path d="M148.92699086722362,136.9634522235587L157.3445688901556,136.9634522235587L157.3445688901556,128.92183278819zM157.3445688901556,136.9634522235587L165.7621469130877,136.9634522235587L165.7621469130877,128.92183278819zM148.92699086722362,128.92183278818996L148.92699086722362,136.9634522235587L157.3445688901556,128.92183278819zM157.3445688901556,128.92183278819L157.3445688901556,136.9634522235587L165.7621469130877,128.92183278819zM148.92699086722362,128.92183278818996L157.3445688901556,128.92183278819L157.34456889015567,120.88021335282126zM157.3445688901556,128.92183278819L165.7621469130877,128.92183278819L165.7621469130877,120.88021335282126zM138.79541733440558,82.11680567774033L147.21299535733763,82.11680567774033L147.21299535733763,74.07518624237159zM147.21299535733763,82.11680567774033L155.63057338026962,82.11680567774033L155.63057338026962,74.0751862423716zM148.92699086722362,120.88021335282126L148.92699086722362,128.92183278818996L157.34456889015567,120.88021335282126zM157.34456889015567,120.88021335282126L157.3445688901556,128.92183278819L165.7621469130877,120.88021335282126zM138.79541733440564,74.07518624237159L138.79541733440558,82.11680567774033L147.21299535733763,74.07518624237159zM147.21299535733763,74.07518624237159L147.21299535733763,82.11680567774033L155.63057338026962,74.0751862423716zM44.2102654346601,124.26301489825516L52.62784345759212,124.26301489825516L52.62784345759212,116.22139546288645zM52.62784345759212,124.26301489825516L61.04542148052414,124.26301489825516L61.04542148052414,116.22139546288645z" style="fill:rgb(0,0,291)"/><path d="M-86.8489364695216,235.13712950328718L-78.43135844658957,235.1371295032872L-78.43135844658957,227.0955100679185zM-78.43135844658957,235.1371295032872L-70.01378042365756,235.1371295032872L-70.01378042365756,227.0955100679185z" style="fill:rgb(291,0,0)"/><path d="M138.79541733440564,74.07518624237159L147.21299535733763,74.07518624237159L147.21299535733763,66.03356680700286zM147.21299535733763,74.07518624237159L155.63057338026962,74.0751862423716L155.63057338026968,66.03356680700287zM44.21026543466011,116.22139546288645L44.2102654346601,124.26301489825516L52.62784345759212,116.22139546288645zM52.62784345759212,116.22139546288645L52.62784345759212,124.26301489825516L61.04542148052414,116.22139546288645z" style="fill:rgb(0,0,291)"/><path d="M-86.84893646952162,227.0955100679185L-86.8489364695216,235.13712950328718L-78.43135844658957,227.0955100679185zM-78.43135844658957,227.0955100679185L-78.43135844658957,235.1371295032872L-70.01378042365756,227.0955100679185z" style="fill:rgb(291,0,0)"/><path d="M138.79541733440564,66.03356680700286L138.79541733440564,74.07518624237159L147.21299535733763,66.03356680700286zM147.21299535733763,66.03356680700286L147.21299535733763,74.07518624237159L155.63057338026968,66.03356680700287zM44.21026543466011,116.22139546288645L52.62784345759212,116.22139546288645L52.62784345759212,108.1797760275177zM52.62784345759212,116.22139546288645L61.04542148052414,116.22139546288645L61.04542148052414,108.1797760275177z" style="fill:rgb(0,0,291)"/><path d="M-86.84893646952162,227.0955100679185L-78.43135844658957,227.0955100679185L-78.43135844658957,219.05389063254975zM-78.43135844658957,227.0955100679185L-70.01378042365756,227.0955100679185L-70.01378042365756,219.05389063254975z" style="fill:rgb(291,0,0)"/><path d="M44.21026543466011,108.17977602751772L44.21026543466011,116.22139546288645L52.62784345759212,108.1797760275177zM52.62784345759212,108.1797760275177L52.62784345759212,116.22139546288645L61.04542148052414,108.1797760275177z" style="fill:rgb(0,0,291)"/><path d="M-86.8489364695216,219.05389063254975L-86.84893646952162,227.0955100679185L-78.43135844658957,219.05389063254975zM-78.43135844658957,219.05389063254975L-78.43135844658957,227.0955100679185L-70.01378042365756,219.05389063254975z" style="fill:rgb(291,0,0)"/><path d="M-35.61051458864333,87.6235659339285L-27.192936565711317,87.6235659339285L-27.192936565711317,79.58194649855976zM-27.192936565711317,87.6235659339285L-18.7753585427793,87.6235659339285L-18.775358542779298,79.58194649855974z" style="fill:rgb(0,0,291)"/><path d="M-78.55048706109059,124.06824647711159L-70.13290903815856,124.0682464771116L-70.13290903815857,116.02662704174287zM-70.13290903815856,124.0682464771116L-61.71533101522655,124.0682464771116L-61.715331015226546,116.02662704174287z" style="fill:rgb(291,0,0)"/><path d="M-35.61051458864335,79.58194649855976L-35.61051458864333,87.6235659339285L-27.192936565711317,79.58194649855976zM-27.192936565711317,79.58194649855976L-27.192936565711317,87.6235659339285L-18.775358542779298,79.58194649855974z" style="fill:rgb(0,0,291)"/><path d="M-78.55048706109059,116.02662704174287L-78.55048706109059,124.06824647711159L-70.13290903815857,116.02662704174287zM-70.13290903815857,116.02662704174287L-70.13290903815856,124.0682464771116L-61.715331015226546,116.02662704174287z" style="fill:rgb(291,0,0)"/><path d="M-35.61051458864335,79.58194649855976L-27.192936565711317,79.58194649855976L-27.19293656571131,71.54032706319103zM-27.192936565711317,79.58194649855976L-18.775358542779298,79.58194649855974L-18.775358542779298,71.54032706319101z" style="fill:rgb(0,0,291)"/><path d="M-78.55048706109059,116.02662704174287L-70.13290903815857,116.02662704174287L-70.13290903815857,107.98500760637413zM-70.13290903815857,116.02662704174287L-61.715331015226546,116.02662704174287L-61.71533101522656,107.98500760637415z" style="fill:rgb(291,0,0)"/><path d="M-35.61051458864333,71.54032706319103L-35.61051458864335,79.58194649855976L-27.19293656571131,71.54032706319103zM-27.19293656571131,71.54032706319103L-27.192936565711317,79.58194649855976L-18.775358542779298,71.54032706319101z" style="fill:rgb(0,0,291)"/><text x="206.7992666093919" y="260.0099643545938" z="-0.9915783777819954" font-family="Verdana" font-size="12" fill="rgb(0,0,0)">timepoint</text><path d="M-78.55048706109059,107.98500760637413L-78.55048706109059,116.02662704174287L-70.13290903815857,107.98500760637413zM-70.13290903815857,107.98500760637413L-70.13290903815857,116.02662704174287L-61.71533101522656,107.98500760637415zM-114.54218235491969,-4.69787154290348L-106.12460433198764,-4.69787154290348L-106.12460433198764,-12.739490978272213zM-106.12460433198764,-4.69787154290348L-97.70702630905564,-4.697871542903481L-97.70702630905564,-12.739490978272213zM-114.54218235491967,-12.739490978272213L-114.54218235491969,-4.69787154290348L-106.12460433198764,-12.739490978272213zM-106.12460433198764,-12.739490978272213L-106.12460433198764,-4.69787154290348L-97.70702630905564,-12.739490978272213zM-32.32126881602831,-125.54936758988126L-23.90369079309629,-125.54936758988126L-23.90369079309628,-133.59098702525zM-23.90369079309629,-125.54936758988126L-15.486112770164265,-125.54936758988124L-15.486112770164269,-133.59098702525zM-114.54218235491967,-12.739490978272213L-106.12460433198764,-12.739490978272213L-106.12460433198765,-20.78111041364095zM-106.12460433198764,-12.739490978272213L-97.70702630905564,-12.739490978272213L-97.70702630905564,-20.78111041364095zM-32.321268816028294,-133.59098702525L-32.32126881602831,-125.54936758988126L-23.90369079309628,-133.59098702525zM-23.90369079309628,-133.59098702525L-23.90369079309629,-125.54936758988126L-15.486112770164269,-133.59098702525zM-114.54218235491969,-20.78111041364095L-114.54218235491967,-12.739490978272213L-106.12460433198765,-20.78111041364095zM-106.12460433198765,-20.78111041364095L-106.12460433198764,-12.739490978272213L-97.70702630905564,-20.78111041364095zM-32.321268816028294,-133.59098702525L-23.90369079309628,-133.59098702525L-23.90369079309628,-141.6326064606187zM-23.90369079309628,-133.59098702525L-15.486112770164269,-133.59098702525L-15.486112770164262,-141.6326064606187zM-32.32126881602831,-141.6326064606187L-32.321268816028294,-133.59098702525L-23.90369079309628,-141.6326064606187zM-23.90369079309628,-141.6326064606187L-23.90369079309628,-133.59098702525L-15.486112770164262,-141.6326064606187z" style="fill:rgb(291,0,0)"/></svg>