<?xml version="1.0" encoding="utf-8" standalone="no"?>
<!DOCTYPE svg PUBLIC "-//W3C//DTD SVG 1.1//EN"
  "http://www.w3.org/Graphics/SVG/1.1/DTD/svg11.dtd">
<!-- Created with matplotlib (https://matplotlib.org/) -->
<svg height="252.399375pt" version="1.1" viewBox="0 0 601.3 252.399375" width="601.3pt" xmlns="http://www.w3.org/2000/svg" xmlns:xlink="http://www.w3.org/1999/xlink">
 <metadata>
  <rdf:RDF xmlns:cc="http://creativecommons.org/ns#" xmlns:dc="http://purl.org/dc/elements/1.1/" xmlns:rdf="http://www.w3.org/1999/02/22-rdf-syntax-ns#">
   <cc:Work>
    <dc:type rdf:resource="http://purl.org/dc/dcmitype/StillImage"/>
    <dc:date>2021-08-25T22:14:30.246289</dc:date>
    <dc:format>image/svg+xml</dc:format>
    <dc:creator>
     <cc:Agent>
      <dc:title>Matplotlib v3.3.2, https://matplotlib.org/</dc:title>
     </cc:Agent>
    </dc:creator>
   </cc:Work>
  </rdf:RDF>
 </metadata>
 <defs>
  <style type="text/css">*{stroke-linecap:butt;stroke-linejoin:round;}</style>
 </defs>
 <g id="figure_1">
  <g id="patch_1">
   <path d="M 0 252.399375 
L 601.3 252.399375 
L 601.3 0 
L 0 0 
z
" style="fill:none;"/>
  </g>
  <g id="axes_1">
   <g id="patch_2">
    <path d="M 389.048399 133.304395 
C 389.048399 116.525879 384.193291 100.100445 375.071333 86.018242 
C 365.949374 71.936038 352.944485 60.789748 337.632371 53.929884 
C 322.320256 47.07002 305.345364 44.785296 288.764415 47.352535 
C 272.183466 49.919775 256.69431 57.230929 244.173652 68.40016 
L 302.072399 133.304395 
L 389.048399 133.304395 
z
" style="fill:#f08080;"/>
   </g>
   <g id="patch_3">
    <path d="M 239.272384 71.540662 
C 230.234842 79.60273 222.980031 89.464269 217.973802 100.492043 
C 212.967573 111.519817 210.319425 123.472622 210.199402 135.582936 
C 210.079379 147.693251 212.490106 159.696193 217.276785 170.821023 
C 222.063463 181.945852 229.121397 191.949242 237.997376 200.188848 
L 297.171131 136.444897 
L 239.272384 71.540662 
z
" style="fill:#ff8c00;"/>
   </g>
   <g id="patch_4">
    <path d="M 241.665784 203.6972 
C 250.222621 211.640544 260.291947 217.780195 271.272051 221.749264 
C 282.252154 225.718334 293.919877 227.436155 305.577989 226.800077 
C 317.236102 226.163998 328.647667 223.186948 339.130764 218.046824 
C 349.61386 212.906701 358.955432 205.707972 366.597253 196.880812 
L 300.839538 139.953248 
L 241.665784 203.6972 
z
" style="fill:#ff0000;"/>
   </g>
   <g id="patch_5">
    <path d="M 369.667674 194.622005 
C 376.455666 186.781113 381.786851 177.788964 385.408937 168.071098 
C 389.031022 158.353231 390.885957 148.065399 390.885959 137.694458 
L 303.909959 137.694441 
L 369.667674 194.622005 
z
" style="fill:#ffd700;"/>
   </g>
   <g id="matplotlib.axis_1"/>
   <g id="matplotlib.axis_2"/>
   <g id="text_1">
    <text style="font-family:Arial;font-size:10px;font-stretch:normal;font-style:normal;font-weight:normal;text-anchor:start;" transform="rotate(-0, 341.188368, 48.577589)" x="341.188368" y="48.577589">Nature</text>
   </g>
   <g id="text_2">
    <text style="font-family:Arial;font-size:10px;font-stretch:normal;font-style:normal;font-weight:normal;text-anchor:middle;" transform="rotate(-0, 323.408382, 88.264844)" x="323.408382" y="88.264844">36.59%</text>
   </g>
   <g id="text_3">
    <text style="font-family:Arial;font-size:10px;font-stretch:normal;font-style:normal;font-weight:normal;text-anchor:end;" transform="rotate(-0, 201.502229, 138.081896)" x="201.502229" y="138.081896">ASM</text>
   </g>
   <g id="text_4">
    <text style="font-family:Arial;font-size:10px;font-stretch:normal;font-style:normal;font-weight:normal;text-anchor:middle;" transform="rotate(-0, 244.988094, 138.512877)" x="244.988094" y="138.512877">26.50%</text>
   </g>
   <g id="text_5">
    <text style="font-family:Arial;font-size:10px;font-stretch:normal;font-style:normal;font-weight:normal;text-anchor:start;" transform="rotate(-0, 306.051834, 238.069916)" x="306.051834" y="238.069916">Cell</text>
   </g>
   <g id="text_6">
    <text style="font-family:Arial;font-size:10px;font-stretch:normal;font-style:normal;font-weight:normal;text-anchor:middle;" transform="rotate(-0, 303.682609, 194.646502)" x="303.682609" y="194.646502">25.55%</text>
   </g>
   <g id="text_7">
    <text style="font-family:Arial;font-size:10px;font-stretch:normal;font-style:normal;font-weight:normal;text-anchor:start;" transform="rotate(-0, 393.558834, 173.693919)" x="393.558834" y="173.693919">Science</text>
   </g>
   <g id="text_8">
    <text style="font-family:Arial;font-size:10px;font-stretch:normal;font-style:normal;font-weight:normal;text-anchor:middle;" transform="rotate(-0, 352.809346, 158.505591)" x="352.809346" y="158.505591">11.36%</text>
   </g>
   <g id="text_9">
    <text style="font-family:Arial;font-size:20px;font-stretch:normal;font-style:normal;font-weight:normal;text-anchor:middle;" transform="rotate(-0, 300.65, 21.759375)" x="300.65" y="21.759375">Journal Group Composition for Articles that have Microbiome Data</text>
   </g>
  </g>
 </g>
</svg>
