<svg xmlns="http://www.w3.org/2000/svg" viewBox="-506 -325 1012 650" width="1012" height="650" style="background-color: rgb(255, 255, 255);"><rect id="background" height="650" width="1012" y="-325" x="-506" stroke-width="0" stroke="#000000" fill="#ffffff"/><text x="-219.78294903164" y="223.63500241765544" z="-0.9886532087542468" font-family="Verdana" font-size="12" fill="rgb(0,0,0)">Axis 2 (24.29 %)</text><path d="M138.49936994672774,259.73483323063687L105.38998308663474,222.95179470817052M105.38998308663474,-263.32967492514763L105.38998308663474,222.95179470817052M-219.78294903164,223.63500241765544L105.38998308663474,222.95179470817052" style="fill:none;stroke:rgb(0,0,0);stroke-width:3;stroke-linecap:round"/><text x="105.38998308663474" y="-263.32967492514763" z="-0.9886897441332393" font-family="Verdana" font-size="12" fill="rgb(0,0,0)">Axis 1 (52.93 %)</text><path d="M67.08718641888476,69.55104100842654L75.63367929558616,69.55104100842654L75.63367929558616,61.3862645092616zM75.63367929558616,69.55104100842654L84.18017217228761,69.55104100842654L84.18017217228758,61.3862645092616zM67.08718641888476,61.3862645092616L67.08718641888476,69.55104100842654L75.63367929558616,61.3862645092616zM75.63367929558616,61.3862645092616L75.63367929558616,69.55104100842654L84.18017217228758,61.3862645092616zM67.08718641888476,61.3862645092616L75.63367929558616,61.3862645092616L75.63367929558616,53.22148801009667zM75.63367929558616,61.3862645092616L84.18017217228758,61.3862645092616L84.18017217228758,53.22148801009668zM67.08718641888474,53.22148801009667L67.08718641888476,61.3862645092616L75.63367929558616,53.22148801009667zM75.63367929558616,53.22148801009667L75.63367929558616,61.3862645092616L84.18017217228758,53.22148801009668zM-19.010050448485824,-4.93943755488267L-10.463557571784403,-4.93943755488267L-10.463557571784401,-13.10421405404761zM-10.463557571784403,-4.93943755488267L-1.9170646950829804,-4.93943755488267L-1.917064695082982,-13.10421405404761z" style="fill:rgb(291,0,0)"/><path d="M-59.26717021563734,18.878533694421876L-50.72067733893592,18.878533694421876L-50.72067733893592,10.713757195256937zM-50.72067733893592,18.878533694421876L-42.17418446223451,18.878533694421876L-42.1741844622345,10.713757195256937z" style="fill:rgb(0,0,291)"/><path d="M-19.010050448485824,-13.104214054047604L-19.010050448485824,-4.93943755488267L-10.463557571784401,-13.10421405404761zM-10.463557571784401,-13.10421405404761L-10.463557571784403,-4.93943755488267L-1.917064695082982,-13.10421405404761zM-29.03970936175053,-14.996155670299562L-20.49321648504911,-14.996155670299562L-20.49321648504911,-23.1609321694645zM-20.49321648504911,-14.996155670299562L-11.94672360834769,-14.996155670299562L-11.94672360834769,-23.160932169464488z" style="fill:rgb(291,0,0)"/><path d="M-59.26717021563734,10.713757195256937L-59.26717021563734,18.878533694421876L-50.72067733893592,10.713757195256937zM-50.72067733893592,10.713757195256937L-50.72067733893592,18.878533694421876L-42.1741844622345,10.713757195256937z" style="fill:rgb(0,0,291)"/><path d="M-29.03970936175053,-23.160932169464488L-29.03970936175053,-14.996155670299562L-20.49321648504911,-23.1609321694645zM-20.49321648504911,-23.1609321694645L-20.49321648504911,-14.996155670299562L-11.94672360834769,-23.160932169464488zM-19.010050448485824,-13.104214054047604L-10.463557571784401,-13.10421405404761L-10.463557571784401,-21.268990553212543zM-10.463557571784401,-13.10421405404761L-1.917064695082982,-13.10421405404761L-1.917064695082982,-21.268990553212543zM4.253583188510141,-90.4957699663614L12.80007606521156,-90.4957699663614L12.80007606521156,-98.66054646552631zM12.80007606521156,-90.4957699663614L21.34656894191298,-90.4957699663614L21.34656894191298,-98.66054646552631z" style="fill:rgb(291,0,0)"/><path d="M-59.26717021563734,10.713757195256937L-50.72067733893592,10.713757195256937L-50.72067733893592,2.5489806960919994zM-50.72067733893592,10.713757195256937L-42.1741844622345,10.713757195256937L-42.17418446223451,2.548980696092004z" style="fill:rgb(0,0,291)"/><path d="M-19.010050448485824,-21.268990553212543L-19.010050448485824,-13.104214054047604L-10.463557571784401,-21.268990553212543zM-10.463557571784401,-21.268990553212543L-10.463557571784401,-13.10421405404761L-1.917064695082982,-21.268990553212543zM-29.03970936175053,-23.160932169464488L-20.49321648504911,-23.1609321694645L-20.49321648504911,-31.325708668629424zM-20.49321648504911,-23.1609321694645L-11.94672360834769,-23.160932169464488L-11.946723608347693,-31.325708668629424zM4.2535831885101425,-98.66054646552631L4.253583188510141,-90.4957699663614L12.80007606521156,-98.66054646552631zM12.80007606521156,-98.66054646552631L12.80007606521156,-90.4957699663614L21.34656894191298,-98.66054646552631z" style="fill:rgb(291,0,0)"/><path d="M-59.267170215637336,2.5489806960920016L-59.26717021563734,10.713757195256937L-50.72067733893592,2.5489806960919994zM-50.72067733893592,2.5489806960919994L-50.72067733893592,10.713757195256937L-42.17418446223451,2.548980696092004z" style="fill:rgb(0,0,291)"/><path d="M-29.03970936175053,-31.325708668629424L-29.03970936175053,-23.160932169464488L-20.49321648504911,-31.325708668629424zM-20.49321648504911,-31.325708668629424L-20.49321648504911,-23.1609321694645L-11.946723608347693,-31.325708668629424zM4.2535831885101425,-98.66054646552631L12.80007606521156,-98.66054646552631L12.80007606521156,-106.82532296469127zM12.80007606521156,-98.66054646552631L21.34656894191298,-98.66054646552631L21.34656894191298,-106.82532296469127zM4.253583188510141,-106.82532296469127L4.2535831885101425,-98.66054646552631L12.80007606521156,-106.82532296469127zM12.80007606521156,-106.82532296469127L12.80007606521156,-98.66054646552631L21.34656894191298,-106.82532296469127z" style="fill:rgb(291,0,0)"/><path d="M49.019192102127036,-205.5093233403025L57.56568497882846,-205.5093233403025L57.56568497882846,-213.6740998394675zM57.56568497882846,-205.5093233403025L66.11217785552988,-205.5093233403025L66.11217785552986,-213.67409983946746zM49.01919210212704,-213.67409983946746L49.019192102127036,-205.5093233403025L57.56568497882846,-213.6740998394675zM57.56568497882846,-213.6740998394675L57.56568497882846,-205.5093233403025L66.11217785552986,-213.67409983946746zM49.01919210212704,-213.67409983946746L57.56568497882846,-213.6740998394675L57.56568497882846,-221.8388763386324zM57.56568497882846,-213.6740998394675L66.11217785552986,-213.67409983946746L66.11217785552986,-221.83887633863242zM14.911267555949046,-236.33968392956277L23.457760432650467,-236.33968392956277L23.457760432650467,-244.5044604287277zM23.457760432650467,-236.33968392956277L32.004253309351874,-236.33968392956277L32.00425330935188,-244.50446042872764zM49.019192102127036,-221.83887633863242L49.01919210212704,-213.67409983946746L57.56568497882846,-221.8388763386324zM57.56568497882846,-221.8388763386324L57.56568497882846,-213.6740998394675L66.11217785552986,-221.83887633863242zM14.911267555949042,-244.50446042872764L14.911267555949046,-236.33968392956277L23.457760432650467,-244.5044604287277zM23.457760432650467,-244.5044604287277L23.457760432650467,-236.33968392956277L32.00425330935188,-244.50446042872764zM14.911267555949042,-244.50446042872764L23.457760432650467,-244.5044604287277L23.457760432650467,-252.66923692789257zM23.457760432650467,-244.5044604287277L32.00425330935188,-244.50446042872764L32.00425330935188,-252.6692369278926zM14.911267555949046,-252.6692369278926L14.911267555949042,-244.50446042872764L23.457760432650467,-252.66923692789257zM23.457760432650467,-252.66923692789257L23.457760432650467,-244.5044604287277L32.00425330935188,-252.6692369278926z" style="fill:rgb(0,0,291)"/><path d="M-53.26448582429588,57.38310393349281L-44.717992947594475,57.38310393349281L-44.717992947594475,49.218327434327875zM-44.717992947594475,57.38310393349281L-36.17150007089305,57.38310393349281L-36.17150007089305,49.218327434327875zM-53.26448582429588,49.218327434327875L-53.26448582429588,57.38310393349281L-44.717992947594475,49.218327434327875zM-44.717992947594475,49.218327434327875L-44.717992947594475,57.38310393349281L-36.17150007089305,49.218327434327875zM-45.837929215809595,26.299298445071315L-37.291436339108174,26.299298445071315L-37.291436339108174,18.134521945906375zM-37.291436339108174,26.299298445071315L-28.744943462406756,26.299298445071315L-28.744943462406756,18.134521945906375zM-45.837929215809595,18.134521945906375L-45.837929215809595,26.299298445071315L-37.291436339108174,18.134521945906375zM-37.291436339108174,18.134521945906375L-37.291436339108174,26.299298445071315L-28.744943462406756,18.134521945906375zM-53.26448582429588,49.218327434327875L-44.717992947594475,49.218327434327875L-44.71799294759448,41.053550935162946zM-44.717992947594475,49.218327434327875L-36.17150007089305,49.218327434327875L-36.17150007089305,41.05355093516293z" style="fill:rgb(291,0,0)"/><path d="M53.81716183451877,-97.18310311765056L62.363654711220185,-97.18310311765056L62.363654711220185,-105.34787961681552zM62.363654711220185,-97.18310311765056L70.91014758792163,-97.18310311765056L70.91014758792161,-105.34787961681552z" style="fill:rgb(0,0,291)"/><path d="M-53.26448582429588,41.053550935162946L-53.26448582429588,49.218327434327875L-44.71799294759448,41.053550935162946zM-44.71799294759448,41.053550935162946L-44.717992947594475,49.218327434327875L-36.17150007089305,41.05355093516293z" style="fill:rgb(291,0,0)"/><path d="M53.81716183451877,-105.34787961681549L53.81716183451877,-97.18310311765056L62.363654711220185,-105.34787961681552zM62.363654711220185,-105.34787961681552L62.363654711220185,-97.18310311765056L70.91014758792161,-105.34787961681552z" style="fill:rgb(0,0,291)"/><path d="M-45.837929215809595,18.134521945906375L-37.291436339108174,18.134521945906375L-37.291436339108174,9.969745446741436zM-37.291436339108174,18.134521945906375L-28.744943462406756,18.134521945906375L-28.744943462406756,9.969745446741436zM-100.85103521401102,15.179121325542727L-92.3045423373096,15.179121325542727L-92.3045423373096,7.0143448263777906zM-92.3045423373096,15.179121325542727L-83.75804946060818,15.179121325542727L-83.75804946060819,7.0143448263777906zM-45.8379292158096,9.969745446741436L-45.837929215809595,18.134521945906375L-37.291436339108174,9.969745446741436zM-37.291436339108174,9.969745446741436L-37.291436339108174,18.134521945906375L-28.744943462406756,9.969745446741436z" style="fill:rgb(291,0,0)"/><path d="M93.09958433203295,-169.83608326581174L101.64607720873437,-169.83608326581174L101.64607720873437,-178.0008597649767zM101.64607720873437,-169.83608326581174L110.19257008543579,-169.83608326581177L110.19257008543578,-178.00085976497667z" style="fill:rgb(0,0,291)"/><path d="M-135.80050806836775,29.723865453374327L-127.25401519166633,29.723865453374327L-127.25401519166633,21.559088954209386zM-127.25401519166633,29.723865453374327L-118.70752231496492,29.723865453374327L-118.70752231496493,21.559088954209386zM-100.85103521401102,7.0143448263777906L-100.85103521401102,15.179121325542727L-92.3045423373096,7.0143448263777906zM-92.3045423373096,7.0143448263777906L-92.3045423373096,15.179121325542727L-83.75804946060819,7.0143448263777906z" style="fill:rgb(291,0,0)"/><path d="M-3.5258777062814284,-97.22582903897617L5.020615170419992,-97.22582903897617L5.020615170419992,-105.39060553814113zM5.020615170419992,-97.22582903897617L13.567108047121412,-97.22582903897617L13.567108047121408,-105.39060553814113zM53.81716183451877,-105.34787961681549L62.363654711220185,-105.34787961681552L62.363654711220185,-113.51265611598045zM62.363654711220185,-105.34787961681552L70.91014758792161,-105.34787961681552L70.91014758792161,-113.51265611598045zM93.09958433203295,-178.0008597649767L93.09958433203295,-169.83608326581174L101.64607720873437,-178.0008597649767zM101.64607720873437,-178.0008597649767L101.64607720873437,-169.83608326581174L110.19257008543578,-178.00085976497667z" style="fill:rgb(0,0,291)"/><path d="M-135.80050806836775,21.559088954209386L-135.80050806836775,29.723865453374327L-127.25401519166633,21.559088954209386zM-127.25401519166633,21.559088954209386L-127.25401519166633,29.723865453374327L-118.70752231496493,21.559088954209386z" style="fill:rgb(291,0,0)"/><path d="M-3.525877706281429,-105.3906055381411L-3.5258777062814284,-97.22582903897617L5.020615170419992,-105.39060553814113zM5.020615170419992,-105.39060553814113L5.020615170419992,-97.22582903897617L13.567108047121408,-105.39060553814113zM53.817161834518764,-113.51265611598045L53.81716183451877,-105.34787961681549L62.363654711220185,-113.51265611598045zM62.363654711220185,-113.51265611598045L62.363654711220185,-105.34787961681552L70.91014758792161,-113.51265611598045z" style="fill:rgb(0,0,291)"/><path d="M-100.85103521401102,7.0143448263777906L-92.3045423373096,7.0143448263777906L-92.3045423373096,-1.1504316727871413zM-92.3045423373096,7.0143448263777906L-83.75804946060819,7.0143448263777906L-83.75804946060819,-1.150431672787146z" style="fill:rgb(291,0,0)"/><path d="M93.09958433203295,-178.0008597649767L101.64607720873437,-178.0008597649767L101.64607720873437,-186.16563626414165zM101.64607720873437,-178.0008597649767L110.19257008543578,-178.00085976497667L110.19257008543578,-186.16563626414163z" style="fill:rgb(0,0,291)"/><path d="M-135.80050806836775,21.559088954209386L-127.25401519166633,21.559088954209386L-127.25401519166633,13.39431245504445zM-127.25401519166633,21.559088954209386L-118.70752231496493,21.559088954209386L-118.70752231496493,13.39431245504445zM-100.85103521401103,-1.150431672787146L-100.85103521401102,7.0143448263777906L-92.3045423373096,-1.1504316727871413zM-92.3045423373096,-1.1504316727871413L-92.3045423373096,7.0143448263777906L-83.75804946060819,-1.150431672787146z" style="fill:rgb(291,0,0)"/><path d="M-3.525877706281429,-105.3906055381411L5.020615170419992,-105.39060553814113L5.02061517041999,-113.55538203730606zM5.020615170419992,-105.39060553814113L13.567108047121408,-105.39060553814113L13.567108047121408,-113.55538203730606zM93.09958433203293,-186.16563626414163L93.09958433203295,-178.0008597649767L101.64607720873437,-186.16563626414165zM101.64607720873437,-186.16563626414165L101.64607720873437,-178.0008597649767L110.19257008543578,-186.16563626414163z" style="fill:rgb(0,0,291)"/><path d="M-135.80050806836775,13.39431245504445L-135.80050806836775,21.559088954209386L-127.25401519166633,13.39431245504445zM-127.25401519166633,13.39431245504445L-127.25401519166633,21.559088954209386L-118.70752231496493,13.39431245504445z" style="fill:rgb(291,0,0)"/><path d="M-3.5258777062814293,-113.55538203730606L-3.525877706281429,-105.3906055381411L5.02061517041999,-113.55538203730606zM5.02061517041999,-113.55538203730606L5.020615170419992,-105.39060553814113L13.567108047121408,-113.55538203730606zM24.680589481704146,-204.49790993289116L33.22708235840557,-204.49790993289122L33.22708235840557,-212.66268643205612zM33.22708235840557,-204.49790993289122L41.77357523510699,-204.49790993289122L41.773575235106996,-212.66268643205612zM24.680589481704146,-212.66268643205612L24.680589481704146,-204.49790993289116L33.22708235840557,-212.66268643205612zM33.22708235840557,-212.66268643205612L33.22708235840557,-204.49790993289122L41.773575235106996,-212.66268643205612zM24.680589481704146,-212.66268643205612L33.22708235840557,-212.66268643205612L33.22708235840556,-220.82746293122108zM33.22708235840557,-212.66268643205612L41.773575235106996,-212.66268643205612L41.77357523510699,-220.82746293122105zM24.680589481704146,-220.82746293122105L24.680589481704146,-212.66268643205612L33.22708235840556,-220.82746293122108zM33.22708235840556,-220.82746293122108L33.22708235840557,-212.66268643205612L41.77357523510699,-220.82746293122105z" style="fill:rgb(0,0,291)"/><path d="M101.87618499507164,19.48147190492458L110.42267787177305,19.48147190492458L110.42267787177306,11.31669540575964zM110.42267787177305,19.48147190492458L118.96917074847448,19.48147190492458L118.96917074847448,11.31669540575964zM101.87618499507165,11.316695405759642L101.87618499507164,19.48147190492458L110.42267787177306,11.31669540575964zM110.42267787177306,11.31669540575964L110.42267787177305,19.48147190492458L118.96917074847448,11.31669540575964zM101.87618499507165,11.316695405759642L110.42267787177306,11.31669540575964L110.42267787177306,3.151918906594704zM110.42267787177306,11.31669540575964L118.96917074847448,11.31669540575964L118.96917074847448,3.151918906594704zM101.87618499507164,3.151918906594704L101.87618499507165,11.316695405759642L110.42267787177306,3.151918906594704zM110.42267787177306,3.151918906594704L110.42267787177306,11.31669540575964L118.96917074847448,3.151918906594704z" style="fill:rgb(291,0,0)"/><path d="M74.3198946592259,-41.6314018881922L82.86638753592733,-41.63140188819221L82.86638753592734,-49.79617838735715zM82.86638753592733,-41.63140188819221L91.41288041262875,-41.6314018881922L91.41288041262875,-49.796178387357145z" style="fill:rgb(0,0,291)"/><path d="M-49.79125343057244,64.40920800725178L-41.244760553871025,64.40920800725178L-41.244760553871025,56.24443150808684zM-41.244760553871025,64.40920800725178L-32.6982676771696,64.40920800725178L-32.6982676771696,56.24443150808684z" style="fill:rgb(291,0,0)"/><path d="M74.31989465922591,-49.796178387357145L74.3198946592259,-41.6314018881922L82.86638753592734,-49.79617838735715zM82.86638753592734,-49.79617838735715L82.86638753592733,-41.63140188819221L91.41288041262875,-49.796178387357145z" style="fill:rgb(0,0,291)"/><path d="M-49.79125343057244,56.24443150808684L-49.79125343057244,64.40920800725178L-41.244760553871025,56.24443150808684zM-41.244760553871025,56.24443150808684L-41.244760553871025,64.40920800725178L-32.6982676771696,56.24443150808684z" style="fill:rgb(291,0,0)"/><path d="M74.31989465922591,-49.796178387357145L82.86638753592734,-49.79617838735715L82.86638753592734,-57.96095488652209zM82.86638753592734,-49.79617838735715L91.41288041262875,-49.796178387357145L91.41288041262875,-57.96095488652208z" style="fill:rgb(0,0,291)"/><path d="M-49.79125343057244,56.24443150808684L-41.244760553871025,56.24443150808684L-41.24476055387103,48.079655008921904zM-41.244760553871025,56.24443150808684L-32.6982676771696,56.24443150808684L-32.6982676771696,48.079655008921904z" style="fill:rgb(291,0,0)"/><path d="M74.3198946592259,-57.96095488652208L74.31989465922591,-49.796178387357145L82.86638753592734,-57.96095488652209zM82.86638753592734,-57.96095488652209L82.86638753592734,-49.79617838735715L91.41288041262875,-57.96095488652208z" style="fill:rgb(0,0,291)"/><path d="M-49.791253430572446,48.079655008921904L-49.79125343057244,56.24443150808684L-41.24476055387103,48.079655008921904zM-41.24476055387103,48.079655008921904L-41.244760553871025,56.24443150808684L-32.6982676771696,48.079655008921904z" style="fill:rgb(291,0,0)"/><path d="M-128.06783144199073,51.409320993472406L-119.52133856528933,51.40932099347241L-119.52133856528931,43.244544494307476zM-119.52133856528933,51.40932099347241L-110.9748456885879,51.40932099347241L-110.9748456885879,43.244544494307476zM-1.217215253220139,-68.91170921344239L7.32927762348128,-68.91170921344239L7.32927762348128,-77.07648571260735zM7.32927762348128,-68.91170921344239L15.875770500182702,-68.91170921344239L15.875770500182702,-77.07648571260735zM-128.06783144199073,43.24454449430746L-128.06783144199073,51.409320993472406L-119.52133856528931,43.244544494307476zM-119.52133856528931,43.244544494307476L-119.52133856528933,51.40932099347241L-110.9748456885879,43.244544494307476zM-1.21721525322014,-77.07648571260735L-1.217215253220139,-68.91170921344239L7.32927762348128,-77.07648571260735zM7.32927762348128,-77.07648571260735L7.32927762348128,-68.91170921344239L15.875770500182702,-77.07648571260735zM-128.06783144199073,43.24454449430746L-119.52133856528931,43.244544494307476L-119.52133856528931,35.07976799514253zM-119.52133856528931,43.244544494307476L-110.9748456885879,43.244544494307476L-110.9748456885879,35.07976799514253zM-1.21721525322014,-77.07648571260735L7.32927762348128,-77.07648571260735L7.32927762348128,-85.24126221177231zM7.32927762348128,-77.07648571260735L15.875770500182702,-77.07648571260735L15.875770500182702,-85.24126221177231zM-128.06783144199073,35.07976799514253L-128.06783144199073,43.24454449430746L-119.52133856528931,35.07976799514253zM-119.52133856528931,35.07976799514253L-119.52133856528931,43.244544494307476L-110.9748456885879,35.07976799514253zM-1.21721525322014,-85.24126221177231L-1.21721525322014,-77.07648571260735L7.32927762348128,-85.24126221177231zM7.32927762348128,-85.24126221177231L7.32927762348128,-77.07648571260735L15.875770500182702,-85.24126221177231z" style="fill:rgb(0,0,291)"/><path d="M-200.32729985307483,0.6792921348825485L-191.7808069763734,0.679292134882553L-191.78080697637338,-7.485484364282381zM-191.7808069763734,0.679292134882553L-183.234314099672,0.6792921348825485L-183.234314099672,-7.485484364282386zM-202.02375156406362,-11.32606448446973L-193.47725868736222,-11.326064484469727L-193.4772586873622,-19.490840983634673zM-193.47725868736222,-11.326064484469727L-184.9307658106608,-11.326064484469727L-184.9307658106608,-19.490840983634666zM-200.32729985307486,-7.485484364282386L-200.32729985307483,0.6792921348825485L-191.78080697637338,-7.485484364282381zM-191.78080697637338,-7.485484364282381L-191.7808069763734,0.679292134882553L-183.234314099672,-7.485484364282386zM-202.02375156406362,-19.490840983634666L-202.02375156406362,-11.32606448446973L-193.4772586873622,-19.490840983634673zM-193.4772586873622,-19.490840983634673L-193.47725868736222,-11.326064484469727L-184.9307658106608,-19.490840983634666z" style="fill:rgb(291,0,0)"/><path d="M-84.28034834297156,-143.33189934834127L-75.73385546627014,-143.33189934834127L-75.73385546627013,-151.4966758475062zM-75.73385546627014,-143.33189934834127L-67.1873625895687,-143.33189934834127L-67.1873625895687,-151.4966758475062z" style="fill:rgb(0,0,291)"/><path d="M-200.32729985307486,-7.485484364282386L-191.78080697637338,-7.485484364282381L-191.78080697637338,-15.650260863447318zM-191.78080697637338,-7.485484364282381L-183.234314099672,-7.485484364282386L-183.234314099672,-15.650260863447322z" style="fill:rgb(291,0,0)"/><path d="M-84.28034834297155,-151.4966758475062L-84.28034834297156,-143.33189934834127L-75.73385546627013,-151.4966758475062zM-75.73385546627013,-151.4966758475062L-75.73385546627014,-143.33189934834127L-67.1873625895687,-151.4966758475062z" style="fill:rgb(0,0,291)"/><path d="M-202.02375156406362,-19.490840983634666L-193.4772586873622,-19.490840983634673L-193.4772586873622,-27.655617482799606zM-193.4772586873622,-19.490840983634673L-184.9307658106608,-19.490840983634666L-184.9307658106608,-27.655617482799595zM-200.32729985307483,-15.650260863447322L-200.32729985307486,-7.485484364282386L-191.78080697637338,-15.650260863447318zM-191.78080697637338,-15.650260863447318L-191.78080697637338,-7.485484364282381L-183.234314099672,-15.650260863447322zM-202.02375156406362,-27.655617482799595L-202.02375156406362,-19.490840983634666L-193.4772586873622,-27.655617482799606zM-193.4772586873622,-27.655617482799606L-193.4772586873622,-19.490840983634673L-184.9307658106608,-27.655617482799595z" style="fill:rgb(291,0,0)"/><path d="M-84.28034834297155,-151.4966758475062L-75.73385546627013,-151.4966758475062L-75.73385546627013,-159.66145234667118zM-75.73385546627013,-151.4966758475062L-67.1873625895687,-151.4966758475062L-67.18736258956872,-159.66145234667115zM-84.28034834297156,-159.66145234667115L-84.28034834297155,-151.4966758475062L-75.73385546627013,-159.66145234667118zM-75.73385546627013,-159.66145234667118L-75.73385546627013,-151.4966758475062L-67.18736258956872,-159.66145234667115zM2.8985551257679476,73.1824118316859L11.44504800246937,73.18241183168591L11.44504800246937,65.01763533252097zM11.44504800246937,73.18241183168591L19.991540879170792,73.1824118316859L19.991540879170792,65.01763533252095zM2.8985551257679476,65.01763533252095L2.8985551257679476,73.1824118316859L11.44504800246937,65.01763533252097zM11.44504800246937,65.01763533252097L11.44504800246937,73.18241183168591L19.991540879170792,65.01763533252095z" style="fill:rgb(0,0,291)"/><path d="M-79.08059755563592,126.45189599224773L-70.5341046789345,126.45189599224773L-70.5341046789345,118.28711949308283zM-70.5341046789345,126.45189599224773L-61.987611802233054,126.45189599224773L-61.987611802233076,118.28711949308278zM-79.08059755563592,118.28711949308283L-79.08059755563592,126.45189599224773L-70.5341046789345,118.28711949308283zM-70.5341046789345,118.28711949308283L-70.5341046789345,126.45189599224773L-61.987611802233076,118.28711949308278zM-32.242900527714625,53.975529509548075L-23.696407651013207,53.97552950954806L-23.696407651013207,45.810753010383124zM-23.696407651013207,53.97552950954806L-15.149914774311783,53.97552950954807L-15.149914774311782,45.810753010383124z" style="fill:rgb(291,0,0)"/><path d="M2.8985551257679476,65.01763533252095L11.44504800246937,65.01763533252097L11.44504800246937,56.85285883335603zM11.44504800246937,65.01763533252097L19.991540879170792,65.01763533252095L19.991540879170792,56.85285883335603z" style="fill:rgb(0,0,291)"/><path d="M-43.556979938881526,56.80968303692253L-35.010487062180104,56.80968303692252L-35.010487062180104,48.644906537757585zM-35.010487062180104,56.80968303692252L-26.463994185478683,56.80968303692253L-26.463994185478683,48.644906537757585zM-32.242900527714625,45.81075301038314L-32.242900527714625,53.975529509548075L-23.696407651013207,45.810753010383124zM-23.696407651013207,45.810753010383124L-23.696407651013207,53.97552950954806L-15.149914774311782,45.810753010383124z" style="fill:rgb(291,0,0)"/><path d="M2.8985551257679476,56.85285883335603L2.8985551257679476,65.01763533252095L11.44504800246937,56.85285883335603zM11.44504800246937,56.85285883335603L11.44504800246937,65.01763533252097L19.991540879170792,56.85285883335603z" style="fill:rgb(0,0,291)"/><path d="M-79.08059755563592,118.28711949308283L-70.5341046789345,118.28711949308283L-70.53410467893448,110.12234299391787zM-70.5341046789345,118.28711949308283L-61.987611802233076,118.28711949308278L-61.98761180223307,110.12234299391787zM-43.556979938881526,48.644906537757585L-43.556979938881526,56.80968303692253L-35.010487062180104,48.644906537757585zM-35.010487062180104,48.644906537757585L-35.010487062180104,56.80968303692252L-26.463994185478683,48.644906537757585z" style="fill:rgb(291,0,0)"/><path d="M-112.26595529513163,93.32922242691531L-103.71946241843023,93.32922242691531L-103.71946241843021,85.16444592775038zM-103.71946241843023,93.32922242691531L-95.17296954172879,93.32922242691531L-95.17296954172879,85.16444592775039z" style="fill:rgb(0,0,291)"/><path d="M-79.08059755563592,110.12234299391787L-79.08059755563592,118.28711949308283L-70.53410467893448,110.12234299391787zM-70.53410467893448,110.12234299391787L-70.5341046789345,118.28711949308283L-61.98761180223307,110.12234299391787z" style="fill:rgb(291,0,0)"/><path d="M-112.26595529513162,85.16444592775039L-112.26595529513163,93.32922242691531L-103.71946241843021,85.16444592775038zM-103.71946241843021,85.16444592775038L-103.71946241843023,93.32922242691531L-95.17296954172879,85.16444592775039z" style="fill:rgb(0,0,291)"/><path d="M-32.242900527714625,45.81075301038314L-23.696407651013207,45.810753010383124L-23.6964076510132,37.64597651121819zM-23.696407651013207,45.810753010383124L-15.149914774311782,45.810753010383124L-15.149914774311785,37.64597651121819z" style="fill:rgb(291,0,0)"/><path d="M19.891610332969407,-50.78365143094086L28.438103209670825,-50.78365143094087L28.438103209670825,-58.9484279301058zM28.438103209670825,-50.78365143094087L36.98459608637224,-50.78365143094086L36.98459608637225,-58.948427930105794z" style="fill:rgb(0,0,291)"/><path d="M-43.556979938881526,48.644906537757585L-35.010487062180104,48.644906537757585L-35.010487062180104,40.48013003859265zM-35.010487062180104,48.644906537757585L-26.463994185478683,48.644906537757585L-26.463994185478683,40.48013003859265zM-32.242900527714625,37.645976511218194L-32.242900527714625,45.81075301038314L-23.6964076510132,37.64597651121819zM-23.6964076510132,37.64597651121819L-23.696407651013207,45.810753010383124L-15.149914774311785,37.64597651121819z" style="fill:rgb(291,0,0)"/><path d="M19.8916103329694,-58.948427930105794L19.891610332969407,-50.78365143094086L28.438103209670825,-58.9484279301058zM28.438103209670825,-58.9484279301058L28.438103209670825,-50.78365143094087L36.98459608637225,-58.948427930105794z" style="fill:rgb(0,0,291)"/><path d="M-43.556979938881526,40.48013003859265L-43.556979938881526,48.644906537757585L-35.010487062180104,40.48013003859265zM-35.010487062180104,40.48013003859265L-35.010487062180104,48.644906537757585L-26.463994185478683,40.48013003859265z" style="fill:rgb(291,0,0)"/><path d="M-112.26595529513162,85.16444592775039L-103.71946241843021,85.16444592775038L-103.71946241843021,76.99966942858545zM-103.71946241843021,85.16444592775038L-95.17296954172879,85.16444592775039L-95.17296954172879,76.99966942858545zM-112.26595529513163,76.99966942858545L-112.26595529513162,85.16444592775039L-103.71946241843021,76.99966942858545zM-103.71946241843021,76.99966942858545L-103.71946241843021,85.16444592775038L-95.17296954172879,76.99966942858545zM19.8916103329694,-58.948427930105794L28.438103209670825,-58.9484279301058L28.438103209670825,-67.11320442927074zM28.438103209670825,-58.9484279301058L36.98459608637225,-58.948427930105794L36.98459608637224,-67.11320442927074zM19.891610332969407,-67.11320442927074L19.8916103329694,-58.948427930105794L28.438103209670825,-67.11320442927074zM28.438103209670825,-67.11320442927074L28.438103209670825,-58.9484279301058L36.98459608637224,-67.11320442927074zM-30.788990697610103,-103.32658658534073L-22.242497820908685,-103.32658658534073L-22.242497820908685,-111.49136308450569zM-22.242497820908685,-103.32658658534073L-13.69600494420726,-103.32658658534073L-13.696004944207258,-111.49136308450569zM-30.788990697610103,-111.49136308450569L-30.788990697610103,-103.32658658534073L-22.242497820908685,-111.49136308450569zM-22.242497820908685,-111.49136308450569L-22.242497820908685,-103.32658658534073L-13.696004944207258,-111.49136308450569zM-30.788990697610103,-111.49136308450569L-22.242497820908685,-111.49136308450569L-22.24249782090868,-119.65613958367061zM-22.242497820908685,-111.49136308450569L-13.696004944207258,-111.49136308450569L-13.696004944207262,-119.65613958367061zM-30.788990697610103,-119.65613958367061L-30.788990697610103,-111.49136308450569L-22.24249782090868,-119.65613958367061zM-22.24249782090868,-119.65613958367061L-22.242497820908685,-111.49136308450569L-13.696004944207262,-119.65613958367061z" style="fill:rgb(0,0,291)"/><path d="M13.835097889720693,232.8758790229489L22.381590766422114,232.87587902294888L22.381590766422114,224.71110252378395zM22.381590766422114,232.87587902294888L30.92808364312354,232.8758790229489L30.928083643123532,224.71110252378392zM90.59398736565811,158.08556056882696L99.14048024235952,158.08556056882696L99.14048024235953,149.920784069662zM99.14048024235952,158.08556056882696L107.68697311906094,158.08556056882696L107.68697311906094,149.920784069662zM59.33916718710317,177.129145891073L67.8856600638046,177.129145891073L67.8856600638046,168.96436939190806zM67.8856600638046,177.129145891073L76.43215294050601,177.129145891073L76.43215294050601,168.96436939190804zM-17.345832463222045,245.7501016434237L-8.799339586520622,245.7501016434237L-8.799339586520622,237.58532514425883zM-8.799339586520622,245.7501016434237L-0.2528467098192006,245.7501016434237L-0.2528467098192023,237.58532514425883zM13.83509788972069,224.71110252378392L13.835097889720693,232.8758790229489L22.381590766422114,224.71110252378395zM22.381590766422114,224.71110252378395L22.381590766422114,232.87587902294888L30.928083643123532,224.71110252378392zM90.59398736565812,149.920784069662L90.59398736565811,158.08556056882696L99.14048024235953,149.920784069662zM99.14048024235953,149.920784069662L99.14048024235952,158.08556056882696L107.68697311906094,149.920784069662zM59.33916718710317,168.96436939190806L59.33916718710317,177.129145891073L67.8856600638046,168.96436939190806zM67.8856600638046,168.96436939190806L67.8856600638046,177.129145891073L76.43215294050601,168.96436939190804zM-17.345832463222045,237.5853251442588L-17.345832463222045,245.7501016434237L-8.799339586520622,237.58532514425883zM-8.799339586520622,237.58532514425883L-8.799339586520622,245.7501016434237L-0.2528467098192023,237.58532514425883zM13.83509788972069,224.71110252378392L22.381590766422114,224.71110252378395L22.381590766422114,216.546326024619zM22.381590766422114,224.71110252378395L30.928083643123532,224.71110252378392L30.928083643123525,216.546326024619z" style="fill:rgb(291,0,0)"/><path d="M90.7837078443759,108.4370817937125L99.3302007210773,108.43708179371254L99.33020072107732,100.27230529454758zM99.3302007210773,108.43708179371254L107.87669359777873,108.4370817937125L107.87669359777873,100.27230529454758z" style="fill:rgb(0,0,291)"/><path d="M90.59398736565812,149.920784069662L99.14048024235953,149.920784069662L99.14048024235953,141.75600757049708zM99.14048024235953,149.920784069662L107.68697311906094,149.920784069662L107.68697311906094,141.75600757049708z" style="fill:rgb(291,0,0)"/><path d="M67.97760685145488,124.11049847748207L76.52409972815629,124.11049847748207L76.5240997281563,115.94572197831712zM76.52409972815629,124.11049847748207L85.07059260485772,124.11049847748207L85.07059260485772,115.94572197831712z" style="fill:rgb(0,0,291)"/><path d="M59.33916718710317,168.96436939190806L67.8856600638046,168.96436939190806L67.8856600638046,160.7995928927431zM67.8856600638046,168.96436939190806L76.43215294050601,168.96436939190804L76.43215294050601,160.7995928927431zM-17.345832463222045,237.5853251442588L-8.799339586520622,237.58532514425883L-8.79933958652062,229.42054864509387zM-8.799339586520622,237.58532514425883L-0.2528467098192023,237.58532514425883L-0.2528467098192041,229.42054864509385zM13.835097889720686,216.54632602461902L13.83509788972069,224.71110252378392L22.381590766422114,216.546326024619zM22.381590766422114,216.546326024619L22.381590766422114,224.71110252378395L30.928083643123525,216.546326024619z" style="fill:rgb(291,0,0)"/><path d="M69.86496209411963,110.81886829779613L78.41145497082105,110.81886829779613L78.41145497082107,102.65409179863117zM78.41145497082105,110.81886829779613L86.95794784752249,110.81886829779613L86.95794784752248,102.65409179863117zM90.78370784437591,100.27230529454758L90.7837078443759,108.4370817937125L99.33020072107732,100.27230529454758zM99.33020072107732,100.27230529454758L99.3302007210773,108.43708179371254L107.87669359777873,100.27230529454758z" style="fill:rgb(0,0,291)"/><path d="M90.59398736565811,141.75600757049708L90.59398736565812,149.920784069662L99.14048024235953,141.75600757049708zM99.14048024235953,141.75600757049708L99.14048024235953,149.920784069662L107.68697311906094,141.75600757049708z" style="fill:rgb(291,0,0)"/><path d="M67.97760685145488,115.94572197831712L67.97760685145488,124.11049847748207L76.5240997281563,115.94572197831712zM76.5240997281563,115.94572197831712L76.52409972815629,124.11049847748207L85.07059260485772,115.94572197831712z" style="fill:rgb(0,0,291)"/><path d="M59.33916718710317,160.7995928927431L59.33916718710317,168.96436939190806L67.8856600638046,160.7995928927431zM67.8856600638046,160.7995928927431L67.8856600638046,168.96436939190806L76.43215294050601,160.7995928927431zM-17.345832463222045,229.42054864509387L-17.345832463222045,237.5853251442588L-8.79933958652062,229.42054864509387zM-8.79933958652062,229.42054864509387L-8.799339586520622,237.58532514425883L-0.2528467098192041,229.42054864509385z" style="fill:rgb(291,0,0)"/><path d="M69.86496209411963,102.65409179863117L69.86496209411963,110.81886829779613L78.41145497082107,102.65409179863117zM78.41145497082107,102.65409179863117L78.41145497082105,110.81886829779613L86.95794784752248,102.65409179863117zM90.78370784437591,100.27230529454758L99.33020072107732,100.27230529454758L99.33020072107732,92.10752879538263zM99.33020072107732,100.27230529454758L107.87669359777873,100.27230529454758L107.87669359777873,92.10752879538265zM67.97760685145488,115.94572197831712L76.5240997281563,115.94572197831712L76.5240997281563,107.7809454791522zM76.5240997281563,115.94572197831712L85.07059260485772,115.94572197831712L85.07059260485772,107.7809454791522zM69.86496209411963,102.65409179863117L78.41145497082107,102.65409179863117L78.41145497082107,94.48931529946623zM78.41145497082107,102.65409179863117L86.95794784752248,102.65409179863117L86.95794784752249,94.48931529946621zM-57.99547793996614,172.74436196721823L-49.448985063264715,172.74436196721823L-49.448985063264715,164.57958546805332zM-49.448985063264715,172.74436196721823L-40.9024921865633,172.74436196721823L-40.9024921865633,164.57958546805332zM90.7837078443759,92.10752879538263L90.78370784437591,100.27230529454758L99.33020072107732,92.10752879538263zM99.33020072107732,92.10752879538263L99.33020072107732,100.27230529454758L107.87669359777873,92.10752879538265zM67.97760685145488,107.7809454791522L67.97760685145488,115.94572197831712L76.5240997281563,107.7809454791522zM76.5240997281563,107.7809454791522L76.5240997281563,115.94572197831712L85.07059260485772,107.7809454791522zM69.86496209411963,94.48931529946623L69.86496209411963,102.65409179863117L78.41145497082107,94.48931529946623zM78.41145497082107,94.48931529946623L78.41145497082107,102.65409179863117L86.95794784752249,94.48931529946621zM-57.995477939966136,164.57958546805332L-57.99547793996614,172.74436196721823L-49.448985063264715,164.57958546805332zM-49.448985063264715,164.57958546805332L-49.448985063264715,172.74436196721823L-40.9024921865633,164.57958546805332zM-57.995477939966136,164.57958546805332L-49.448985063264715,164.57958546805332L-49.448985063264715,156.41480896888837zM-49.448985063264715,164.57958546805332L-40.9024921865633,164.57958546805332L-40.9024921865633,156.41480896888837zM-57.99547793996614,156.41480896888837L-57.995477939966136,164.57958546805332L-49.448985063264715,156.41480896888837zM-49.448985063264715,156.41480896888837L-49.448985063264715,164.57958546805332L-40.9024921865633,156.41480896888837z" style="fill:rgb(0,0,291)"/><path d="M107.94807183142348,194.241730402106L116.4945647081249,194.241730402106L116.4945647081249,186.07695390294103zM116.4945647081249,194.241730402106L125.04105758482632,194.241730402106L125.04105758482632,186.07695390294103zM85.25904721639114,209.9086875809469L93.80554009309256,209.90868758094683L93.80554009309256,201.74391108178193zM93.80554009309256,209.90868758094683L102.35203296979397,209.9086875809469L102.35203296979395,201.74391108178193zM107.94807183142348,186.07695390294103L107.94807183142348,194.241730402106L116.4945647081249,186.07695390294103zM116.4945647081249,186.07695390294103L116.4945647081249,194.241730402106L125.04105758482632,186.07695390294103zM59.46134211528731,216.27410790295843L68.00783499198873,216.27410790295843L68.00783499198873,208.1093314037935zM68.00783499198873,216.27410790295843L76.55432786869017,216.27410790295843L76.55432786869017,208.1093314037935zM85.25904721639114,201.74391108178193L85.25904721639114,209.9086875809469L93.80554009309256,201.74391108178193zM93.80554009309256,201.74391108178193L93.80554009309256,209.90868758094683L102.35203296979395,201.74391108178193zM59.46134211528731,208.1093314037935L59.46134211528731,216.27410790295843L68.00783499198873,208.1093314037935zM68.00783499198873,208.1093314037935L68.00783499198873,216.27410790295843L76.55432786869017,208.1093314037935zM107.94807183142348,186.07695390294103L116.4945647081249,186.07695390294103L116.49456470812491,177.91217740377607zM116.4945647081249,186.07695390294103L125.04105758482632,186.07695390294103L125.04105758482632,177.91217740377607zM85.25904721639114,201.74391108178193L93.80554009309256,201.74391108178193L93.80554009309257,193.57913458261697zM93.80554009309256,201.74391108178193L102.35203296979395,201.74391108178193L102.35203296979397,193.579134582617z" style="fill:rgb(291,0,0)"/><path d="M74.84802209117882,159.611783946733L83.39451496788023,159.611783946733L83.39451496788023,151.44700744756804zM83.39451496788023,159.611783946733L91.94100784458166,159.61178394673297L91.94100784458165,151.44700744756804z" style="fill:rgb(0,0,291)"/><path d="M27.535427674133974,198.35838861494904L36.08192055083539,198.35838861494904L36.08192055083539,190.1936121157841zM36.08192055083539,198.35838861494904L44.62841342753682,198.35838861494904L44.62841342753682,190.19361211578408zM107.94807183142346,177.91217740377607L107.94807183142348,186.07695390294103L116.49456470812491,177.91217740377607zM116.49456470812491,177.91217740377607L116.4945647081249,186.07695390294103L125.04105758482632,177.91217740377607zM59.46134211528731,208.1093314037935L68.00783499198873,208.1093314037935L68.00783499198872,199.94455490462855zM68.00783499198873,208.1093314037935L76.55432786869017,208.1093314037935L76.55432786869017,199.94455490462855zM85.25904721639114,193.579134582617L85.25904721639114,201.74391108178193L93.80554009309257,193.57913458261697zM93.80554009309257,193.57913458261697L93.80554009309256,201.74391108178193L102.35203296979397,193.579134582617z" style="fill:rgb(291,0,0)"/><path d="M74.84802209117882,151.44700744756804L74.84802209117882,159.611783946733L83.39451496788023,151.44700744756804zM83.39451496788023,151.44700744756804L83.39451496788023,159.611783946733L91.94100784458165,151.44700744756804z" style="fill:rgb(0,0,291)"/><path d="M27.535427674133967,190.19361211578408L27.535427674133974,198.35838861494904L36.08192055083539,190.1936121157841zM36.08192055083539,190.1936121157841L36.08192055083539,198.35838861494904L44.62841342753682,190.19361211578408zM59.46134211528731,199.94455490462855L59.46134211528731,208.1093314037935L68.00783499198872,199.94455490462855zM68.00783499198872,199.94455490462855L68.00783499198873,208.1093314037935L76.55432786869017,199.94455490462855z" style="fill:rgb(291,0,0)"/><path d="M74.84802209117882,151.44700744756804L83.39451496788023,151.44700744756804L83.39451496788023,143.28223094840308zM83.39451496788023,151.44700744756804L91.94100784458165,151.44700744756804L91.94100784458165,143.28223094840308z" style="fill:rgb(0,0,291)"/><path d="M27.535427674133967,190.19361211578408L36.08192055083539,190.1936121157841L36.08192055083539,182.02883561661915zM36.08192055083539,190.1936121157841L44.62841342753682,190.19361211578408L44.62841342753681,182.02883561661915z" style="fill:rgb(291,0,0)"/><path d="M74.84802209117882,143.28223094840308L74.84802209117882,151.44700744756804L83.39451496788023,143.28223094840308zM83.39451496788023,143.28223094840308L83.39451496788023,151.44700744756804L91.94100784458165,143.28223094840308z" style="fill:rgb(0,0,291)"/><path d="M27.535427674133974,182.02883561661915L27.535427674133967,190.19361211578408L36.08192055083539,182.02883561661915zM36.08192055083539,182.02883561661915L36.08192055083539,190.1936121157841L44.62841342753681,182.02883561661915z" style="fill:rgb(291,0,0)"/><text x="138.49936994672774" y="259.73483323063687" z="-0.9915550120458925" font-family="Verdana" font-size="12" fill="rgb(0,0,0)">timepoint</text><path d="M31.52200819749469,63.95299816442836L40.06850107419611,63.95299816442835L40.06850107419611,55.788221665263414zM40.06850107419611,63.95299816442835L48.61499395089752,63.95299816442836L48.61499395089753,55.78822166526343zM31.52200819749468,55.788221665263414L31.52200819749469,63.95299816442836L40.06850107419611,55.788221665263414zM40.06850107419611,55.788221665263414L40.06850107419611,63.95299816442835L48.61499395089753,55.78822166526343zM31.52200819749468,55.788221665263414L40.06850107419611,55.788221665263414L40.06850107419611,47.623445166098485zM40.06850107419611,55.788221665263414L48.61499395089753,55.78822166526343L48.61499395089752,47.623445166098485zM31.52200819749469,47.623445166098485L31.52200819749468,55.788221665263414L40.06850107419611,47.623445166098485zM40.06850107419611,47.623445166098485L40.06850107419611,55.788221665263414L48.61499395089752,47.623445166098485zM-103.65330187702727,101.58839639982983L-95.10680900032587,101.58839639982983L-95.10680900032587,93.42361990066487zM-95.10680900032587,101.58839639982983L-86.56031612362443,101.58839639982983L-86.56031612362445,93.42361990066487zM-76.3500875953511,63.99483849168808L-67.80359471864969,63.99483849168807L-67.80359471864969,55.83006199252314zM-67.80359471864969,63.99483849168807L-59.25710184194824,63.99483849168807L-59.25710184194825,55.83006199252314zM-103.65330187702727,93.42361990066487L-103.65330187702727,101.58839639982983L-95.10680900032587,93.42361990066487zM-95.10680900032587,93.42361990066487L-95.10680900032587,101.58839639982983L-86.56031612362445,93.42361990066487zM-76.3500875953511,55.83006199252314L-76.3500875953511,63.99483849168808L-67.80359471864969,55.83006199252314zM-67.80359471864969,55.83006199252314L-67.80359471864969,63.99483849168807L-59.25710184194825,55.83006199252314zM-103.65330187702727,93.42361990066487L-95.10680900032587,93.42361990066487L-95.10680900032585,85.25884340149996zM-95.10680900032587,93.42361990066487L-86.56031612362445,93.42361990066487L-86.56031612362445,85.25884340149996zM-76.3500875953511,55.83006199252314L-67.80359471864969,55.83006199252314L-67.80359471864968,47.6652854933582zM-67.80359471864969,55.83006199252314L-59.25710184194825,55.83006199252314L-59.25710184194824,47.6652854933582zM-103.65330187702727,85.25884340149996L-103.65330187702727,93.42361990066487L-95.10680900032585,85.25884340149996zM-95.10680900032585,85.25884340149996L-95.10680900032587,93.42361990066487L-86.56031612362445,85.25884340149996zM-76.3500875953511,47.6652854933582L-76.3500875953511,55.83006199252314L-67.80359471864968,47.6652854933582zM-67.80359471864968,47.6652854933582L-67.80359471864969,55.83006199252314L-59.25710184194824,47.6652854933582z" style="fill:rgb(0,0,291)"/></svg>