<svg xmlns="http://www.w3.org/2000/svg" viewBox="-506 -325 1012 650" width="1012" height="650" style="background-color: rgb(255, 255, 255);"><rect id="background" height="650" width="1012" y="-325" x="-506" stroke-width="0" stroke="#000000" fill="#ffffff"/><text x="-348.88142516185513" y="-255.11928647826105" z="-0.9894833652833003" font-family="Verdana" font-size="12" fill="rgb(0,0,0)">Axis 1 (52.93 %)</text><path d="M405.4241664838208,237.1986865553548L-348.88142516185513,230.91209991706637M-348.88142516185513,-255.11928647826105L-348.88142516185513,230.91209991706637M-395.2020976530581,249.58689227125848L-348.88142516185513,230.91209991706637" style="fill:none;stroke:rgb(0,0,0);stroke-width:3;stroke-linecap:round"/><path d="M-348.0478427427506,78.72041808951575L-339.5013498660492,78.72041808951575L-339.5013498660492,70.55564159035079zM-339.5013498660492,78.72041808951575L-330.9548569893478,78.72041808951573L-330.9548569893478,70.55564159035079zM-348.0478427427506,70.55564159035079L-348.0478427427506,78.72041808951575L-339.5013498660492,70.55564159035079zM-339.5013498660492,70.55564159035079L-339.5013498660492,78.72041808951575L-330.9548569893478,70.55564159035079zM-348.0478427427506,70.55564159035079L-339.5013498660492,70.55564159035079L-339.5013498660492,62.39086509118585zM-339.5013498660492,70.55564159035079L-330.9548569893478,70.55564159035079L-330.9548569893478,62.39086509118585zM-348.0478427427506,62.39086509118585L-348.0478427427506,70.55564159035079L-339.5013498660492,62.39086509118585zM-339.5013498660492,62.39086509118585L-339.5013498660492,70.55564159035079L-330.9548569893478,62.39086509118585z" style="fill:rgb(290,0,0)"/><path d="M-204.2322662966754,-167.33718453062087L-195.68577341997397,-167.33718453062087L-195.68577341997397,-175.50196102978583zM-195.68577341997397,-167.33718453062087L-187.13928054327252,-167.33718453062087L-187.13928054327252,-175.5019610297858zM-204.2322662966754,-175.5019610297858L-204.2322662966754,-167.33718453062087L-195.68577341997397,-175.50196102978583zM-195.68577341997397,-175.50196102978583L-195.68577341997397,-167.33718453062087L-187.13928054327252,-175.5019610297858zM-204.2322662966754,-175.5019610297858L-195.68577341997397,-175.50196102978583L-195.68577341997397,-183.6667375289507zM-195.68577341997397,-175.50196102978583L-187.13928054327252,-175.5019610297858L-187.13928054327252,-183.66673752895076zM-204.2322662966754,-183.66673752895076L-204.2322662966754,-175.5019610297858L-195.68577341997397,-183.6667375289507zM-195.68577341997397,-183.6667375289507L-195.68577341997397,-175.50196102978583L-187.13928054327252,-183.66673752895076z" style="fill:rgb(0,0,290)"/><path d="M-62.871917948296485,16.043082357754802L-54.325425071595056,16.0430823577548L-54.32542507159504,7.878305858589863zM-54.325425071595056,16.0430823577548L-45.77893219489363,16.043082357754802L-45.77893219489363,7.878305858589863zM-62.871917948296485,7.878305858589863L-62.871917948296485,16.043082357754802L-54.32542507159504,7.878305858589863zM-54.32542507159504,7.878305858589863L-54.325425071595056,16.0430823577548L-45.77893219489363,7.878305858589863zM-62.871917948296485,7.878305858589863L-54.32542507159504,7.878305858589863L-54.325425071595056,-0.28647064057507227zM-54.32542507159504,7.878305858589863L-45.77893219489363,7.878305858589863L-45.77893219489363,-0.28647064057507227zM-62.871917948296485,-0.28647064057507676L-62.871917948296485,7.878305858589863L-54.325425071595056,-0.28647064057507227zM-54.325425071595056,-0.28647064057507227L-54.32542507159504,7.878305858589863L-45.77893219489363,-0.28647064057507227z" style="fill:rgb(290,0,0)"/><text x="405.4241664838208" y="237.1986865553548" z="-0.9897946063354941" font-family="Verdana" font-size="12" fill="rgb(0,0,0)">timepoint</text><path d="M-350.621616770827,-195.19878045421265L-342.07512389412557,-195.1987804542126L-342.07512389412557,-203.36355695337755zM-342.07512389412557,-195.1987804542126L-333.5286310174242,-195.19878045421265L-333.5286310174242,-203.36355695337755zM-350.621616770827,-203.36355695337755L-350.621616770827,-195.19878045421265L-342.07512389412557,-203.36355695337755zM-342.07512389412557,-203.36355695337755L-342.07512389412557,-195.1987804542126L-333.5286310174242,-203.36355695337755zM-350.621616770827,-203.36355695337755L-342.07512389412557,-203.36355695337755L-342.07512389412557,-211.5283334525425zM-342.07512389412557,-203.36355695337755L-333.5286310174242,-203.36355695337755L-333.5286310174242,-211.5283334525425zM-350.621616770827,-211.5283334525425L-350.621616770827,-203.36355695337755L-342.07512389412557,-211.5283334525425zM-342.07512389412557,-211.5283334525425L-342.07512389412557,-203.36355695337755L-333.5286310174242,-211.5283334525425zM-209.82802180841207,-92.54805746692067L-201.28152893171065,-92.54805746692067L-201.28152893171062,-100.71283396608558zM-201.28152893171065,-92.54805746692067L-192.73503605500926,-92.54805746692067L-192.73503605500926,-100.71283396608558zM-209.82802180841207,-100.71283396608558L-209.82802180841207,-92.54805746692067L-201.28152893171062,-100.71283396608558zM-201.28152893171062,-100.71283396608558L-201.28152893171065,-92.54805746692067L-192.73503605500926,-100.71283396608558zM-209.82802180841207,-100.71283396608558L-201.28152893171062,-100.71283396608558L-201.28152893171062,-108.87761046525051zM-201.28152893171062,-100.71283396608558L-192.73503605500926,-100.71283396608558L-192.73503605500923,-108.87761046525051zM-66.79729356736843,-43.51366299131437L-58.25080069066699,-43.51366299131437L-58.25080069066699,-51.678439490479306zM-58.25080069066699,-43.51366299131437L-49.704307813965585,-43.51366299131437L-49.70430781396557,-51.678439490479306zM-209.82802180841207,-108.87761046525051L-209.82802180841207,-100.71283396608558L-201.28152893171062,-108.87761046525051zM-201.28152893171062,-108.87761046525051L-201.28152893171062,-100.71283396608558L-192.73503605500923,-108.87761046525051zM-66.79729356736843,-51.6784394904793L-66.79729356736843,-43.51366299131437L-58.25080069066699,-51.678439490479306zM-58.25080069066699,-51.678439490479306L-58.25080069066699,-43.51366299131437L-49.70430781396557,-51.678439490479306zM-66.79729356736843,-51.6784394904793L-58.25080069066699,-51.678439490479306L-58.250800690667006,-59.84321598964424zM-58.25080069066699,-51.678439490479306L-49.70430781396557,-51.678439490479306L-49.70430781396557,-59.84321598964423zM-66.79729356736843,-59.84321598964423L-66.79729356736843,-51.6784394904793L-58.250800690667006,-59.84321598964424zM-58.250800690667006,-59.84321598964424L-58.25080069066699,-51.678439490479306L-49.70430781396557,-59.84321598964423zM-355.4802684180174,-224.1260818992547L-346.9337755413159,-224.12608189925467L-346.9337755413159,-232.2908583984196zM-346.9337755413159,-224.12608189925467L-338.3872826646145,-224.1260818992547L-338.3872826646145,-232.29085839841963zM-355.4802684180174,-232.29085839841963L-355.4802684180174,-224.1260818992547L-346.9337755413159,-232.2908583984196zM-346.9337755413159,-232.2908583984196L-346.9337755413159,-224.12608189925467L-338.3872826646145,-232.29085839841963z" style="fill:rgb(0,0,290)"/><path d="M-356.99844861795845,-77.76747853271155L-348.451955741257,-77.76747853271155L-348.451955741257,-85.93225503187648zM-348.451955741257,-77.76747853271155L-339.9054628645556,-77.76747853271155L-339.9054628645556,-85.93225503187648z" style="fill:rgb(290,0,0)"/><path d="M-355.4802684180174,-232.29085839841963L-346.9337755413159,-232.2908583984196L-346.93377554131587,-240.4556348975846zM-346.9337755413159,-232.2908583984196L-338.3872826646145,-232.29085839841963L-338.3872826646145,-240.45563489758456z" style="fill:rgb(0,0,290)"/><path d="M-356.99844861795845,-85.93225503187645L-356.99844861795845,-77.76747853271155L-348.451955741257,-85.93225503187648zM-348.451955741257,-85.93225503187648L-348.451955741257,-77.76747853271155L-339.9054628645556,-85.93225503187648z" style="fill:rgb(290,0,0)"/><path d="M-355.4802684180174,-240.45563489758456L-355.4802684180174,-232.29085839841963L-346.93377554131587,-240.4556348975846zM-346.93377554131587,-240.4556348975846L-346.9337755413159,-232.2908583984196L-338.3872826646145,-240.45563489758456z" style="fill:rgb(0,0,290)"/><path d="M-356.99844861795845,-85.93225503187645L-348.451955741257,-85.93225503187648L-348.451955741257,-94.09703153104141zM-348.451955741257,-85.93225503187648L-339.9054628645556,-85.93225503187648L-339.9054628645556,-94.09703153104141zM-356.99844861795845,-94.09703153104141L-356.99844861795845,-85.93225503187645L-348.451955741257,-94.09703153104141zM-348.451955741257,-94.09703153104141L-348.451955741257,-85.93225503187648L-339.9054628645556,-94.09703153104141zM215.74119493922635,144.49150988156964L224.28768781592785,144.49150988156964L224.28768781592785,136.3267333824047zM224.28768781592785,144.49150988156964L232.8341806926293,144.49150988156964L232.83418069262925,136.3267333824047zM215.7411949392264,136.3267333824047L215.74119493922635,144.49150988156964L224.28768781592785,136.3267333824047zM224.28768781592785,136.3267333824047L224.28768781592785,144.49150988156964L232.83418069262925,136.3267333824047zM215.7411949392264,136.3267333824047L224.28768781592785,136.3267333824047L224.2876878159278,128.16195688323978zM224.28768781592785,136.3267333824047L232.83418069262925,136.3267333824047L232.8341806926293,128.16195688323978z" style="fill:rgb(290,0,0)"/><path d="M215.76822049791082,94.85806686040873L224.31471337461232,94.85806686040873L224.31471337461232,86.69329036124378zM224.31471337461232,94.85806686040873L232.86120625131377,94.85806686040873L232.86120625131372,86.69329036124378z" style="fill:rgb(0,0,290)"/><path d="M215.7411949392264,128.16195688323975L215.7411949392264,136.3267333824047L224.2876878159278,128.16195688323978zM224.2876878159278,128.16195688323978L224.28768781592785,136.3267333824047L232.8341806926293,128.16195688323978z" style="fill:rgb(290,0,0)"/><path d="M215.76822049791087,86.69329036124378L215.76822049791082,94.85806686040873L224.31471337461232,86.69329036124378zM224.31471337461232,86.69329036124378L224.31471337461232,94.85806686040873L232.86120625131372,86.69329036124378zM215.76822049791087,86.69329036124378L224.31471337461232,86.69329036124378L224.31471337461227,78.52851386207884zM224.31471337461232,86.69329036124378L232.86120625131372,86.69329036124378L232.86120625131377,78.52851386207884zM-213.9785075720305,-198.19553768380993L-205.4320146953291,-198.19553768381L-205.4320146953291,-206.3603141829749zM-205.4320146953291,-198.19553768381L-196.88552181862767,-198.19553768380993L-196.8855218186277,-206.3603141829749zM215.76822049791087,78.52851386207884L215.76822049791087,86.69329036124378L224.31471337461227,78.52851386207884zM224.31471337461227,78.52851386207884L224.31471337461232,86.69329036124378L232.86120625131377,78.52851386207884zM-213.9785075720305,-206.3603141829749L-213.9785075720305,-198.19553768380993L-205.4320146953291,-206.3603141829749zM-205.4320146953291,-206.3603141829749L-205.4320146953291,-198.19553768381L-196.8855218186277,-206.3603141829749z" style="fill:rgb(0,0,290)"/><path d="M358.32340027132295,174.31456348430058L366.86989314802446,174.31456348430058L366.86989314802446,166.14978698513565zM366.86989314802446,174.31456348430058L375.41638602472585,174.31456348430058L375.41638602472585,166.14978698513565zM358.32340027132307,166.14978698513565L358.32340027132295,174.31456348430058L366.86989314802446,166.14978698513565zM366.86989314802446,166.14978698513565L366.86989314802446,174.31456348430058L375.41638602472585,166.14978698513565z" style="fill:rgb(290,0,0)"/><path d="M-213.9785075720305,-206.3603141829749L-205.4320146953291,-206.3603141829749L-205.4320146953291,-214.52509068213982zM-205.4320146953291,-206.3603141829749L-196.8855218186277,-206.3603141829749L-196.88552181862767,-214.52509068213982zM-213.9785075720305,-214.52509068213982L-213.9785075720305,-206.3603141829749L-205.4320146953291,-214.52509068213982zM-205.4320146953291,-214.52509068213982L-205.4320146953291,-206.3603141829749L-196.88552181862767,-214.52509068213982z" style="fill:rgb(0,0,290)"/><path d="M358.32340027132307,166.14978698513565L366.86989314802446,166.14978698513565L366.86989314802446,157.9850104859707zM366.86989314802446,166.14978698513565L375.41638602472585,166.14978698513565L375.41638602472574,157.9850104859707zM-360.3123380848181,9.032039516381708L-351.7658452081167,9.03203951638171L-351.7658452081167,0.8672630172167726zM-351.7658452081167,9.03203951638171L-343.2193523314153,9.03203951638171L-343.2193523314153,0.8672630172167726zM358.32340027132295,157.9850104859707L358.32340027132307,166.14978698513565L366.86989314802446,157.9850104859707zM366.86989314802446,157.9850104859707L366.86989314802446,166.14978698513565L375.41638602472574,157.9850104859707zM-360.3123380848181,0.8672630172167726L-360.3123380848181,9.032039516381708L-351.7658452081167,0.8672630172167726zM-351.7658452081167,0.8672630172167726L-351.7658452081167,9.03203951638171L-343.2193523314153,0.8672630172167726zM-360.3123380848181,0.8672630172167726L-351.7658452081167,0.8672630172167726L-351.7658452081167,-7.297513481948167zM-351.7658452081167,0.8672630172167726L-343.2193523314153,0.8672630172167726L-343.2193523314153,-7.297513481948163zM-360.3123380848181,-7.297513481948163L-360.3123380848181,0.8672630172167726L-351.7658452081167,-7.297513481948167zM-351.7658452081167,-7.297513481948167L-351.7658452081167,0.8672630172167726L-343.2193523314153,-7.297513481948163zM-361.7410564676595,-0.4645620060090567L-353.19456359095807,-0.4645620060090567L-353.19456359095807,-8.629338505173992zM-353.19456359095807,-0.4645620060090567L-344.6480707142567,-0.46456200600905223L-344.6480707142567,-8.629338505173992zM-361.7410564676595,-8.629338505173997L-361.7410564676595,-0.4645620060090567L-353.19456359095807,-8.629338505173992zM-353.19456359095807,-8.629338505173992L-353.19456359095807,-0.4645620060090567L-344.6480707142567,-8.629338505173992z" style="fill:rgb(290,0,0)"/><path d="M212.78835878398465,98.39607023925267L221.3348516606861,98.39607023925267L221.33485166068616,90.23129374008772zM221.3348516606861,98.39607023925267L229.88134453738758,98.39607023925267L229.88134453738752,90.23129374008772z" style="fill:rgb(0,0,290)"/><path d="M-361.7410564676595,-8.629338505173997L-353.19456359095807,-8.629338505173992L-353.19456359095807,-16.794115004338927zM-353.19456359095807,-8.629338505173992L-344.6480707142567,-8.629338505173992L-344.6480707142567,-16.794115004338927z" style="fill:rgb(290,0,0)"/><path d="M212.78835878398465,90.23129374008774L212.78835878398465,98.39607023925267L221.33485166068616,90.23129374008772zM221.33485166068616,90.23129374008772L221.3348516606861,98.39607023925267L229.88134453738752,90.23129374008772zM212.51950625834385,111.78529289154221L221.0659991350453,111.78529289154221L221.0659991350453,103.6205163923773zM221.0659991350453,111.78529289154221L229.61249201174675,111.78529289154221L229.6124920117467,103.6205163923773z" style="fill:rgb(0,0,290)"/><path d="M-361.74105646765946,-16.794115004338927L-361.7410564676595,-8.629338505173997L-353.19456359095807,-16.794115004338927zM-353.19456359095807,-16.794115004338927L-353.19456359095807,-8.629338505173992L-344.6480707142567,-16.794115004338927z" style="fill:rgb(290,0,0)"/><path d="M212.51950625834385,103.6205163923773L212.51950625834385,111.78529289154221L221.0659991350453,103.6205163923773zM221.0659991350453,103.6205163923773L221.0659991350453,111.78529289154221L229.6124920117467,103.6205163923773zM212.78835878398465,90.23129374008774L221.33485166068616,90.23129374008772L221.3348516606861,82.06651724092279zM221.33485166068616,90.23129374008772L229.88134453738752,90.23129374008772L229.88134453738758,82.06651724092279zM212.7883587839847,82.06651724092279L212.78835878398465,90.23129374008774L221.3348516606861,82.06651724092279zM221.3348516606861,82.06651724092279L221.33485166068616,90.23129374008772L229.88134453738758,82.06651724092279zM212.51950625834385,103.6205163923773L221.0659991350453,103.6205163923773L221.06599913504525,95.45573989321235zM221.0659991350453,103.6205163923773L229.6124920117467,103.6205163923773L229.61249201174675,95.45573989321235zM-217.99650046042174,-89.41795028711789L-209.4500075837203,-89.41795028711789L-209.4500075837203,-97.58272678628285zM-209.4500075837203,-89.41795028711789L-200.90351470701887,-89.41795028711789L-200.90351470701887,-97.58272678628285zM212.51950625834385,95.45573989321235L212.51950625834385,103.6205163923773L221.06599913504525,95.45573989321235zM221.06599913504525,95.45573989321235L221.0659991350453,103.6205163923773L229.61249201174675,95.45573989321235zM-217.99650046042174,-97.58272678628285L-217.99650046042174,-89.41795028711789L-209.4500075837203,-97.58272678628285zM-209.4500075837203,-97.58272678628285L-209.4500075837203,-89.41795028711789L-200.90351470701887,-97.58272678628285z" style="fill:rgb(0,0,290)"/><path d="M355.091363485569,191.2288554541241L363.6378563622704,191.22885545412407L363.6378563622704,183.06407895495914zM363.6378563622704,191.22885545412407L372.1843492389719,191.2288554541241L372.1843492389719,183.06407895495914zM211.2889661518201,165.25464204174432L219.8354590285216,165.25464204174432L219.8354590285216,157.08986554257942zM219.8354590285216,165.25464204174432L228.38195190522305,165.25464204174432L228.381951905223,157.08986554257942zM355.091363485569,183.06407895495914L355.091363485569,191.2288554541241L363.6378563622704,183.06407895495914zM363.6378563622704,183.06407895495914L363.6378563622704,191.22885545412407L372.1843492389719,183.06407895495914z" style="fill:rgb(290,0,0)"/><path d="M-217.99650046042174,-97.58272678628285L-209.4500075837203,-97.58272678628285L-209.4500075837203,-105.7475032854478zM-209.4500075837203,-97.58272678628285L-200.90351470701887,-97.58272678628285L-200.90351470701887,-105.7475032854478z" style="fill:rgb(0,0,290)"/><path d="M211.28896615182015,157.08986554257942L211.2889661518201,165.25464204174432L219.8354590285216,157.08986554257942zM219.8354590285216,157.08986554257942L219.8354590285216,165.25464204174432L228.381951905223,157.08986554257942z" style="fill:rgb(290,0,0)"/><path d="M-217.99650046042174,-105.7475032854478L-217.99650046042174,-97.58272678628285L-209.4500075837203,-105.7475032854478zM-209.4500075837203,-105.7475032854478L-209.4500075837203,-97.58272678628285L-200.90351470701887,-105.7475032854478z" style="fill:rgb(0,0,290)"/><path d="M355.091363485569,183.06407895495914L363.6378563622704,183.06407895495914L363.6378563622704,174.89930245579419zM363.6378563622704,183.06407895495914L372.1843492389719,183.06407895495914L372.1843492389718,174.89930245579424zM211.28896615182015,157.08986554257942L219.8354590285216,157.08986554257942L219.83545902852154,148.92508904341446zM219.8354590285216,157.08986554257942L228.381951905223,157.08986554257942L228.38195190522305,148.92508904341446zM355.091363485569,174.89930245579419L355.091363485569,183.06407895495914L363.6378563622704,174.89930245579419zM363.6378563622704,174.89930245579419L363.6378563622704,183.06407895495914L372.1843492389718,174.89930245579424zM211.28896615182015,148.92508904341446L211.28896615182015,157.08986554257942L219.83545902852154,148.92508904341446zM219.83545902852154,148.92508904341446L219.8354590285216,157.08986554257942L228.38195190522305,148.92508904341446z" style="fill:rgb(290,0,0)"/><path d="M353.6083197341068,141.5338641339669L362.1548126108083,141.53386413396694L362.1548126108083,133.36908763480199zM362.1548126108083,141.53386413396694L370.70130548750967,141.5338641339669L370.7013054875098,133.36908763480199zM353.6083197341069,133.36908763480199L353.6083197341068,141.5338641339669L362.1548126108083,133.36908763480199zM362.1548126108083,133.36908763480199L362.1548126108083,141.53386413396694L370.7013054875098,133.36908763480199zM353.6083197341069,133.36908763480199L362.1548126108083,133.36908763480199L362.1548126108083,125.20431113563706zM362.1548126108083,133.36908763480199L370.7013054875098,133.36908763480199L370.70130548750967,125.20431113563706zM353.6083197341068,125.20431113563701L353.6083197341069,133.36908763480199L362.1548126108083,125.20431113563706zM362.1548126108083,125.20431113563706L362.1548126108083,133.36908763480199L370.70130548750967,125.20431113563706zM-366.0469385880823,35.06520274193858L-357.5004457113809,35.06520274193858L-357.5004457113809,26.90042624277364zM-357.5004457113809,35.06520274193858L-348.9539528346795,35.06520274193858L-348.9539528346795,26.90042624277364zM-366.0469385880823,26.90042624277364L-366.0469385880823,35.06520274193858L-357.5004457113809,26.90042624277364zM-357.5004457113809,26.90042624277364L-357.5004457113809,35.06520274193858L-348.9539528346795,26.90042624277364zM-77.55750569939715,-66.60044506403415L-69.01101282269572,-66.60044506403415L-69.01101282269572,-74.76522156319906zM-69.01101282269572,-66.60044506403415L-60.46451994599431,-66.60044506403412L-60.46451994599431,-74.76522156319906zM-77.55750569939717,-74.76522156319906L-77.55750569939715,-66.60044506403415L-69.01101282269572,-74.76522156319906zM-69.01101282269572,-74.76522156319906L-69.01101282269572,-66.60044506403415L-60.46451994599431,-74.76522156319906zM-366.0469385880823,26.90042624277364L-357.5004457113809,26.90042624277364L-357.5004457113809,18.7356497436087zM-357.5004457113809,26.90042624277364L-348.9539528346795,26.90042624277364L-348.9539528346795,18.7356497436087zM-366.0469385880823,18.7356497436087L-366.0469385880823,26.90042624277364L-357.5004457113809,18.7356497436087zM-357.5004457113809,18.7356497436087L-357.5004457113809,26.90042624277364L-348.9539528346795,18.7356497436087zM-77.55750569939717,-74.76522156319906L-69.01101282269572,-74.76522156319906L-69.01101282269573,-82.929998062364zM-69.01101282269572,-74.76522156319906L-60.46451994599431,-74.76522156319906L-60.4645199459943,-82.92999806236398zM-77.55750569939715,-82.929998062364L-77.55750569939717,-74.76522156319906L-69.01101282269573,-82.929998062364zM-69.01101282269573,-82.929998062364L-69.01101282269572,-74.76522156319906L-60.4645199459943,-82.92999806236398z" style="fill:rgb(0,0,290)"/><path d="M351.4164971883391,199.01839854717517L359.96299006504063,199.01839854717517L359.96299006504063,190.8536220480102zM359.96299006504063,199.01839854717517L368.50948294174196,199.01839854717517L368.50948294174196,190.85362204801027zM351.41649718833924,190.8536220480102L351.4164971883391,199.01839854717517L359.96299006504063,190.8536220480102zM359.96299006504063,190.8536220480102L359.96299006504063,199.01839854717517L368.50948294174196,190.85362204801027z" style="fill:rgb(290,0,0)"/><path d="M65.55956006095052,-55.00398325869139L74.10605293765191,-55.00398325869139L74.10605293765191,-63.168759757856336zM74.10605293765191,-55.00398325869139L82.65254581435332,-55.00398325869138L82.65254581435332,-63.168759757856336zM65.55956006095049,-63.168759757856336L65.55956006095052,-55.00398325869139L74.10605293765191,-63.168759757856336zM74.10605293765191,-63.168759757856336L74.10605293765191,-55.00398325869139L82.65254581435332,-63.168759757856336z" style="fill:rgb(0,0,290)"/><path d="M351.41649718833924,190.8536220480102L359.96299006504063,190.8536220480102L359.96299006504063,182.6888455488453zM359.96299006504063,190.8536220480102L368.50948294174196,190.85362204801027L368.50948294174185,182.6888455488453zM351.4164971883391,182.68884554884525L351.41649718833924,190.8536220480102L359.96299006504063,182.6888455488453zM359.96299006504063,182.6888455488453L359.96299006504063,190.8536220480102L368.50948294174185,182.6888455488453z" style="fill:rgb(290,0,0)"/><path d="M65.55956006095049,-63.168759757856336L74.10605293765191,-63.168759757856336L74.10605293765191,-71.33353625702128zM74.10605293765191,-63.168759757856336L82.65254581435332,-63.168759757856336L82.65254581435332,-71.33353625702125zM65.55956006095049,-71.33353625702128L65.55956006095049,-63.168759757856336L74.10605293765191,-71.33353625702128zM74.10605293765191,-71.33353625702128L74.10605293765191,-63.168759757856336L82.65254581435332,-71.33353625702125z" style="fill:rgb(0,0,290)"/><path d="M-224.02382465261766,36.38479222107268L-215.4773317759162,36.384792221072686L-215.4773317759162,28.220015721907746zM-215.4773317759162,36.384792221072686L-206.93083889921482,36.38479222107268L-206.93083889921482,28.220015721907746zM-224.02382465261766,28.220015721907746L-224.02382465261766,36.38479222107268L-215.4773317759162,28.220015721907746zM-215.4773317759162,28.220015721907746L-215.4773317759162,36.384792221072686L-206.93083889921482,28.220015721907746zM-224.02382465261766,28.220015721907746L-215.4773317759162,28.220015721907746L-215.4773317759162,20.055239222742806zM-215.4773317759162,28.220015721907746L-206.93083889921482,28.220015721907746L-206.93083889921482,20.055239222742806z" style="fill:rgb(290,0,0)"/><path d="M63.13891040924023,69.83855903762922L71.68540328594162,69.83855903762922L71.68540328594165,61.67378253846429zM71.68540328594162,69.83855903762922L80.23189616264307,69.83855903762922L80.23189616264307,61.67378253846429z" style="fill:rgb(0,0,290)"/><path d="M-224.02382465261766,20.055239222742806L-224.02382465261766,28.220015721907746L-215.4773317759162,20.055239222742806zM-215.4773317759162,20.055239222742806L-215.4773317759162,28.220015721907746L-206.93083889921482,20.055239222742806z" style="fill:rgb(290,0,0)"/><path d="M63.138910409240204,61.67378253846428L63.13891040924023,69.83855903762922L71.68540328594165,61.67378253846429zM71.68540328594165,61.67378253846429L71.68540328594162,69.83855903762922L80.23189616264307,61.67378253846429zM63.138910409240204,61.67378253846428L71.68540328594165,61.67378253846429L71.68540328594165,53.50900603929935zM71.68540328594165,61.67378253846429L80.23189616264307,61.67378253846429L80.23189616264307,53.50900603929935z" style="fill:rgb(0,0,290)"/><path d="M-225.08173280677468,67.86352609659178L-216.5352399300733,67.86352609659178L-216.53523993007326,59.698749597426854zM-216.5352399300733,67.86352609659178L-207.98874705337184,67.86352609659178L-207.98874705337184,59.698749597426854z" style="fill:rgb(290,0,0)"/><path d="M63.138910409240204,53.50900603929935L63.138910409240204,61.67378253846428L71.68540328594165,53.50900603929935zM71.68540328594165,53.50900603929935L71.68540328594165,61.67378253846429L80.23189616264307,53.50900603929935z" style="fill:rgb(0,0,290)"/><path d="M-225.08173280677468,59.698749597426854L-225.08173280677468,67.86352609659178L-216.53523993007326,59.698749597426854zM-216.53523993007326,59.698749597426854L-216.5352399300733,67.86352609659178L-207.98874705337184,59.698749597426854zM-225.08173280677468,59.698749597426854L-216.53523993007326,59.698749597426854L-216.53523993007326,51.53397309826191zM-216.53523993007326,59.698749597426854L-207.98874705337184,59.698749597426854L-207.98874705337184,51.53397309826191zM-225.08173280677468,51.53397309826191L-225.08173280677468,59.698749597426854L-216.53523993007326,51.53397309826191zM-216.53523993007326,51.53397309826191L-216.53523993007326,59.698749597426854L-207.98874705337184,51.53397309826191zM204.80694110376234,223.49046254720776L213.3534339804638,223.4904625472078L213.3534339804638,215.32568604804288zM213.3534339804638,223.4904625472078L221.8999268571652,223.49046254720776L221.89992685716516,215.32568604804288zM204.80694110376234,215.32568604804285L204.80694110376234,223.49046254720776L213.3534339804638,215.32568604804288zM213.3534339804638,215.32568604804288L213.3534339804638,223.4904625472078L221.89992685716516,215.32568604804288zM204.80694110376234,215.32568604804285L213.3534339804638,215.32568604804288L213.35343398046373,207.16090954887792zM213.3534339804638,215.32568604804288L221.89992685716516,215.32568604804288L221.8999268571652,207.16090954887795zM204.80694110376234,207.16090954887795L204.80694110376234,215.32568604804285L213.35343398046373,207.16090954887792zM213.35343398046373,207.16090954887792L213.3534339804638,215.32568604804288L221.8999268571652,207.16090954887795zM346.8686714601111,182.87836529534545L355.4151643368126,182.87836529534545L355.4151643368126,174.71358879618055zM355.4151643368126,182.87836529534545L363.961657213514,182.87836529534545L363.961657213514,174.71358879618055zM346.86867146011116,174.71358879618055L346.8686714601111,182.87836529534545L355.4151643368126,174.71358879618055zM355.4151643368126,174.71358879618055L355.4151643368126,182.87836529534545L363.961657213514,174.71358879618055zM346.86867146011116,174.71358879618055L355.4151643368126,174.71358879618055L355.4151643368126,166.5488122970156zM355.4151643368126,174.71358879618055L363.961657213514,174.71358879618055L363.9616572135139,166.54881229701562zM346.8686714601111,166.5488122970156L346.86867146011116,174.71358879618055L355.4151643368126,166.5488122970156zM355.4151643368126,166.5488122970156L355.4151643368126,174.71358879618055L363.9616572135139,166.54881229701562z" style="fill:rgb(290,0,0)"/><path d="M347.4365572603819,48.321517464883776L355.98305013708335,48.321517464883776L355.98305013708335,40.15674096571884zM355.98305013708335,48.321517464883776L364.52954301378486,48.321517464883776L364.52954301378486,40.15674096571884z" style="fill:rgb(0,0,290)"/><path d="M-84.47684581584308,69.33952742253103L-75.93035293914166,69.33952742253103L-75.93035293914164,61.1747509233661zM-75.93035293914166,69.33952742253103L-67.38386006244023,69.33952742253103L-67.38386006244023,61.1747509233661z" style="fill:rgb(290,0,0)"/><path d="M347.43655726038196,40.15674096571884L347.4365572603819,48.321517464883776L355.98305013708335,40.15674096571884zM355.98305013708335,40.15674096571884L355.98305013708335,48.321517464883776L364.52954301378486,40.15674096571884z" style="fill:rgb(0,0,290)"/><path d="M-84.47684581584309,61.1747509233661L-84.47684581584308,69.33952742253103L-75.93035293914164,61.1747509233661zM-75.93035293914164,61.1747509233661L-75.93035293914166,69.33952742253103L-67.38386006244023,61.1747509233661z" style="fill:rgb(290,0,0)"/><path d="M347.43655726038196,40.15674096571884L355.98305013708335,40.15674096571884L355.98305013708335,31.9919644665539zM355.98305013708335,40.15674096571884L364.52954301378486,40.15674096571884L364.52954301378475,31.9919644665539z" style="fill:rgb(0,0,290)"/><path d="M-84.47684581584309,61.1747509233661L-75.93035293914164,61.1747509233661L-75.93035293914166,53.00997442420116zM-75.93035293914164,61.1747509233661L-67.38386006244023,61.1747509233661L-67.38386006244022,53.00997442420116z" style="fill:rgb(290,0,0)"/><path d="M347.4365572603819,31.9919644665539L347.43655726038196,40.15674096571884L355.98305013708335,31.9919644665539zM355.98305013708335,31.9919644665539L355.98305013708335,40.15674096571884L364.52954301378475,31.9919644665539z" style="fill:rgb(0,0,290)"/><path d="M-84.47684581584309,53.00997442420116L-84.47684581584309,61.1747509233661L-75.93035293914166,53.00997442420116zM-75.93035293914166,53.00997442420116L-75.93035293914164,61.1747509233661L-67.38386006244022,53.00997442420116zM58.133032928647744,52.58594382562528L66.67952580534916,52.58594382562528L66.67952580534916,44.421167326460335zM66.67952580534916,52.58594382562528L75.22601868205057,52.58594382562528L75.22601868205057,44.421167326460335zM58.133032928647744,44.421167326460335L58.133032928647744,52.58594382562528L66.67952580534916,44.421167326460335zM66.67952580534916,44.421167326460335L66.67952580534916,52.58594382562528L75.22601868205057,44.421167326460335zM200.3652378739119,238.08331641442155L208.91173075061334,238.08331641442157L208.91173075061334,229.9185399152566zM208.91173075061334,238.08331641442157L217.4582236273148,238.08331641442155L217.45822362731474,229.91853991525662zM200.3652378739119,229.9185399152566L200.3652378739119,238.08331641442155L208.91173075061334,229.9185399152566zM208.91173075061334,229.9185399152566L208.91173075061334,238.08331641442157L217.45822362731474,229.91853991525662zM58.133032928647744,44.421167326460335L66.67952580534916,44.421167326460335L66.67952580534916,36.256390827295405zM66.67952580534916,44.421167326460335L75.22601868205057,44.421167326460335L75.22601868205057,36.256390827295405zM58.133032928647744,36.256390827295405L58.133032928647744,44.421167326460335L66.67952580534916,36.256390827295405zM66.67952580534916,36.256390827295405L66.67952580534916,44.421167326460335L75.22601868205057,36.256390827295405zM200.3652378739119,229.9185399152566L208.91173075061334,229.9185399152566L208.9117307506133,221.75376341609166zM208.91173075061334,229.9185399152566L217.45822362731474,229.91853991525662L217.45822362731485,221.75376341609166zM200.3652378739119,221.75376341609166L200.3652378739119,229.9185399152566L208.9117307506133,221.75376341609166zM208.9117307506133,221.75376341609166L208.91173075061334,229.9185399152566L217.45822362731485,221.75376341609166z" style="fill:rgb(290,0,0)"/><path d="M58.340141437444295,-104.71572081035778L66.88663431414568,-104.71572081035778L66.88663431414568,-112.88049730952271zM66.88663431414568,-104.71572081035778L75.43312719084709,-104.71572081035778L75.43312719084709,-112.88049730952271zM58.34014143744427,-112.88049730952271L58.340141437444295,-104.71572081035778L66.88663431414568,-112.88049730952271zM66.88663431414568,-112.88049730952271L66.88663431414568,-104.71572081035778L75.43312719084709,-112.88049730952271zM58.34014143744427,-112.88049730952271L66.88663431414568,-112.88049730952271L66.88663431414568,-121.04527380868767zM66.88663431414568,-112.88049730952271L75.43312719084709,-112.88049730952271L75.43312719084712,-121.04527380868767z" style="fill:rgb(0,0,290)"/><path d="M56.52134968204376,56.04465192180616L65.06784255874514,56.04465192180616L65.06784255874514,47.87987542264122zM65.06784255874514,56.04465192180616L73.61433543544656,56.04465192180615L73.61433543544656,47.87987542264122z" style="fill:rgb(290,0,0)"/><path d="M58.34014143744427,-121.04527380868767L58.34014143744427,-112.88049730952271L66.88663431414568,-121.04527380868767zM66.88663431414568,-121.04527380868767L66.88663431414568,-112.88049730952271L75.43312719084712,-121.04527380868767z" style="fill:rgb(0,0,290)"/><path d="M56.521349682043734,47.87987542264122L56.52134968204376,56.04465192180616L65.06784255874514,47.87987542264122zM65.06784255874514,47.87987542264122L65.06784255874514,56.04465192180616L73.61433543544656,47.87987542264122zM56.521349682043734,47.87987542264122L65.06784255874514,47.87987542264122L65.06784255874514,39.71509892347628zM65.06784255874514,47.87987542264122L73.61433543544656,47.87987542264122L73.61433543544659,39.71509892347628zM56.521349682043734,39.71509892347628L56.521349682043734,47.87987542264122L65.06784255874514,39.71509892347628zM65.06784255874514,39.71509892347628L65.06784255874514,47.87987542264122L73.61433543544659,39.71509892347628zM-231.86040578828135,28.314229011881718L-223.3139129115799,28.31422901188171L-223.3139129115799,20.149452512716774zM-223.3139129115799,28.31422901188171L-214.7674200348785,28.314229011881718L-214.7674200348785,20.149452512716774zM-231.86040578828135,20.149452512716778L-231.86040578828135,28.314229011881718L-223.3139129115799,20.149452512716774zM-223.3139129115799,20.149452512716774L-223.3139129115799,28.31422901188171L-214.7674200348785,20.149452512716774zM-231.86040578828135,20.149452512716778L-223.3139129115799,20.149452512716774L-223.3139129115799,11.984676013551839zM-223.3139129115799,20.149452512716774L-214.7674200348785,20.149452512716774L-214.7674200348785,11.984676013551836zM-231.86040578828135,11.984676013551834L-231.86040578828135,20.149452512716778L-223.3139129115799,11.984676013551839zM-223.3139129115799,11.984676013551839L-223.3139129115799,20.149452512716774L-214.7674200348785,11.984676013551836z" style="fill:rgb(290,0,0)"/><path d="M-89.38979493355801,-136.38644941640902L-80.84330205685659,-136.38644941640902L-80.84330205685659,-144.55122591557398zM-80.84330205685659,-136.38644941640902L-72.29680918015517,-136.38644941640902L-72.29680918015515,-144.55122591557398zM-89.38979493355801,-144.551225915574L-89.38979493355801,-136.38644941640902L-80.84330205685659,-144.55122591557398zM-80.84330205685659,-144.55122591557398L-80.84330205685659,-136.38644941640902L-72.29680918015515,-144.55122591557398zM-89.38979493355801,-144.551225915574L-80.84330205685659,-144.55122591557398L-80.84330205685659,-152.71600241473894zM-80.84330205685659,-144.55122591557398L-72.29680918015515,-144.55122591557398L-72.29680918015515,-152.7160024147389zM-89.38979493355801,-152.7160024147389L-89.38979493355801,-144.551225915574L-80.84330205685659,-152.71600241473894zM-80.84330205685659,-152.71600241473894L-80.84330205685659,-144.55122591557398L-72.29680918015515,-152.7160024147389z" style="fill:rgb(0,0,290)"/><path d="M51.461033478572354,127.61658412591044L60.00752635527377,127.61658412591044L60.00752635527377,119.45180762674552zM60.00752635527377,127.61658412591044L68.55401923197518,127.61658412591044L68.55401923197518,119.45180762674552zM51.461033478572325,119.45180762674552L51.461033478572354,127.61658412591044L60.00752635527377,119.45180762674552zM60.00752635527377,119.45180762674552L60.00752635527377,127.61658412591044L68.55401923197518,119.45180762674552zM51.461033478572325,119.45180762674552L60.00752635527377,119.45180762674552L60.00752635527377,111.28703112758056zM60.00752635527377,119.45180762674552L68.55401923197518,119.45180762674552L68.55401923197518,111.28703112758056z" style="fill:rgb(290,0,0)"/><path d="M194.57472233885224,167.3642814842534L203.1212152155537,167.3642814842534L203.1212152155537,159.19950498508845zM203.1212152155537,167.3642814842534L211.6677080922551,167.3642814842534L211.66770809225505,159.19950498508845z" style="fill:rgb(0,0,290)"/><path d="M51.461033478572354,111.28703112758056L51.461033478572325,119.45180762674552L60.00752635527377,111.28703112758056zM60.00752635527377,111.28703112758056L60.00752635527377,119.45180762674552L68.55401923197518,111.28703112758056z" style="fill:rgb(290,0,0)"/><path d="M194.57472233885224,159.19950498508845L194.57472233885224,167.3642814842534L203.1212152155537,159.19950498508845zM203.1212152155537,159.19950498508845L203.1212152155537,167.3642814842534L211.66770809225505,159.19950498508845zM194.57472233885224,159.19950498508845L203.1212152155537,159.19950498508845L203.12121521555363,151.03472848592352zM203.1212152155537,159.19950498508845L211.66770809225505,159.19950498508845L211.6677080922551,151.03472848592352zM194.57472233885224,151.03472848592352L194.57472233885224,159.19950498508845L203.12121521555363,151.03472848592352zM203.12121521555363,151.03472848592352L203.1212152155537,159.19950498508845L211.6677080922551,151.03472848592352z" style="fill:rgb(0,0,290)"/><path d="M-236.83893544412,44.785260096438435L-228.2924425674186,44.78526009643844L-228.2924425674186,36.6204835972735zM-228.2924425674186,44.78526009643844L-219.7459496907172,44.78526009643844L-219.7459496907172,36.6204835972735zM-236.83893544412,36.6204835972735L-236.83893544412,44.785260096438435L-228.2924425674186,36.6204835972735zM-228.2924425674186,36.6204835972735L-228.2924425674186,44.78526009643844L-219.7459496907172,36.6204835972735zM-236.83893544412,36.6204835972735L-228.2924425674186,36.6204835972735L-228.2924425674186,28.45570709810856zM-228.2924425674186,36.6204835972735L-219.7459496907172,36.6204835972735L-219.7459496907172,28.45570709810856zM-236.83893544412,28.45570709810856L-236.83893544412,36.6204835972735L-228.2924425674186,28.45570709810856zM-228.2924425674186,28.45570709810856L-228.2924425674186,36.6204835972735L-219.7459496907172,28.45570709810856z" style="fill:rgb(290,0,0)"/><text x="-395.2020976530581" y="249.58689227125848" z="-0.9906241532870436" font-family="Verdana" font-size="12" fill="rgb(0,0,0)">Axis 2 (24.29 %)</text><path d="M-95.62729339516432,60.67739733483101L-87.0808005184629,60.67739733483101L-87.0808005184629,52.51262083566607zM-87.0808005184629,60.67739733483101L-78.53430764176147,60.67739733483101L-78.53430764176147,52.51262083566607zM-95.62729339516433,52.51262083566607L-95.62729339516432,60.67739733483101L-87.0808005184629,52.51262083566607zM-87.0808005184629,52.51262083566607L-87.0808005184629,60.67739733483101L-78.53430764176147,52.51262083566607zM-95.62729339516433,52.51262083566607L-87.0808005184629,52.51262083566607L-87.08080051846291,44.347844336501126zM-87.0808005184629,52.51262083566607L-78.53430764176147,52.51262083566607L-78.53430764176146,44.347844336501126zM-95.62729339516432,44.347844336501126L-95.62729339516433,52.51262083566607L-87.08080051846291,44.347844336501126zM-87.08080051846291,44.347844336501126L-87.0808005184629,52.51262083566607L-78.53430764176146,44.347844336501126zM46.73380087239873,96.3471026327315L55.280293749100146,96.3471026327315L55.280293749100146,88.18232613356656zM55.280293749100146,96.3471026327315L63.82678662580155,96.34710263273148L63.82678662580155,88.18232613356656zM46.73380087239873,88.18232613356656L46.73380087239873,96.3471026327315L55.280293749100146,88.18232613356656zM55.280293749100146,88.18232613356656L55.280293749100146,96.3471026327315L63.82678662580155,88.18232613356656zM46.73380087239873,88.18232613356656L55.280293749100146,88.18232613356656L55.280293749100146,80.01754963440163zM55.280293749100146,88.18232613356656L63.82678662580155,88.18232613356656L63.82678662580155,80.01754963440162zM46.73380087239873,80.01754963440163L46.73380087239873,88.18232613356656L55.280293749100146,80.01754963440163zM55.280293749100146,80.01754963440163L55.280293749100146,88.18232613356656L63.82678662580155,80.01754963440162zM332.0702474399119,54.331938369897955L340.6167403166133,54.331938369897955L340.61674031661335,46.16716187073301zM340.6167403166133,54.331938369897955L349.1632331933148,54.331938369897955L349.1632331933148,46.16716187073301zM332.07024743991195,46.16716187073301L332.0702474399119,54.331938369897955L340.61674031661335,46.16716187073301zM340.61674031661335,46.16716187073301L340.6167403166133,54.331938369897955L349.1632331933148,46.16716187073301zM332.07024743991195,46.16716187073301L340.61674031661335,46.16716187073301L340.61674031661335,38.002385371568074zM340.61674031661335,46.16716187073301L349.1632331933148,46.16716187073301L349.1632331933147,38.002385371568074zM332.0702474399119,38.002385371568074L332.07024743991195,46.16716187073301L340.61674031661335,38.002385371568074zM340.61674031661335,38.002385371568074L340.61674031661335,46.16716187073301L349.1632331933147,38.002385371568074zM328.1809223400028,93.41685951273816L336.7274152167042,93.41685951273816L336.7274152167042,85.25208301357321zM336.7274152167042,93.41685951273816L345.2739080934056,93.41685951273816L345.2739080934056,85.25208301357321zM328.18092234000284,85.25208301357321L328.1809223400028,93.41685951273816L336.7274152167042,85.25208301357321zM336.7274152167042,85.25208301357321L336.7274152167042,93.41685951273816L345.2739080934056,85.25208301357321zM328.18092234000284,85.25208301357321L336.7274152167042,85.25208301357321L336.7274152167042,77.08730651440827zM336.7274152167042,85.25208301357321L345.2739080934056,85.25208301357321L345.2739080934055,77.08730651440827zM328.1809223400028,77.08730651440827L328.18092234000284,85.25208301357321L336.7274152167042,77.08730651440827zM336.7274152167042,77.08730651440827L336.7274152167042,85.25208301357321L345.2739080934055,77.08730651440827z" style="fill:rgb(0,0,290)"/><path d="M-105.92060762908345,13.971600284257118L-97.37411475238201,13.97160028425712L-97.37411475238201,5.806823785092187zM-97.37411475238201,13.97160028425712L-88.8276218756806,13.97160028425712L-88.82762187568059,5.806823785092182zM-105.92060762908346,5.806823785092182L-105.92060762908345,13.971600284257118L-97.37411475238201,5.806823785092187zM-97.37411475238201,5.806823785092187L-97.37411475238201,13.97160028425712L-88.82762187568059,5.806823785092182zM-106.16226607091609,2.0662830273536623L-97.61577319421465,2.0662830273536668L-97.61577319421465,-6.098493471811273zM-97.61577319421465,2.0662830273536668L-89.06928031751323,2.0662830273536668L-89.06928031751323,-6.0984934718112775zM-105.92060762908346,5.806823785092182L-97.37411475238201,5.806823785092187L-97.37411475238201,-2.357952714072753zM-97.37411475238201,5.806823785092187L-88.82762187568059,5.806823785092182L-88.82762187568059,-2.3579527140727574zM-106.16226607091609,-6.098493471811269L-106.16226607091609,2.0662830273536623L-97.61577319421465,-6.098493471811273zM-97.61577319421465,-6.098493471811273L-97.61577319421465,2.0662830273536668L-89.06928031751323,-6.0984934718112775zM-105.92060762908345,-2.357952714072753L-105.92060762908346,5.806823785092182L-97.37411475238201,-2.357952714072753zM-97.37411475238201,-2.357952714072753L-97.37411475238201,5.806823785092187L-88.82762187568059,-2.3579527140727574zM-106.16226607091609,-6.098493471811269L-97.61577319421465,-6.098493471811273L-97.61577319421465,-14.263269970976218zM-97.61577319421465,-6.098493471811273L-89.06928031751323,-6.0984934718112775L-89.06928031751323,-14.263269970976218zM-106.16226607091609,-14.263269970976218L-106.16226607091609,-6.098493471811269L-97.61577319421465,-14.263269970976218zM-97.61577319421465,-14.263269970976218L-97.61577319421465,-6.098493471811273L-89.06928031751323,-14.263269970976218z" style="fill:rgb(290,0,0)"/></svg>