<?xml version="1.0" encoding="utf-8" standalone="no"?>
<!DOCTYPE svg PUBLIC "-//W3C//DTD SVG 1.1//EN"
  "http://www.w3.org/Graphics/SVG/1.1/DTD/svg11.dtd">
<svg xmlns:xlink="http://www.w3.org/1999/xlink" width="459.047813pt" height="275.72pt" viewBox="0 0 459.047813 275.72" xmlns="http://www.w3.org/2000/svg" version="1.1">
 <metadata>
  <rdf:RDF xmlns:dc="http://purl.org/dc/elements/1.1/" xmlns:cc="http://creativecommons.org/ns#" xmlns:rdf="http://www.w3.org/1999/02/22-rdf-syntax-ns#">
   <cc:Work>
    <dc:type rdf:resource="http://purl.org/dc/dcmitype/StillImage"/>
    <dc:date>2022-02-08T21:59:47.728665</dc:date>
    <dc:format>image/svg+xml</dc:format>
    <dc:creator>
     <cc:Agent>
      <dc:title>Matplotlib v3.5.1, https://matplotlib.org/</dc:title>
     </cc:Agent>
    </dc:creator>
   </cc:Work>
  </rdf:RDF>
 </metadata>
 <defs>
  <style type="text/css">*{stroke-linejoin: round; stroke-linecap: butt}</style>
 </defs>
 <g id="figure_1">
  <g id="patch_1">
   <path d="M -0 275.72 
L 459.047813 275.72 
L 459.047813 0 
L -0 0 
L -0 275.72 
z
" style="fill: none"/>
  </g>
  <g id="axes_1">
   <g id="patch_2">
    <path d="M 47.085938 239.229375 
L 381.885938 239.229375 
L 381.885938 21.789375 
L 47.085938 21.789375 
z
" style="fill: #ffffff"/>
   </g>
   <g id="PathCollection_1"/>
   <g id="PathCollection_2"/>
   <g id="matplotlib.axis_1">
    <g id="xtick_1">
     <g id="line2d_1">
      <defs>
       <path id="m953110e011" d="M 0 0 
L 0 3.5 
" style="stroke: #000000; stroke-width: 0.8"/>
      </defs>
      <g>
       <use xlink:href="#m953110e011" x="74.985938" y="239.229375" style="stroke: #000000; stroke-width: 0.8"/>
      </g>
     </g>
     <g id="text_1">
      <text style="font: 10px 'sans-serif'; text-anchor: middle" x="74.985938" y="253.387188" transform="rotate(-0, 74.985938, 253.387188)">2</text>
     </g>
    </g>
    <g id="xtick_2">
     <g id="line2d_2">
      <g>
       <use xlink:href="#m953110e011" x="130.785937" y="239.229375" style="stroke: #000000; stroke-width: 0.8"/>
      </g>
     </g>
     <g id="text_2">
      <text style="font: 10px 'sans-serif'; text-anchor: middle" x="130.785937" y="253.387188" transform="rotate(-0, 130.785937, 253.387188)">6</text>
     </g>
    </g>
    <g id="xtick_3">
     <g id="line2d_3">
      <g>
       <use xlink:href="#m953110e011" x="186.585938" y="239.229375" style="stroke: #000000; stroke-width: 0.8"/>
      </g>
     </g>
     <g id="text_3">
      <text style="font: 10px 'sans-serif'; text-anchor: middle" x="186.585938" y="253.387188" transform="rotate(-0, 186.585938, 253.387188)">10</text>
     </g>
    </g>
    <g id="xtick_4">
     <g id="line2d_4">
      <g>
       <use xlink:href="#m953110e011" x="242.385937" y="239.229375" style="stroke: #000000; stroke-width: 0.8"/>
      </g>
     </g>
     <g id="text_4">
      <text style="font: 10px 'sans-serif'; text-anchor: middle" x="242.385937" y="253.387188" transform="rotate(-0, 242.385937, 253.387188)">14</text>
     </g>
    </g>
    <g id="xtick_5">
     <g id="line2d_5">
      <g>
       <use xlink:href="#m953110e011" x="298.185938" y="239.229375" style="stroke: #000000; stroke-width: 0.8"/>
      </g>
     </g>
     <g id="text_5">
      <text style="font: 10px 'sans-serif'; text-anchor: middle" x="298.185938" y="253.387188" transform="rotate(-0, 298.185938, 253.387188)">18</text>
     </g>
    </g>
    <g id="xtick_6">
     <g id="line2d_6">
      <g>
       <use xlink:href="#m953110e011" x="353.985937" y="239.229375" style="stroke: #000000; stroke-width: 0.8"/>
      </g>
     </g>
     <g id="text_6">
      <text style="font: 10px 'sans-serif'; text-anchor: middle" x="353.985937" y="253.387188" transform="rotate(-0, 353.985937, 253.387188)">22</text>
     </g>
    </g>
    <g id="text_7">
     <text style="font: 10px 'sans-serif'; text-anchor: middle" x="214.485938" y="266.5325" transform="rotate(-0, 214.485938, 266.5325)">zt</text>
    </g>
   </g>
   <g id="matplotlib.axis_2">
    <g id="ytick_1">
     <g id="line2d_7">
      <defs>
       <path id="mdf2f0f5c3e" d="M 0 0 
L -3.5 0 
" style="stroke: #000000; stroke-width: 0.8"/>
      </defs>
      <g>
       <use xlink:href="#mdf2f0f5c3e" x="47.085938" y="210.754611" style="stroke: #000000; stroke-width: 0.8"/>
      </g>
     </g>
     <g id="text_8">
      <text style="font: 10px 'sans-serif'; text-anchor: end" x="40.085938" y="214.333517" transform="rotate(-0, 40.085938, 214.333517)">−0.2</text>
     </g>
    </g>
    <g id="ytick_2">
     <g id="line2d_8">
      <g>
       <use xlink:href="#mdf2f0f5c3e" x="47.085938" y="177.085192" style="stroke: #000000; stroke-width: 0.8"/>
      </g>
     </g>
     <g id="text_9">
      <text style="font: 10px 'sans-serif'; text-anchor: end" x="40.085938" y="180.664098" transform="rotate(-0, 40.085938, 180.664098)">−0.1</text>
     </g>
    </g>
    <g id="ytick_3">
     <g id="line2d_9">
      <g>
       <use xlink:href="#mdf2f0f5c3e" x="47.085938" y="143.415773" style="stroke: #000000; stroke-width: 0.8"/>
      </g>
     </g>
     <g id="text_10">
      <text style="font: 10px 'sans-serif'; text-anchor: end" x="40.085938" y="146.994679" transform="rotate(-0, 40.085938, 146.994679)">0.0</text>
     </g>
    </g>
    <g id="ytick_4">
     <g id="line2d_10">
      <g>
       <use xlink:href="#mdf2f0f5c3e" x="47.085938" y="109.746353" style="stroke: #000000; stroke-width: 0.8"/>
      </g>
     </g>
     <g id="text_11">
      <text style="font: 10px 'sans-serif'; text-anchor: end" x="40.085938" y="113.32526" transform="rotate(-0, 40.085938, 113.32526)">0.1</text>
     </g>
    </g>
    <g id="ytick_5">
     <g id="line2d_11">
      <g>
       <use xlink:href="#mdf2f0f5c3e" x="47.085938" y="76.076934" style="stroke: #000000; stroke-width: 0.8"/>
      </g>
     </g>
     <g id="text_12">
      <text style="font: 10px 'sans-serif'; text-anchor: end" x="40.085938" y="79.655841" transform="rotate(-0, 40.085938, 79.655841)">0.2</text>
     </g>
    </g>
    <g id="ytick_6">
     <g id="line2d_12">
      <g>
       <use xlink:href="#mdf2f0f5c3e" x="47.085938" y="42.407515" style="stroke: #000000; stroke-width: 0.8"/>
      </g>
     </g>
     <g id="text_13">
      <text style="font: 10px 'sans-serif'; text-anchor: end" x="40.085938" y="45.986421" transform="rotate(-0, 40.085938, 45.986421)">0.3</text>
     </g>
    </g>
    <g id="text_14">
     <text style="font: 10px 'sans-serif'; text-anchor: middle" x="14.357813" y="130.509375" transform="rotate(-90, 14.357813, 130.509375)">Axis 1 - 52.9%</text>
    </g>
   </g>
   <g id="patch_3">
    <path d="M 47.085938 239.229375 
L 47.085938 21.789375 
" style="fill: none; stroke: #000000; stroke-width: 0.8; stroke-linejoin: miter; stroke-linecap: square"/>
   </g>
   <g id="patch_4">
    <path d="M 381.885938 239.229375 
L 381.885938 21.789375 
" style="fill: none; stroke: #000000; stroke-width: 0.8; stroke-linejoin: miter; stroke-linecap: square"/>
   </g>
   <g id="patch_5">
    <path d="M 47.085938 239.229375 
L 381.885937 239.229375 
" style="fill: none; stroke: #000000; stroke-width: 0.8; stroke-linejoin: miter; stroke-linecap: square"/>
   </g>
   <g id="patch_6">
    <path d="M 47.085938 21.789375 
L 381.885937 21.789375 
" style="fill: none; stroke: #000000; stroke-width: 0.8; stroke-linejoin: miter; stroke-linecap: square"/>
   </g>
   <g id="PathCollection_3">
    <defs>
     <path id="C0_0_a7829faa1f" d="M 0 5 
C 1.326016 5 2.597899 4.473168 3.535534 3.535534 
C 4.473168 2.597899 5 1.326016 5 -0 
C 5 -1.326016 4.473168 -2.597899 3.535534 -3.535534 
C 2.597899 -4.473168 1.326016 -5 0 -5 
C -1.326016 -5 -2.597899 -4.473168 -3.535534 -3.535534 
C -4.473168 -2.597899 -5 -1.326016 -5 0 
C -5 1.326016 -4.473168 2.597899 -3.535534 3.535534 
C -2.597899 4.473168 -1.326016 5 0 5 
z
"/>
    </defs>
    <g clip-path="url(#pb9a732b725)">
     <use xlink:href="#C0_0_a7829faa1f" x="74.985938" y="164.768929" style="fill: #ff0000; stroke: #000000"/>
    </g>
    <g clip-path="url(#pb9a732b725)">
     <use xlink:href="#C0_0_a7829faa1f" x="74.985938" y="142.613275" style="fill: #0000ff; stroke: #000000"/>
    </g>
    <g clip-path="url(#pb9a732b725)">
     <use xlink:href="#C0_0_a7829faa1f" x="70.996307" y="132.290355" style="fill: #ff0000; stroke: #000000"/>
    </g>
    <g clip-path="url(#pb9a732b725)">
     <use xlink:href="#C0_0_a7829faa1f" x="81.589661" y="127.906984" style="fill: #ff0000; stroke: #000000"/>
    </g>
    <g clip-path="url(#pb9a732b725)">
     <use xlink:href="#C0_0_a7829faa1f" x="74.985938" y="95.09859" style="fill: #ff0000; stroke: #000000"/>
    </g>
    <g clip-path="url(#pb9a732b725)">
     <use xlink:href="#C0_0_a7829faa1f" x="74.985938" y="45.113954" style="fill: #0000ff; stroke: #000000"/>
    </g>
    <g clip-path="url(#pb9a732b725)">
     <use xlink:href="#C0_0_a7829faa1f" x="74.985938" y="31.673011" style="fill: #0000ff; stroke: #000000"/>
    </g>
   </g>
   <g id="PathCollection_4">
    <defs>
     <path id="C1_0_85e514eeb0" d="M 0 5 
C 1.326016 5 2.597899 4.473168 3.535534 3.535534 
C 4.473168 2.597899 5 1.326016 5 -0 
C 5 -1.326016 4.473168 -2.597899 3.535534 -3.535534 
C 2.597899 -4.473168 1.326016 -5 0 -5 
C -1.326016 -5 -2.597899 -4.473168 -3.535534 -3.535534 
C -4.473168 -2.597899 -5 -1.326016 -5 0 
C -5 1.326016 -4.473168 2.597899 -3.535534 3.535534 
C -2.597899 4.473168 -1.326016 5 0 5 
z
"/>
    </defs>
    <g clip-path="url(#pb9a732b725)">
     <use xlink:href="#C1_0_85e514eeb0" x="130.785937" y="156.370351" style="fill: #ff0000; stroke: #000000"/>
    </g>
    <g clip-path="url(#pb9a732b725)">
     <use xlink:href="#C1_0_85e514eeb0" x="130.785937" y="144.264442" style="fill: #ff0000; stroke: #000000"/>
    </g>
    <g clip-path="url(#pb9a732b725)">
     <use xlink:href="#C1_0_85e514eeb0" x="119.330853" y="142.857128" style="fill: #ff0000; stroke: #000000"/>
    </g>
    <g clip-path="url(#pb9a732b725)">
     <use xlink:href="#C1_0_85e514eeb0" x="140.258147" y="137.970094" style="fill: #ff0000; stroke: #000000"/>
    </g>
    <g clip-path="url(#pb9a732b725)">
     <use xlink:href="#C1_0_85e514eeb0" x="130.785937" y="89.239099" style="fill: #0000ff; stroke: #000000"/>
    </g>
    <g clip-path="url(#pb9a732b725)">
     <use xlink:href="#C1_0_85e514eeb0" x="142.335697" y="89.168112" style="fill: #0000ff; stroke: #000000"/>
    </g>
    <g clip-path="url(#pb9a732b725)">
     <use xlink:href="#C1_0_85e514eeb0" x="130.785937" y="57.674331" style="fill: #0000ff; stroke: #000000"/>
    </g>
    <g clip-path="url(#pb9a732b725)">
     <use xlink:href="#C1_0_85e514eeb0" x="130.785937" y="42.535524" style="fill: #0000ff; stroke: #000000"/>
    </g>
   </g>
   <g id="PathCollection_5">
    <defs>
     <path id="C2_0_f9b53679f6" d="M 0 5 
C 1.326016 5 2.597899 4.473168 3.535534 3.535534 
C 4.473168 2.597899 5 1.326016 5 -0 
C 5 -1.326016 4.473168 -2.597899 3.535534 -3.535534 
C 2.597899 -4.473168 1.326016 -5 0 -5 
C -1.326016 -5 -2.597899 -4.473168 -3.535534 -3.535534 
C -4.473168 -2.597899 -5 -1.326016 -5 0 
C -5 1.326016 -4.473168 2.597899 -3.535534 3.535534 
C -2.597899 4.473168 -1.326016 5 0 5 
z
"/>
    </defs>
    <g clip-path="url(#pb9a732b725)">
     <use xlink:href="#C2_0_f9b53679f6" x="186.585938" y="156.433447" style="fill: #ff0000; stroke: #000000"/>
    </g>
    <g clip-path="url(#pb9a732b725)">
     <use xlink:href="#C2_0_f9b53679f6" x="176.724078" y="150.707567" style="fill: #0000ff; stroke: #000000"/>
    </g>
    <g clip-path="url(#pb9a732b725)">
     <use xlink:href="#C2_0_f9b53679f6" x="186.585938" y="137.030575" style="fill: #ff0000; stroke: #000000"/>
    </g>
    <g clip-path="url(#pb9a732b725)">
     <use xlink:href="#C2_0_f9b53679f6" x="179.196613" y="128.576329" style="fill: #ff0000; stroke: #000000"/>
    </g>
    <g clip-path="url(#pb9a732b725)">
     <use xlink:href="#C2_0_f9b53679f6" x="189.3614" y="123.353007" style="fill: #ff0000; stroke: #000000"/>
    </g>
    <g clip-path="url(#pb9a732b725)">
     <use xlink:href="#C2_0_f9b53679f6" x="186.585938" y="110.424135" style="fill: #0000ff; stroke: #000000"/>
    </g>
    <g clip-path="url(#pb9a732b725)">
     <use xlink:href="#C2_0_f9b53679f6" x="186.585938" y="98.48944" style="fill: #0000ff; stroke: #000000"/>
    </g>
    <g clip-path="url(#pb9a732b725)">
     <use xlink:href="#C2_0_f9b53679f6" x="186.585938" y="66.044211" style="fill: #0000ff; stroke: #000000"/>
    </g>
   </g>
   <g id="PathCollection_6">
    <defs>
     <path id="C3_0_6b8709d42e" d="M 0 5 
C 1.326016 5 2.597899 4.473168 3.535534 3.535534 
C 4.473168 2.597899 5 1.326016 5 -0 
C 5 -1.326016 4.473168 -2.597899 3.535534 -3.535534 
C 2.597899 -4.473168 1.326016 -5 0 -5 
C -1.326016 -5 -2.597899 -4.473168 -3.535534 -3.535534 
C -4.473168 -2.597899 -5 -1.326016 -5 0 
C -5 1.326016 -4.473168 2.597899 -3.535534 3.535534 
C -2.597899 4.473168 -1.326016 5 0 5 
z
"/>
    </defs>
    <g clip-path="url(#pb9a732b725)">
     <use xlink:href="#C3_0_6b8709d42e" x="242.385937" y="180.396258" style="fill: #ff0000; stroke: #000000"/>
    </g>
    <g clip-path="url(#pb9a732b725)">
     <use xlink:href="#C3_0_6b8709d42e" x="242.385937" y="165.959109" style="fill: #0000ff; stroke: #000000"/>
    </g>
    <g clip-path="url(#pb9a732b725)">
     <use xlink:href="#C3_0_6b8709d42e" x="249.510833" y="157.301428" style="fill: #0000ff; stroke: #000000"/>
    </g>
    <g clip-path="url(#pb9a732b725)">
     <use xlink:href="#C3_0_6b8709d42e" x="240.746034" y="150.137598" style="fill: #ff0000; stroke: #000000"/>
    </g>
    <g clip-path="url(#pb9a732b725)">
     <use xlink:href="#C3_0_6b8709d42e" x="229.267571" y="148.915213" style="fill: #ff0000; stroke: #000000"/>
    </g>
    <g clip-path="url(#pb9a732b725)">
     <use xlink:href="#C3_0_6b8709d42e" x="242.385937" y="103.397486" style="fill: #0000ff; stroke: #000000"/>
    </g>
    <g clip-path="url(#pb9a732b725)">
     <use xlink:href="#C3_0_6b8709d42e" x="242.385937" y="80.497439" style="fill: #0000ff; stroke: #000000"/>
    </g>
   </g>
   <g id="PathCollection_7">
    <defs>
     <path id="C4_0_caa1c98486" d="M 0 5 
C 1.326016 5 2.597899 4.473168 3.535534 3.535534 
C 4.473168 2.597899 5 1.326016 5 -0 
C 5 -1.326016 4.473168 -2.597899 3.535534 -3.535534 
C 2.597899 -4.473168 1.326016 -5 0 -5 
C -1.326016 -5 -2.597899 -4.473168 -3.535534 -3.535534 
C -4.473168 -2.597899 -5 -1.326016 -5 0 
C -5 1.326016 -4.473168 2.597899 -3.535534 3.535534 
C -2.597899 4.473168 -1.326016 5 0 5 
z
"/>
    </defs>
    <g clip-path="url(#pb9a732b725)">
     <use xlink:href="#C4_0_caa1c98486" x="298.185938" y="229.345739" style="fill: #ff0000; stroke: #000000"/>
    </g>
    <g clip-path="url(#pb9a732b725)">
     <use xlink:href="#C4_0_caa1c98486" x="288.226877" y="223.774546" style="fill: #ff0000; stroke: #000000"/>
    </g>
    <g clip-path="url(#pb9a732b725)">
     <use xlink:href="#C4_0_caa1c98486" x="298.185938" y="199.568895" style="fill: #ff0000; stroke: #000000"/>
    </g>
    <g clip-path="url(#pb9a732b725)">
     <use xlink:href="#C4_0_caa1c98486" x="286.831258" y="197.55449" style="fill: #0000ff; stroke: #000000"/>
    </g>
    <g clip-path="url(#pb9a732b725)">
     <use xlink:href="#C4_0_caa1c98486" x="305.82017" y="191.314384" style="fill: #ff0000; stroke: #000000"/>
    </g>
    <g clip-path="url(#pb9a732b725)">
     <use xlink:href="#C4_0_caa1c98486" x="298.185938" y="176.516144" style="fill: #0000ff; stroke: #000000"/>
    </g>
    <g clip-path="url(#pb9a732b725)">
     <use xlink:href="#C4_0_caa1c98486" x="288.358633" y="170.736628" style="fill: #0000ff; stroke: #000000"/>
    </g>
    <g clip-path="url(#pb9a732b725)">
     <use xlink:href="#C4_0_caa1c98486" x="307.267643" y="169.719778" style="fill: #0000ff; stroke: #000000"/>
    </g>
   </g>
   <g id="PathCollection_8">
    <defs>
     <path id="C5_0_9aa83e98c1" d="M 0 5 
C 1.326016 5 2.597899 4.473168 3.535534 3.535534 
C 4.473168 2.597899 5 1.326016 5 -0 
C 5 -1.326016 4.473168 -2.597899 3.535534 -3.535534 
C 2.597899 -4.473168 1.326016 -5 0 -5 
C -1.326016 -5 -2.597899 -4.473168 -3.535534 -3.535534 
C -4.473168 -2.597899 -5 -1.326016 -5 0 
C -5 1.326016 -4.473168 2.597899 -3.535534 3.535534 
C -2.597899 4.473168 -1.326016 5 0 5 
z
"/>
    </defs>
    <g clip-path="url(#pb9a732b725)">
     <use xlink:href="#C5_0_9aa83e98c1" x="353.985937" y="213.599137" style="fill: #ff0000; stroke: #000000"/>
    </g>
    <g clip-path="url(#pb9a732b725)">
     <use xlink:href="#C5_0_9aa83e98c1" x="342.801367" y="210.854052" style="fill: #ff0000; stroke: #000000"/>
    </g>
    <g clip-path="url(#pb9a732b725)">
     <use xlink:href="#C5_0_9aa83e98c1" x="362.107083" y="205.777457" style="fill: #ff0000; stroke: #000000"/>
    </g>
    <g clip-path="url(#pb9a732b725)">
     <use xlink:href="#C5_0_9aa83e98c1" x="373.515499" y="204.060388" style="fill: #ff0000; stroke: #000000"/>
    </g>
    <g clip-path="url(#pb9a732b725)">
     <use xlink:href="#C5_0_9aa83e98c1" x="353.985937" y="188.967724" style="fill: #0000ff; stroke: #000000"/>
    </g>
    <g clip-path="url(#pb9a732b725)">
     <use xlink:href="#C5_0_9aa83e98c1" x="353.985937" y="163.567124" style="fill: #0000ff; stroke: #000000"/>
    </g>
    <g clip-path="url(#pb9a732b725)">
     <use xlink:href="#C5_0_9aa83e98c1" x="353.985937" y="147.321008" style="fill: #0000ff; stroke: #000000"/>
    </g>
    <g clip-path="url(#pb9a732b725)">
     <use xlink:href="#C5_0_9aa83e98c1" x="342.436246" y="147.240626" style="fill: #0000ff; stroke: #000000"/>
    </g>
   </g>
   <g id="text_15">
    <text style="font: 12px 'sans-serif'; text-anchor: middle" x="214.485938" y="15.789375" transform="rotate(-0, 214.485938, 15.789375)">Microbiome wUF PCoA</text>
   </g>
   <g id="legend_1">
    <g id="patch_7">
     <path d="M 400.625938 53.08 
L 449.847813 53.08 
Q 451.847813 53.08 451.847813 51.08 
L 451.847813 23.789375 
Q 451.847813 21.789375 449.847813 21.789375 
L 400.625938 21.789375 
Q 398.625938 21.789375 398.625938 23.789375 
L 398.625938 51.08 
Q 398.625938 53.08 400.625938 53.08 
z
" style="fill: #ffffff; opacity: 0.8; stroke: #cccccc; stroke-linejoin: miter"/>
    </g>
    <g id="PathCollection_9">
     <defs>
      <path id="m7bb3738896" d="M 0 3.872983 
C 1.027127 3.872983 2.012324 3.464901 2.738613 2.738613 
C 3.464901 2.012324 3.872983 1.027127 3.872983 0 
C 3.872983 -1.027127 3.464901 -2.012324 2.738613 -2.738613 
C 2.012324 -3.464901 1.027127 -3.872983 0 -3.872983 
C -1.027127 -3.872983 -2.012324 -3.464901 -2.738613 -2.738613 
C -3.464901 -2.012324 -3.872983 -1.027127 -3.872983 0 
C -3.872983 1.027127 -3.464901 2.012324 -2.738613 2.738613 
C -2.012324 3.464901 -1.027127 3.872983 0 3.872983 
z
" style="stroke: #ff0000"/>
     </defs>
     <g>
      <use xlink:href="#m7bb3738896" x="412.625938" y="30.322188" style="fill: #ff0000; stroke: #ff0000"/>
     </g>
    </g>
    <g id="text_16">
     <text style="font: 10px 'sans-serif'; text-anchor: start" x="430.625938" y="32.947188" transform="rotate(-0, 430.625938, 32.947188)">Air</text>
    </g>
    <g id="PathCollection_10">
     <defs>
      <path id="m1c922c0adc" d="M 0 3.872983 
C 1.027127 3.872983 2.012324 3.464901 2.738613 2.738613 
C 3.464901 2.012324 3.872983 1.027127 3.872983 0 
C 3.872983 -1.027127 3.464901 -2.012324 2.738613 -2.738613 
C 2.012324 -3.464901 1.027127 -3.872983 0 -3.872983 
C -1.027127 -3.872983 -2.012324 -3.464901 -2.738613 -2.738613 
C -3.464901 -2.012324 -3.872983 -1.027127 -3.872983 0 
C -3.872983 1.027127 -3.464901 2.012324 -2.738613 2.738613 
C -2.012324 3.464901 -1.027127 3.872983 0 3.872983 
z
" style="stroke: #0000ff"/>
     </defs>
     <g>
      <use xlink:href="#m1c922c0adc" x="412.625938" y="44.4675" style="fill: #0000ff; stroke: #0000ff"/>
     </g>
    </g>
    <g id="text_17">
     <text style="font: 10px 'sans-serif'; text-anchor: start" x="430.625938" y="47.0925" transform="rotate(-0, 430.625938, 47.0925)">IHC</text>
    </g>
   </g>
  </g>
 </g>
 <defs>
  <clipPath id="pb9a732b725">
   <rect x="47.085938" y="21.789375" width="334.8" height="217.44"/>
  </clipPath>
 </defs>
</svg>
