<?xml version="1.0" encoding="utf-8" standalone="no"?>
<!DOCTYPE svg PUBLIC "-//W3C//DTD SVG 1.1//EN"
  "http://www.w3.org/Graphics/SVG/1.1/DTD/svg11.dtd">
<!-- Created with matplotlib (https://matplotlib.org/) -->
<svg height="275.988125pt" version="1.1" viewBox="0 0 442.215 275.988125" width="442.215pt" xmlns="http://www.w3.org/2000/svg" xmlns:xlink="http://www.w3.org/1999/xlink">
 <defs>
  <style type="text/css">
*{stroke-linecap:butt;stroke-linejoin:round;white-space:pre;}
  </style>
 </defs>
 <g id="figure_1">
  <g id="patch_1">
   <path d="M 0 275.988125 
L 442.215 275.988125 
L 442.215 0 
L 0 0 
z
" style="fill:#ffffff;"/>
  </g>
  <g id="axes_1">
   <g id="patch_2">
    <path d="M 53.7075 239.375625 
L 388.5075 239.375625 
L 388.5075 21.935625 
L 53.7075 21.935625 
z
" style="fill:#ffffff;"/>
   </g>
   <g id="patch_3">
    <path clip-path="url(#p0333f97f1e)" d="M 70.4475 200.86224 
L 204.3675 200.86224 
L 204.3675 183.205054 
L 70.4475 183.205054 
L 70.4475 200.86224 
z
" style="fill:#df2020;stroke:#4c4c4c;stroke-linejoin:miter;stroke-width:1.5;"/>
   </g>
   <g id="patch_4">
    <path clip-path="url(#p0333f97f1e)" d="M 237.8475 98.195404 
L 371.7675 98.195404 
L 371.7675 66.584101 
L 237.8475 66.584101 
L 237.8475 98.195404 
z
" style="fill:#2020df;stroke:#4c4c4c;stroke-linejoin:miter;stroke-width:1.5;"/>
   </g>
   <g id="matplotlib.axis_1">
    <g id="xtick_1">
     <g id="line2d_1">
      <defs>
       <path d="M 0 0 
L 0 3.5 
" id="mbf38ae3653" style="stroke:#000000;stroke-width:0.8;"/>
      </defs>
      <g>
       <use style="stroke:#000000;stroke-width:0.8;" x="137.4075" xlink:href="#mbf38ae3653" y="239.375625"/>
      </g>
     </g>
     <g id="text_1">
      <text style="font-family:Arial;font-size:10px;font-style:normal;font-weight:normal;text-anchor:middle;" transform="rotate(-0, 137.4075, 253.563125)" x="137.4075" y="253.563125">Air_18</text>
     </g>
    </g>
    <g id="xtick_2">
     <g id="line2d_2">
      <g>
       <use style="stroke:#000000;stroke-width:0.8;" x="304.8075" xlink:href="#mbf38ae3653" y="239.375625"/>
      </g>
     </g>
     <g id="text_2">
      <text style="font-family:Arial;font-size:10px;font-style:normal;font-weight:normal;text-anchor:middle;" transform="rotate(-0, 304.8075, 253.655313)" x="304.8075" y="253.655313">IHC_6</text>
     </g>
    </g>
    <g id="text_3">
     <text style="font-family:Arial;font-size:10px;font-style:normal;font-weight:normal;text-anchor:middle;" transform="rotate(-0, 221.1075, 266.800625)" x="221.1075" y="266.800625">Both</text>
    </g>
   </g>
   <g id="matplotlib.axis_2">
    <g id="ytick_1">
     <g id="line2d_3">
      <defs>
       <path d="M 0 0 
L -3.5 0 
" id="mdfa39b7425" style="stroke:#000000;stroke-width:0.8;"/>
      </defs>
      <g>
       <use style="stroke:#000000;stroke-width:0.8;" x="53.7075" xlink:href="#mdfa39b7425" y="227.093501"/>
      </g>
     </g>
     <g id="text_4">
      <text style="font-family:Arial;font-size:10px;font-style:normal;font-weight:normal;text-anchor:end;" transform="rotate(-0, 46.7075, 230.672408)" x="46.7075" y="230.672408">5</text>
     </g>
    </g>
    <g id="ytick_2">
     <g id="line2d_4">
      <g>
       <use style="stroke:#000000;stroke-width:0.8;" x="53.7075" xlink:href="#mdfa39b7425" y="180.348002"/>
      </g>
     </g>
     <g id="text_5">
      <text style="font-family:Arial;font-size:10px;font-style:normal;font-weight:normal;text-anchor:end;" transform="rotate(-0, 46.7075, 183.926908)" x="46.7075" y="183.926908">6</text>
     </g>
    </g>
    <g id="ytick_3">
     <g id="line2d_5">
      <g>
       <use style="stroke:#000000;stroke-width:0.8;" x="53.7075" xlink:href="#mdfa39b7425" y="133.602503"/>
      </g>
     </g>
     <g id="text_6">
      <text style="font-family:Arial;font-size:10px;font-style:normal;font-weight:normal;text-anchor:end;" transform="rotate(-0, 46.7075, 137.181409)" x="46.7075" y="137.181409">7</text>
     </g>
    </g>
    <g id="ytick_4">
     <g id="line2d_6">
      <g>
       <use style="stroke:#000000;stroke-width:0.8;" x="53.7075" xlink:href="#mdfa39b7425" y="86.857003"/>
      </g>
     </g>
     <g id="text_7">
      <text style="font-family:Arial;font-size:10px;font-style:normal;font-weight:normal;text-anchor:end;" transform="rotate(-0, 46.7075, 90.43591)" x="46.7075" y="90.43591">8</text>
     </g>
    </g>
    <g id="ytick_5">
     <g id="line2d_7">
      <g>
       <use style="stroke:#000000;stroke-width:0.8;" x="53.7075" xlink:href="#mdfa39b7425" y="40.111504"/>
      </g>
     </g>
     <g id="text_8">
      <text style="font-family:Arial;font-size:10px;font-style:normal;font-weight:normal;text-anchor:end;" transform="rotate(-0, 46.7075, 43.69041)" x="46.7075" y="43.69041">9</text>
     </g>
    </g>
    <g id="text_9">
     <text style="font-family:Arial;font-size:10px;font-style:normal;font-weight:normal;text-anchor:middle;" transform="rotate(-90, 35.041875, 130.655625)" x="35.041875" y="130.655625">Log_RS_V</text>
    </g>
   </g>
   <g id="line2d_8">
    <path clip-path="url(#p0333f97f1e)" d="M 137.4075 200.86224 
L 137.4075 222.530285 
" style="fill:none;stroke:#4c4c4c;stroke-linecap:square;stroke-width:1.5;"/>
   </g>
   <g id="line2d_9">
    <path clip-path="url(#p0333f97f1e)" d="M 137.4075 183.205054 
L 137.4075 183.205054 
" style="fill:none;stroke:#4c4c4c;stroke-linecap:square;stroke-width:1.5;"/>
   </g>
   <g id="line2d_10">
    <path clip-path="url(#p0333f97f1e)" d="M 103.9275 222.530285 
L 170.8875 222.530285 
" style="fill:none;stroke:#4c4c4c;stroke-linecap:square;stroke-width:1.5;"/>
   </g>
   <g id="line2d_11">
    <path clip-path="url(#p0333f97f1e)" d="M 103.9275 183.205054 
L 170.8875 183.205054 
" style="fill:none;stroke:#4c4c4c;stroke-linecap:square;stroke-width:1.5;"/>
   </g>
   <g id="line2d_12">
    <defs>
     <path d="M -0 3.535534 
L 2.12132 0 
L -0 -3.535534 
L -2.12132 -0 
z
" id="mf147634faa" style="stroke:#4c4c4c;stroke-linejoin:miter;"/>
    </defs>
    <g clip-path="url(#p0333f97f1e)">
     <use style="fill:#4c4c4c;stroke:#4c4c4c;stroke-linejoin:miter;" x="137.4075" xlink:href="#mf147634faa" y="155.882376"/>
    </g>
   </g>
   <g id="line2d_13">
    <path clip-path="url(#p0333f97f1e)" d="M 304.8075 98.195404 
L 304.8075 113.911189 
" style="fill:none;stroke:#4c4c4c;stroke-linecap:square;stroke-width:1.5;"/>
   </g>
   <g id="line2d_14">
    <path clip-path="url(#p0333f97f1e)" d="M 304.8075 66.584101 
L 304.8075 39.045102 
" style="fill:none;stroke:#4c4c4c;stroke-linecap:square;stroke-width:1.5;"/>
   </g>
   <g id="line2d_15">
    <path clip-path="url(#p0333f97f1e)" d="M 271.3275 113.911189 
L 338.2875 113.911189 
" style="fill:none;stroke:#4c4c4c;stroke-linecap:square;stroke-width:1.5;"/>
   </g>
   <g id="line2d_16">
    <path clip-path="url(#p0333f97f1e)" d="M 271.3275 39.045102 
L 338.2875 39.045102 
" style="fill:none;stroke:#4c4c4c;stroke-linecap:square;stroke-width:1.5;"/>
   </g>
   <g id="line2d_17"/>
   <g id="line2d_18">
    <path clip-path="url(#p0333f97f1e)" d="M 70.4475 192.976085 
L 204.3675 192.976085 
" style="fill:none;stroke:#4c4c4c;stroke-linecap:square;stroke-width:1.5;"/>
   </g>
   <g id="line2d_19">
    <path clip-path="url(#p0333f97f1e)" d="M 237.8475 84.360288 
L 371.7675 84.360288 
" style="fill:none;stroke:#4c4c4c;stroke-linecap:square;stroke-width:1.5;"/>
   </g>
   <g id="patch_5">
    <path d="M 53.7075 239.375625 
L 53.7075 21.935625 
" style="fill:none;stroke:#000000;stroke-linecap:square;stroke-linejoin:miter;stroke-width:0.8;"/>
   </g>
   <g id="patch_6">
    <path d="M 388.5075 239.375625 
L 388.5075 21.935625 
" style="fill:none;stroke:#000000;stroke-linecap:square;stroke-linejoin:miter;stroke-width:0.8;"/>
   </g>
   <g id="patch_7">
    <path d="M 53.7075 239.375625 
L 388.5075 239.375625 
" style="fill:none;stroke:#000000;stroke-linecap:square;stroke-linejoin:miter;stroke-width:0.8;"/>
   </g>
   <g id="patch_8">
    <path d="M 53.7075 21.935625 
L 388.5075 21.935625 
" style="fill:none;stroke:#000000;stroke-linecap:square;stroke-linejoin:miter;stroke-width:0.8;"/>
   </g>
   <g id="PathCollection_1">
    <defs>
     <path d="M 0 7.5 
C 1.989023 7.5 3.896849 6.709753 5.303301 5.303301 
C 6.709753 3.896849 7.5 1.989023 7.5 0 
C 7.5 -1.989023 6.709753 -3.896849 5.303301 -5.303301 
C 3.896849 -6.709753 1.989023 -7.5 0 -7.5 
C -1.989023 -7.5 -3.896849 -6.709753 -5.303301 -5.303301 
C -6.709753 -3.896849 -7.5 -1.989023 -7.5 0 
C -7.5 1.989023 -6.709753 3.896849 -5.303301 5.303301 
C -3.896849 6.709753 -1.989023 7.5 0 7.5 
z
" id="C0_0_07643ffcde"/>
    </defs>
    <g clip-path="url(#p0333f97f1e)">
     <use style="fill:#ff0000;stroke:#000000;" x="137.4075" xlink:href="#C0_0_07643ffcde" y="222.530285"/>
    </g>
    <g clip-path="url(#p0333f97f1e)">
     <use style="fill:#ff0000;stroke:#000000;" x="137.4075" xlink:href="#C0_0_07643ffcde" y="193.639558"/>
    </g>
    <g clip-path="url(#p0333f97f1e)">
     <use style="fill:#ff0000;stroke:#000000;" x="120.665375" xlink:href="#C0_0_07643ffcde" y="192.312613"/>
    </g>
    <g clip-path="url(#p0333f97f1e)">
     <use style="fill:#ff0000;stroke:#000000;" x="137.4075" xlink:href="#C0_0_07643ffcde" y="155.882376"/>
    </g>
   </g>
   <g id="PathCollection_2">
    <defs>
     <path d="M 0 7.5 
C 1.989023 7.5 3.896849 6.709753 5.303301 5.303301 
C 6.709753 3.896849 7.5 1.989023 7.5 0 
C 7.5 -1.989023 6.709753 -3.896849 5.303301 -5.303301 
C 3.896849 -6.709753 1.989023 -7.5 0 -7.5 
C -1.989023 -7.5 -3.896849 -6.709753 -5.303301 -5.303301 
C -6.709753 -3.896849 -7.5 -1.989023 -7.5 0 
C -7.5 1.989023 -6.709753 3.896849 -5.303301 5.303301 
C -3.896849 6.709753 -1.989023 7.5 0 7.5 
z
" id="C1_0_dead26566b"/>
    </defs>
    <g clip-path="url(#p0333f97f1e)">
     <use style="fill:#0000ff;stroke:#000000;" x="304.8075" xlink:href="#C1_0_dead26566b" y="113.911189"/>
    </g>
    <g clip-path="url(#p0333f97f1e)">
     <use style="fill:#0000ff;stroke:#000000;" x="304.8075" xlink:href="#C1_0_dead26566b" y="92.956809"/>
    </g>
    <g clip-path="url(#p0333f97f1e)">
     <use style="fill:#0000ff;stroke:#000000;" x="304.8075" xlink:href="#C1_0_dead26566b" y="75.763768"/>
    </g>
    <g clip-path="url(#p0333f97f1e)">
     <use style="fill:#0000ff;stroke:#000000;" x="304.8075" xlink:href="#C1_0_dead26566b" y="39.045102"/>
    </g>
   </g>
   <g id="text_10">
    <text style="font-family:Arial;font-size:12px;font-style:normal;font-weight:normal;text-anchor:middle;" transform="rotate(-0, 221.1075, 15.935625)" x="221.1075" y="15.935625">family Log Ratio(Ruminococcaceae+S24-7/Verrucomicrobia) High Beta Diversity</text>
   </g>
  </g>
 </g>
 <defs>
  <clipPath id="p0333f97f1e">
   <rect height="217.44" width="334.8" x="53.7075" y="21.935625"/>
  </clipPath>
 </defs>
</svg>
