<?xml version="1.0" encoding="utf-8" standalone="no"?>
<!DOCTYPE svg PUBLIC "-//W3C//DTD SVG 1.1//EN"
  "http://www.w3.org/Graphics/SVG/1.1/DTD/svg11.dtd">
<!-- Created with matplotlib (https://matplotlib.org/) -->
<svg height="275.988125pt" version="1.1" viewBox="0 0 401.534062 275.988125" width="401.534062pt" xmlns="http://www.w3.org/2000/svg" xmlns:xlink="http://www.w3.org/1999/xlink">
 <defs>
  <style type="text/css">
*{stroke-linecap:butt;stroke-linejoin:round;white-space:pre;}
  </style>
 </defs>
 <g id="figure_1">
  <g id="patch_1">
   <path d="M 0 275.988125 
L 401.534062 275.988125 
L 401.534062 0 
L 0 0 
z
" style="fill:#ffffff;"/>
  </g>
  <g id="axes_1">
   <g id="patch_2">
    <path d="M 47.203125 239.375625 
L 382.003125 239.375625 
L 382.003125 21.935625 
L 47.203125 21.935625 
z
" style="fill:#ffffff;"/>
   </g>
   <g id="patch_3">
    <path clip-path="url(#p33aa43b872)" d="M 63.943125 171.047119 
L 197.863125 171.047119 
L 197.863125 160.189442 
L 63.943125 160.189442 
L 63.943125 171.047119 
z
" style="fill:#df2020;stroke:#4c4c4c;stroke-linejoin:miter;stroke-width:1.5;"/>
   </g>
   <g id="patch_4">
    <path clip-path="url(#p33aa43b872)" d="M 231.343125 153.604738 
L 365.263125 153.604738 
L 365.263125 140.311615 
L 231.343125 140.311615 
L 231.343125 153.604738 
z
" style="fill:#2020df;stroke:#4c4c4c;stroke-linejoin:miter;stroke-width:1.5;"/>
   </g>
   <g id="matplotlib.axis_1">
    <g id="xtick_1">
     <g id="line2d_1">
      <defs>
       <path d="M 0 0 
L 0 3.5 
" id="m02c73d231f" style="stroke:#000000;stroke-width:0.8;"/>
      </defs>
      <g>
       <use style="stroke:#000000;stroke-width:0.8;" x="130.903125" xlink:href="#m02c73d231f" y="239.375625"/>
      </g>
     </g>
     <g id="text_1">
      <text style="font-family:Arial;font-size:10px;font-style:normal;font-weight:normal;text-anchor:middle;" transform="rotate(-0, 130.903125, 253.563125)" x="130.903125" y="253.563125">Air_22</text>
     </g>
    </g>
    <g id="xtick_2">
     <g id="line2d_2">
      <g>
       <use style="stroke:#000000;stroke-width:0.8;" x="298.303125" xlink:href="#m02c73d231f" y="239.375625"/>
      </g>
     </g>
     <g id="text_2">
      <text style="font-family:Arial;font-size:10px;font-style:normal;font-weight:normal;text-anchor:middle;" transform="rotate(-0, 298.303125, 253.655313)" x="298.303125" y="253.655313">IHC_18</text>
     </g>
    </g>
    <g id="text_3">
     <text style="font-family:Arial;font-size:10px;font-style:normal;font-weight:normal;text-anchor:middle;" transform="rotate(-0, 214.603125, 266.800625)" x="214.603125" y="266.800625">Both</text>
    </g>
   </g>
   <g id="matplotlib.axis_2">
    <g id="ytick_1">
     <g id="line2d_3">
      <defs>
       <path d="M 0 0 
L -3.5 0 
" id="m34c96a1d23" style="stroke:#000000;stroke-width:0.8;"/>
      </defs>
      <g>
       <use style="stroke:#000000;stroke-width:0.8;" x="47.203125" xlink:href="#m34c96a1d23" y="239.375625"/>
      </g>
     </g>
     <g id="text_4">
      <text style="font-family:Arial;font-size:10px;font-style:normal;font-weight:normal;text-anchor:end;" transform="rotate(-0, 40.203125, 242.954531)" x="40.203125" y="242.954531">−2.5</text>
     </g>
    </g>
    <g id="ytick_2">
     <g id="line2d_4">
      <g>
       <use style="stroke:#000000;stroke-width:0.8;" x="47.203125" xlink:href="#m34c96a1d23" y="212.195625"/>
      </g>
     </g>
     <g id="text_5">
      <text style="font-family:Arial;font-size:10px;font-style:normal;font-weight:normal;text-anchor:end;" transform="rotate(-0, 40.203125, 215.774531)" x="40.203125" y="215.774531">−2.0</text>
     </g>
    </g>
    <g id="ytick_3">
     <g id="line2d_5">
      <g>
       <use style="stroke:#000000;stroke-width:0.8;" x="47.203125" xlink:href="#m34c96a1d23" y="185.015625"/>
      </g>
     </g>
     <g id="text_6">
      <text style="font-family:Arial;font-size:10px;font-style:normal;font-weight:normal;text-anchor:end;" transform="rotate(-0, 40.203125, 188.594531)" x="40.203125" y="188.594531">−1.5</text>
     </g>
    </g>
    <g id="ytick_4">
     <g id="line2d_6">
      <g>
       <use style="stroke:#000000;stroke-width:0.8;" x="47.203125" xlink:href="#m34c96a1d23" y="157.835625"/>
      </g>
     </g>
     <g id="text_7">
      <text style="font-family:Arial;font-size:10px;font-style:normal;font-weight:normal;text-anchor:end;" transform="rotate(-0, 40.203125, 161.414531)" x="40.203125" y="161.414531">−1.0</text>
     </g>
    </g>
    <g id="ytick_5">
     <g id="line2d_7">
      <g>
       <use style="stroke:#000000;stroke-width:0.8;" x="47.203125" xlink:href="#m34c96a1d23" y="130.655625"/>
      </g>
     </g>
     <g id="text_8">
      <text style="font-family:Arial;font-size:10px;font-style:normal;font-weight:normal;text-anchor:end;" transform="rotate(-0, 40.203125, 134.234531)" x="40.203125" y="134.234531">−0.5</text>
     </g>
    </g>
    <g id="ytick_6">
     <g id="line2d_8">
      <g>
       <use style="stroke:#000000;stroke-width:0.8;" x="47.203125" xlink:href="#m34c96a1d23" y="103.475625"/>
      </g>
     </g>
     <g id="text_9">
      <text style="font-family:Arial;font-size:10px;font-style:normal;font-weight:normal;text-anchor:end;" transform="rotate(-0, 40.203125, 107.054531)" x="40.203125" y="107.054531">0.0</text>
     </g>
    </g>
    <g id="ytick_7">
     <g id="line2d_9">
      <g>
       <use style="stroke:#000000;stroke-width:0.8;" x="47.203125" xlink:href="#m34c96a1d23" y="76.295625"/>
      </g>
     </g>
     <g id="text_10">
      <text style="font-family:Arial;font-size:10px;font-style:normal;font-weight:normal;text-anchor:end;" transform="rotate(-0, 40.203125, 79.874531)" x="40.203125" y="79.874531">0.5</text>
     </g>
    </g>
    <g id="ytick_8">
     <g id="line2d_10">
      <g>
       <use style="stroke:#000000;stroke-width:0.8;" x="47.203125" xlink:href="#m34c96a1d23" y="49.115625"/>
      </g>
     </g>
     <g id="text_11">
      <text style="font-family:Arial;font-size:10px;font-style:normal;font-weight:normal;text-anchor:end;" transform="rotate(-0, 40.203125, 52.694531)" x="40.203125" y="52.694531">1.0</text>
     </g>
    </g>
    <g id="ytick_9">
     <g id="line2d_11">
      <g>
       <use style="stroke:#000000;stroke-width:0.8;" x="47.203125" xlink:href="#m34c96a1d23" y="21.935625"/>
      </g>
     </g>
     <g id="text_12">
      <text style="font-family:Arial;font-size:10px;font-style:normal;font-weight:normal;text-anchor:end;" transform="rotate(-0, 40.203125, 25.514531)" x="40.203125" y="25.514531">1.5</text>
     </g>
    </g>
    <g id="text_13">
     <text style="font-family:Arial;font-size:10px;font-style:normal;font-weight:normal;text-anchor:middle;" transform="rotate(-90, 14.357813, 130.655625)" x="14.357813" y="130.655625">Log_Bacteroidetes_Verrucomicrobia</text>
    </g>
   </g>
   <g id="line2d_12">
    <path clip-path="url(#p33aa43b872)" d="M 130.903125 171.047119 
L 130.903125 174.566951 
" style="fill:none;stroke:#4c4c4c;stroke-linecap:square;stroke-width:1.5;"/>
   </g>
   <g id="line2d_13">
    <path clip-path="url(#p33aa43b872)" d="M 130.903125 160.189442 
L 130.903125 155.358761 
" style="fill:none;stroke:#4c4c4c;stroke-linecap:square;stroke-width:1.5;"/>
   </g>
   <g id="line2d_14">
    <path clip-path="url(#p33aa43b872)" d="M 97.423125 174.566951 
L 164.383125 174.566951 
" style="fill:none;stroke:#4c4c4c;stroke-linecap:square;stroke-width:1.5;"/>
   </g>
   <g id="line2d_15">
    <path clip-path="url(#p33aa43b872)" d="M 97.423125 155.358761 
L 164.383125 155.358761 
" style="fill:none;stroke:#4c4c4c;stroke-linecap:square;stroke-width:1.5;"/>
   </g>
   <g id="line2d_16"/>
   <g id="line2d_17">
    <path clip-path="url(#p33aa43b872)" d="M 298.303125 153.604738 
L 298.303125 153.604738 
" style="fill:none;stroke:#4c4c4c;stroke-linecap:square;stroke-width:1.5;"/>
   </g>
   <g id="line2d_18">
    <path clip-path="url(#p33aa43b872)" d="M 298.303125 140.311615 
L 298.303125 137.517614 
" style="fill:none;stroke:#4c4c4c;stroke-linecap:square;stroke-width:1.5;"/>
   </g>
   <g id="line2d_19">
    <path clip-path="url(#p33aa43b872)" d="M 264.823125 153.604738 
L 331.783125 153.604738 
" style="fill:none;stroke:#4c4c4c;stroke-linecap:square;stroke-width:1.5;"/>
   </g>
   <g id="line2d_20">
    <path clip-path="url(#p33aa43b872)" d="M 264.823125 137.517614 
L 331.783125 137.517614 
" style="fill:none;stroke:#4c4c4c;stroke-linecap:square;stroke-width:1.5;"/>
   </g>
   <g id="line2d_21">
    <defs>
     <path d="M -0 3.535534 
L 2.12132 0 
L -0 -3.535534 
L -2.12132 -0 
z
" id="ma99c8d7e16" style="stroke:#4c4c4c;stroke-linejoin:miter;"/>
    </defs>
    <g clip-path="url(#p33aa43b872)">
     <use style="fill:#4c4c4c;stroke:#4c4c4c;stroke-linejoin:miter;" x="298.303125" xlink:href="#ma99c8d7e16" y="184.874176"/>
    </g>
   </g>
   <g id="line2d_22">
    <path clip-path="url(#p33aa43b872)" d="M 63.943125 165.836755 
L 197.863125 165.836755 
" style="fill:none;stroke:#4c4c4c;stroke-linecap:square;stroke-width:1.5;"/>
   </g>
   <g id="line2d_23">
    <path clip-path="url(#p33aa43b872)" d="M 231.343125 142.21227 
L 365.263125 142.21227 
" style="fill:none;stroke:#4c4c4c;stroke-linecap:square;stroke-width:1.5;"/>
   </g>
   <g id="patch_5">
    <path d="M 47.203125 239.375625 
L 47.203125 21.935625 
" style="fill:none;stroke:#000000;stroke-linecap:square;stroke-linejoin:miter;stroke-width:0.8;"/>
   </g>
   <g id="patch_6">
    <path d="M 382.003125 239.375625 
L 382.003125 21.935625 
" style="fill:none;stroke:#000000;stroke-linecap:square;stroke-linejoin:miter;stroke-width:0.8;"/>
   </g>
   <g id="patch_7">
    <path d="M 47.203125 239.375625 
L 382.003125 239.375625 
" style="fill:none;stroke:#000000;stroke-linecap:square;stroke-linejoin:miter;stroke-width:0.8;"/>
   </g>
   <g id="patch_8">
    <path d="M 47.203125 21.935625 
L 382.003125 21.935625 
" style="fill:none;stroke:#000000;stroke-linecap:square;stroke-linejoin:miter;stroke-width:0.8;"/>
   </g>
   <g id="PathCollection_1">
    <defs>
     <path d="M 0 7.5 
C 1.989023 7.5 3.896849 6.709753 5.303301 5.303301 
C 6.709753 3.896849 7.5 1.989023 7.5 0 
C 7.5 -1.989023 6.709753 -3.896849 5.303301 -5.303301 
C 3.896849 -6.709753 1.989023 -7.5 0 -7.5 
C -1.989023 -7.5 -3.896849 -6.709753 -5.303301 -5.303301 
C -6.709753 -3.896849 -7.5 -1.989023 -7.5 0 
C -7.5 1.989023 -6.709753 3.896849 -5.303301 5.303301 
C -3.896849 6.709753 -1.989023 7.5 0 7.5 
z
" id="C0_0_5ac2ec822b"/>
    </defs>
    <g clip-path="url(#p33aa43b872)">
     <use style="fill:#ff0000;stroke:#000000;" x="130.903125" xlink:href="#C0_0_5ac2ec822b" y="174.566951"/>
    </g>
    <g clip-path="url(#p33aa43b872)">
     <use style="fill:#ff0000;stroke:#000000;" x="130.903125" xlink:href="#C0_0_5ac2ec822b" y="169.873841"/>
    </g>
    <g clip-path="url(#p33aa43b872)">
     <use style="fill:#ff0000;stroke:#000000;" x="130.903125" xlink:href="#C0_0_5ac2ec822b" y="161.799669"/>
    </g>
    <g clip-path="url(#p33aa43b872)">
     <use style="fill:#ff0000;stroke:#000000;" x="130.903125" xlink:href="#C0_0_5ac2ec822b" y="155.358761"/>
    </g>
   </g>
   <g id="PathCollection_2">
    <defs>
     <path d="M 0 7.5 
C 1.989023 7.5 3.896849 6.709753 5.303301 5.303301 
C 6.709753 3.896849 7.5 1.989023 7.5 0 
C 7.5 -1.989023 6.709753 -3.896849 5.303301 -5.303301 
C 3.896849 -6.709753 1.989023 -7.5 0 -7.5 
C -1.989023 -7.5 -3.896849 -6.709753 -5.303301 -5.303301 
C -6.709753 -3.896849 -7.5 -1.989023 -7.5 0 
C -7.5 1.989023 -6.709753 3.896849 -5.303301 5.303301 
C -3.896849 6.709753 -1.989023 7.5 0 7.5 
z
" id="C1_0_b0243c8a54"/>
    </defs>
    <g clip-path="url(#p33aa43b872)">
     <use style="fill:#0000ff;stroke:#000000;" x="298.303125" xlink:href="#C1_0_b0243c8a54" y="184.874176"/>
    </g>
    <g clip-path="url(#p33aa43b872)">
     <use style="fill:#0000ff;stroke:#000000;" x="298.303125" xlink:href="#C1_0_b0243c8a54" y="143.181592"/>
    </g>
    <g clip-path="url(#p33aa43b872)">
     <use style="fill:#0000ff;stroke:#000000;" x="283.475119" xlink:href="#C1_0_b0243c8a54" y="141.242948"/>
    </g>
    <g clip-path="url(#p33aa43b872)">
     <use style="fill:#0000ff;stroke:#000000;" x="298.303125" xlink:href="#C1_0_b0243c8a54" y="137.517614"/>
    </g>
   </g>
   <g id="text_14">
    <text style="font-family:Arial;font-size:12px;font-style:normal;font-weight:normal;text-anchor:middle;" transform="rotate(-0, 214.603125, 15.935625)" x="214.603125" y="15.935625">Phyla Log Ratio(Bacteroidetes/Verrucomicrobia) Low Beta Diversity</text>
   </g>
  </g>
 </g>
 <defs>
  <clipPath id="p33aa43b872">
   <rect height="217.44" width="334.8" x="47.203125" y="21.935625"/>
  </clipPath>
 </defs>
</svg>
