<?xml version="1.0" encoding="utf-8" standalone="no"?>
<!DOCTYPE svg PUBLIC "-//W3C//DTD SVG 1.1//EN"
  "http://www.w3.org/Graphics/SVG/1.1/DTD/svg11.dtd">
<!-- Created with matplotlib (https://matplotlib.org/) -->
<svg height="275.988125pt" version="1.1" viewBox="0 0 395.324062 275.988125" width="395.324062pt" xmlns="http://www.w3.org/2000/svg" xmlns:xlink="http://www.w3.org/1999/xlink">
 <defs>
  <style type="text/css">
*{stroke-linecap:butt;stroke-linejoin:round;white-space:pre;}
  </style>
 </defs>
 <g id="figure_1">
  <g id="patch_1">
   <path d="M 0 275.988125 
L 395.324062 275.988125 
L 395.324062 0 
L 0 0 
z
" style="fill:#ffffff;"/>
  </g>
  <g id="axes_1">
   <g id="patch_2">
    <path d="M 47.325 239.375625 
L 382.125 239.375625 
L 382.125 21.935625 
L 47.325 21.935625 
z
" style="fill:#ffffff;"/>
   </g>
   <g id="patch_3">
    <path clip-path="url(#p89b9587cf5)" d="M 64.065 187.559503 
L 197.985 187.559503 
L 197.985 158.771802 
L 64.065 158.771802 
L 64.065 187.559503 
z
" style="fill:#df2020;stroke:#4c4c4c;stroke-linejoin:miter;stroke-width:1.5;"/>
   </g>
   <g id="patch_4">
    <path clip-path="url(#p89b9587cf5)" d="M 231.465 135.256225 
L 365.385 135.256225 
L 365.385 109.738094 
L 231.465 109.738094 
L 231.465 135.256225 
z
" style="fill:#2020df;stroke:#4c4c4c;stroke-linejoin:miter;stroke-width:1.5;"/>
   </g>
   <g id="matplotlib.axis_1">
    <g id="xtick_1">
     <g id="line2d_1">
      <defs>
       <path d="M 0 0 
L 0 3.5 
" id="m004b2a3ac6" style="stroke:#000000;stroke-width:0.8;"/>
      </defs>
      <g>
       <use style="stroke:#000000;stroke-width:0.8;" x="131.025" xlink:href="#m004b2a3ac6" y="239.375625"/>
      </g>
     </g>
     <g id="text_1">
      <text style="font-family:Arial;font-size:10px;font-style:normal;font-weight:normal;text-anchor:middle;" transform="rotate(-0, 131.025, 253.563125)" x="131.025" y="253.563125">Air_10.0</text>
     </g>
    </g>
    <g id="xtick_2">
     <g id="line2d_2">
      <g>
       <use style="stroke:#000000;stroke-width:0.8;" x="298.425" xlink:href="#m004b2a3ac6" y="239.375625"/>
      </g>
     </g>
     <g id="text_2">
      <text style="font-family:Arial;font-size:10px;font-style:normal;font-weight:normal;text-anchor:middle;" transform="rotate(-0, 298.425, 253.655313)" x="298.425" y="253.655313">IHC_2.0</text>
     </g>
    </g>
    <g id="text_3">
     <text style="font-family:Arial;font-size:10px;font-style:normal;font-weight:normal;text-anchor:middle;" transform="rotate(-0, 214.725, 266.800625)" x="214.725" y="266.800625">Both</text>
    </g>
   </g>
   <g id="matplotlib.axis_2">
    <g id="ytick_1">
     <g id="line2d_3">
      <defs>
       <path d="M 0 0 
L -3.5 0 
" id="m8f20343a60" style="stroke:#000000;stroke-width:0.8;"/>
      </defs>
      <g>
       <use style="stroke:#000000;stroke-width:0.8;" x="47.325" xlink:href="#m8f20343a60" y="211.013886"/>
      </g>
     </g>
     <g id="text_4">
      <text style="font-family:Arial;font-size:10px;font-style:normal;font-weight:normal;text-anchor:end;" transform="rotate(-0, 40.325, 214.592792)" x="40.325" y="214.592792">−2.0</text>
     </g>
    </g>
    <g id="ytick_2">
     <g id="line2d_4">
      <g>
       <use style="stroke:#000000;stroke-width:0.8;" x="47.325" xlink:href="#m8f20343a60" y="163.744321"/>
      </g>
     </g>
     <g id="text_5">
      <text style="font-family:Arial;font-size:10px;font-style:normal;font-weight:normal;text-anchor:end;" transform="rotate(-0, 40.325, 167.323227)" x="40.325" y="167.323227">−1.5</text>
     </g>
    </g>
    <g id="ytick_3">
     <g id="line2d_5">
      <g>
       <use style="stroke:#000000;stroke-width:0.8;" x="47.325" xlink:href="#m8f20343a60" y="116.474755"/>
      </g>
     </g>
     <g id="text_6">
      <text style="font-family:Arial;font-size:10px;font-style:normal;font-weight:normal;text-anchor:end;" transform="rotate(-0, 40.325, 120.053662)" x="40.325" y="120.053662">−1.0</text>
     </g>
    </g>
    <g id="ytick_4">
     <g id="line2d_6">
      <g>
       <use style="stroke:#000000;stroke-width:0.8;" x="47.325" xlink:href="#m8f20343a60" y="69.20519"/>
      </g>
     </g>
     <g id="text_7">
      <text style="font-family:Arial;font-size:10px;font-style:normal;font-weight:normal;text-anchor:end;" transform="rotate(-0, 40.325, 72.784096)" x="40.325" y="72.784096">−0.5</text>
     </g>
    </g>
    <g id="ytick_5">
     <g id="line2d_7">
      <g>
       <use style="stroke:#000000;stroke-width:0.8;" x="47.325" xlink:href="#m8f20343a60" y="21.935625"/>
      </g>
     </g>
     <g id="text_8">
      <text style="font-family:Arial;font-size:10px;font-style:normal;font-weight:normal;text-anchor:end;" transform="rotate(-0, 40.325, 25.514531)" x="40.325" y="25.514531">0.0</text>
     </g>
    </g>
    <g id="text_9">
     <text style="font-family:Arial;font-size:10px;font-style:normal;font-weight:normal;text-anchor:middle;" transform="rotate(-90, 14.479688, 130.655625)" x="14.479688" y="130.655625">Log_BA_PPC</text>
    </g>
   </g>
   <g id="line2d_8">
    <path clip-path="url(#p89b9587cf5)" d="M 131.025 187.559503 
L 131.025 209.483093 
" style="fill:none;stroke:#4c4c4c;stroke-linecap:square;stroke-width:1.5;"/>
   </g>
   <g id="line2d_9">
    <path clip-path="url(#p89b9587cf5)" d="M 131.025 158.771802 
L 131.025 151.907691 
" style="fill:none;stroke:#4c4c4c;stroke-linecap:square;stroke-width:1.5;"/>
   </g>
   <g id="line2d_10">
    <path clip-path="url(#p89b9587cf5)" d="M 97.545 209.483093 
L 164.505 209.483093 
" style="fill:none;stroke:#4c4c4c;stroke-linecap:square;stroke-width:1.5;"/>
   </g>
   <g id="line2d_11">
    <path clip-path="url(#p89b9587cf5)" d="M 97.545 151.907691 
L 164.505 151.907691 
" style="fill:none;stroke:#4c4c4c;stroke-linecap:square;stroke-width:1.5;"/>
   </g>
   <g id="line2d_12"/>
   <g id="line2d_13">
    <path clip-path="url(#p89b9587cf5)" d="M 298.425 135.256225 
L 298.425 138.266652 
" style="fill:none;stroke:#4c4c4c;stroke-linecap:square;stroke-width:1.5;"/>
   </g>
   <g id="line2d_14">
    <path clip-path="url(#p89b9587cf5)" d="M 298.425 109.738094 
L 298.425 108.871015 
" style="fill:none;stroke:#4c4c4c;stroke-linecap:square;stroke-width:1.5;"/>
   </g>
   <g id="line2d_15">
    <path clip-path="url(#p89b9587cf5)" d="M 264.945 138.266652 
L 331.905 138.266652 
" style="fill:none;stroke:#4c4c4c;stroke-linecap:square;stroke-width:1.5;"/>
   </g>
   <g id="line2d_16">
    <path clip-path="url(#p89b9587cf5)" d="M 264.945 108.871015 
L 331.905 108.871015 
" style="fill:none;stroke:#4c4c4c;stroke-linecap:square;stroke-width:1.5;"/>
   </g>
   <g id="line2d_17"/>
   <g id="line2d_18">
    <path clip-path="url(#p89b9587cf5)" d="M 64.065 165.635913 
L 197.985 165.635913 
" style="fill:none;stroke:#4c4c4c;stroke-linecap:square;stroke-width:1.5;"/>
   </g>
   <g id="line2d_19">
    <path clip-path="url(#p89b9587cf5)" d="M 231.465 122.139935 
L 365.385 122.139935 
" style="fill:none;stroke:#4c4c4c;stroke-linecap:square;stroke-width:1.5;"/>
   </g>
   <g id="patch_5">
    <path d="M 47.325 239.375625 
L 47.325 21.935625 
" style="fill:none;stroke:#000000;stroke-linecap:square;stroke-linejoin:miter;stroke-width:0.8;"/>
   </g>
   <g id="patch_6">
    <path d="M 382.125 239.375625 
L 382.125 21.935625 
" style="fill:none;stroke:#000000;stroke-linecap:square;stroke-linejoin:miter;stroke-width:0.8;"/>
   </g>
   <g id="patch_7">
    <path d="M 47.325 239.375625 
L 382.125 239.375625 
" style="fill:none;stroke:#000000;stroke-linecap:square;stroke-linejoin:miter;stroke-width:0.8;"/>
   </g>
   <g id="patch_8">
    <path d="M 47.325 21.935625 
L 382.125 21.935625 
" style="fill:none;stroke:#000000;stroke-linecap:square;stroke-linejoin:miter;stroke-width:0.8;"/>
   </g>
   <g id="PathCollection_1">
    <defs>
     <path d="M 0 7.5 
C 1.989023 7.5 3.896849 6.709753 5.303301 5.303301 
C 6.709753 3.896849 7.5 1.989023 7.5 0 
C 7.5 -1.989023 6.709753 -3.896849 5.303301 -5.303301 
C 3.896849 -6.709753 1.989023 -7.5 0 -7.5 
C -1.989023 -7.5 -3.896849 -6.709753 -5.303301 -5.303301 
C -6.709753 -3.896849 -7.5 -1.989023 -7.5 0 
C -7.5 1.989023 -6.709753 3.896849 -5.303301 5.303301 
C -3.896849 6.709753 -1.989023 7.5 0 7.5 
z
" id="C0_0_f1260facfa"/>
    </defs>
    <g clip-path="url(#p89b9587cf5)">
     <use style="fill:#ff0000;stroke:#000000;" x="131.025" xlink:href="#C0_0_f1260facfa" y="209.483093"/>
    </g>
    <g clip-path="url(#p89b9587cf5)">
     <use style="fill:#ff0000;stroke:#000000;" x="131.025" xlink:href="#C0_0_f1260facfa" y="165.635913"/>
    </g>
    <g clip-path="url(#p89b9587cf5)">
     <use style="fill:#ff0000;stroke:#000000;" x="131.025" xlink:href="#C0_0_f1260facfa" y="151.907691"/>
    </g>
   </g>
   <g id="PathCollection_2">
    <defs>
     <path d="M 0 7.5 
C 1.989023 7.5 3.896849 6.709753 5.303301 5.303301 
C 6.709753 3.896849 7.5 1.989023 7.5 0 
C 7.5 -1.989023 6.709753 -3.896849 5.303301 -5.303301 
C 3.896849 -6.709753 1.989023 -7.5 0 -7.5 
C -1.989023 -7.5 -3.896849 -6.709753 -5.303301 -5.303301 
C -6.709753 -3.896849 -7.5 -1.989023 -7.5 0 
C -7.5 1.989023 -6.709753 3.896849 -5.303301 5.303301 
C -3.896849 6.709753 -1.989023 7.5 0 7.5 
z
" id="C1_0_49dafb8b62"/>
    </defs>
    <g clip-path="url(#p89b9587cf5)">
     <use style="fill:#0000ff;stroke:#000000;" x="298.425" xlink:href="#C1_0_49dafb8b62" y="138.266652"/>
    </g>
    <g clip-path="url(#p89b9587cf5)">
     <use style="fill:#0000ff;stroke:#000000;" x="283.48634" xlink:href="#C1_0_49dafb8b62" y="134.252749"/>
    </g>
    <g clip-path="url(#p89b9587cf5)">
     <use style="fill:#0000ff;stroke:#000000;" x="298.425" xlink:href="#C1_0_49dafb8b62" y="110.02712"/>
    </g>
    <g clip-path="url(#p89b9587cf5)">
     <use style="fill:#0000ff;stroke:#000000;" x="281.771499" xlink:href="#C1_0_49dafb8b62" y="108.871015"/>
    </g>
   </g>
   <g id="text_10">
    <text style="font-family:Arial;font-size:12px;font-style:normal;font-weight:normal;text-anchor:middle;" transform="rotate(-0, 214.725, 15.935625)" x="214.725" y="15.935625">family Log Ratio(Bile Acids/Phosphocholines) High Beta Diversity</text>
   </g>
  </g>
 </g>
 <defs>
  <clipPath id="p89b9587cf5">
   <rect height="217.44" width="334.8" x="47.325" y="21.935625"/>
  </clipPath>
 </defs>
</svg>
